G75*
%MOIN*%
%OFA0B0*%
%FSLAX24Y24*%
%IPPOS*%
%LPD*%
%AMOC8*
5,1,8,0,0,1.08239X$1,22.5*
%
%ADD10C,0.0000*%
D10*
X001219Y001770D02*
X001221Y001817D01*
X001227Y001863D01*
X001237Y001909D01*
X001250Y001954D01*
X001268Y001997D01*
X001289Y002039D01*
X001313Y002079D01*
X001341Y002116D01*
X001372Y002151D01*
X001406Y002184D01*
X001442Y002213D01*
X001481Y002239D01*
X001522Y002262D01*
X001565Y002281D01*
X001609Y002297D01*
X001654Y002309D01*
X001700Y002317D01*
X001747Y002321D01*
X001793Y002321D01*
X001840Y002317D01*
X001886Y002309D01*
X001931Y002297D01*
X001975Y002281D01*
X002018Y002262D01*
X002059Y002239D01*
X002098Y002213D01*
X002134Y002184D01*
X002168Y002151D01*
X002199Y002116D01*
X002227Y002079D01*
X002251Y002039D01*
X002272Y001997D01*
X002290Y001954D01*
X002303Y001909D01*
X002313Y001863D01*
X002319Y001817D01*
X002321Y001770D01*
X002319Y001723D01*
X002313Y001677D01*
X002303Y001631D01*
X002290Y001586D01*
X002272Y001543D01*
X002251Y001501D01*
X002227Y001461D01*
X002199Y001424D01*
X002168Y001389D01*
X002134Y001356D01*
X002098Y001327D01*
X002059Y001301D01*
X002018Y001278D01*
X001975Y001259D01*
X001931Y001243D01*
X001886Y001231D01*
X001840Y001223D01*
X001793Y001219D01*
X001747Y001219D01*
X001700Y001223D01*
X001654Y001231D01*
X001609Y001243D01*
X001565Y001259D01*
X001522Y001278D01*
X001481Y001301D01*
X001442Y001327D01*
X001406Y001356D01*
X001372Y001389D01*
X001341Y001424D01*
X001313Y001461D01*
X001289Y001501D01*
X001268Y001543D01*
X001250Y001586D01*
X001237Y001631D01*
X001227Y001677D01*
X001221Y001723D01*
X001219Y001770D01*
X000589Y002951D02*
X000533Y002892D01*
X000481Y002831D01*
X000431Y002768D01*
X000384Y002702D01*
X000341Y002634D01*
X000301Y002564D01*
X000264Y002492D01*
X000231Y002418D01*
X000201Y002343D01*
X000176Y002267D01*
X000153Y002189D01*
X000135Y002111D01*
X000121Y002031D01*
X000110Y001951D01*
X000103Y001871D01*
X000100Y001790D01*
X000101Y001709D01*
X000106Y001629D01*
X000115Y001549D01*
X000127Y001469D01*
X000144Y001390D01*
X000164Y001312D01*
X000188Y001235D01*
X000216Y001159D01*
X000247Y001085D01*
X000282Y001012D01*
X000320Y000941D01*
X000362Y000872D01*
X000407Y000805D01*
X000455Y000740D01*
X000507Y000678D01*
X000561Y000618D01*
X000618Y000561D01*
X000678Y000507D01*
X000740Y000455D01*
X000805Y000407D01*
X000872Y000362D01*
X000941Y000320D01*
X001012Y000282D01*
X001085Y000247D01*
X001159Y000216D01*
X001235Y000188D01*
X001312Y000164D01*
X001390Y000144D01*
X001469Y000127D01*
X001549Y000115D01*
X001629Y000106D01*
X001709Y000101D01*
X001790Y000100D01*
X001871Y000103D01*
X001951Y000110D01*
X002031Y000121D01*
X002111Y000135D01*
X002189Y000153D01*
X002267Y000176D01*
X002343Y000201D01*
X002418Y000231D01*
X002492Y000264D01*
X002564Y000301D01*
X002634Y000341D01*
X002702Y000384D01*
X002768Y000431D01*
X002831Y000481D01*
X002892Y000533D01*
X002951Y000589D01*
X004920Y002558D01*
X037991Y002558D01*
X039959Y000589D01*
X040589Y001770D02*
X040591Y001817D01*
X040597Y001863D01*
X040607Y001909D01*
X040620Y001954D01*
X040638Y001997D01*
X040659Y002039D01*
X040683Y002079D01*
X040711Y002116D01*
X040742Y002151D01*
X040776Y002184D01*
X040812Y002213D01*
X040851Y002239D01*
X040892Y002262D01*
X040935Y002281D01*
X040979Y002297D01*
X041024Y002309D01*
X041070Y002317D01*
X041117Y002321D01*
X041163Y002321D01*
X041210Y002317D01*
X041256Y002309D01*
X041301Y002297D01*
X041345Y002281D01*
X041388Y002262D01*
X041429Y002239D01*
X041468Y002213D01*
X041504Y002184D01*
X041538Y002151D01*
X041569Y002116D01*
X041597Y002079D01*
X041621Y002039D01*
X041642Y001997D01*
X041660Y001954D01*
X041673Y001909D01*
X041683Y001863D01*
X041689Y001817D01*
X041691Y001770D01*
X041689Y001723D01*
X041683Y001677D01*
X041673Y001631D01*
X041660Y001586D01*
X041642Y001543D01*
X041621Y001501D01*
X041597Y001461D01*
X041569Y001424D01*
X041538Y001389D01*
X041504Y001356D01*
X041468Y001327D01*
X041429Y001301D01*
X041388Y001278D01*
X041345Y001259D01*
X041301Y001243D01*
X041256Y001231D01*
X041210Y001223D01*
X041163Y001219D01*
X041117Y001219D01*
X041070Y001223D01*
X041024Y001231D01*
X040979Y001243D01*
X040935Y001259D01*
X040892Y001278D01*
X040851Y001301D01*
X040812Y001327D01*
X040776Y001356D01*
X040742Y001389D01*
X040711Y001424D01*
X040683Y001461D01*
X040659Y001501D01*
X040638Y001543D01*
X040620Y001586D01*
X040607Y001631D01*
X040597Y001677D01*
X040591Y001723D01*
X040589Y001770D01*
X039959Y000589D02*
X040018Y000533D01*
X040079Y000481D01*
X040142Y000431D01*
X040208Y000384D01*
X040276Y000341D01*
X040346Y000301D01*
X040418Y000264D01*
X040492Y000231D01*
X040567Y000201D01*
X040643Y000176D01*
X040721Y000153D01*
X040799Y000135D01*
X040879Y000121D01*
X040959Y000110D01*
X041039Y000103D01*
X041120Y000100D01*
X041201Y000101D01*
X041281Y000106D01*
X041361Y000115D01*
X041441Y000127D01*
X041520Y000144D01*
X041598Y000164D01*
X041675Y000188D01*
X041751Y000216D01*
X041825Y000247D01*
X041898Y000282D01*
X041969Y000320D01*
X042038Y000362D01*
X042105Y000407D01*
X042170Y000455D01*
X042232Y000507D01*
X042292Y000561D01*
X042349Y000618D01*
X042403Y000678D01*
X042455Y000740D01*
X042503Y000805D01*
X042548Y000872D01*
X042590Y000941D01*
X042628Y001012D01*
X042663Y001085D01*
X042694Y001159D01*
X042722Y001235D01*
X042746Y001312D01*
X042766Y001390D01*
X042783Y001469D01*
X042795Y001549D01*
X042804Y001629D01*
X042809Y001709D01*
X042810Y001790D01*
X042807Y001871D01*
X042800Y001951D01*
X042789Y002031D01*
X042775Y002111D01*
X042757Y002189D01*
X042734Y002267D01*
X042709Y002343D01*
X042679Y002418D01*
X042646Y002492D01*
X042609Y002564D01*
X042569Y002634D01*
X042526Y002702D01*
X042479Y002768D01*
X042429Y002831D01*
X042377Y002892D01*
X042321Y002951D01*
X042322Y002951D02*
X040353Y004920D01*
X040353Y027755D01*
X042322Y029723D01*
X040589Y030904D02*
X040591Y030951D01*
X040597Y030997D01*
X040607Y031043D01*
X040620Y031088D01*
X040638Y031131D01*
X040659Y031173D01*
X040683Y031213D01*
X040711Y031250D01*
X040742Y031285D01*
X040776Y031318D01*
X040812Y031347D01*
X040851Y031373D01*
X040892Y031396D01*
X040935Y031415D01*
X040979Y031431D01*
X041024Y031443D01*
X041070Y031451D01*
X041117Y031455D01*
X041163Y031455D01*
X041210Y031451D01*
X041256Y031443D01*
X041301Y031431D01*
X041345Y031415D01*
X041388Y031396D01*
X041429Y031373D01*
X041468Y031347D01*
X041504Y031318D01*
X041538Y031285D01*
X041569Y031250D01*
X041597Y031213D01*
X041621Y031173D01*
X041642Y031131D01*
X041660Y031088D01*
X041673Y031043D01*
X041683Y030997D01*
X041689Y030951D01*
X041691Y030904D01*
X041689Y030857D01*
X041683Y030811D01*
X041673Y030765D01*
X041660Y030720D01*
X041642Y030677D01*
X041621Y030635D01*
X041597Y030595D01*
X041569Y030558D01*
X041538Y030523D01*
X041504Y030490D01*
X041468Y030461D01*
X041429Y030435D01*
X041388Y030412D01*
X041345Y030393D01*
X041301Y030377D01*
X041256Y030365D01*
X041210Y030357D01*
X041163Y030353D01*
X041117Y030353D01*
X041070Y030357D01*
X041024Y030365D01*
X040979Y030377D01*
X040935Y030393D01*
X040892Y030412D01*
X040851Y030435D01*
X040812Y030461D01*
X040776Y030490D01*
X040742Y030523D01*
X040711Y030558D01*
X040683Y030595D01*
X040659Y030635D01*
X040638Y030677D01*
X040620Y030720D01*
X040607Y030765D01*
X040597Y030811D01*
X040591Y030857D01*
X040589Y030904D01*
X039959Y032085D02*
X040018Y032141D01*
X040079Y032193D01*
X040142Y032243D01*
X040208Y032290D01*
X040276Y032333D01*
X040346Y032373D01*
X040418Y032410D01*
X040492Y032443D01*
X040567Y032473D01*
X040643Y032498D01*
X040721Y032521D01*
X040799Y032539D01*
X040879Y032553D01*
X040959Y032564D01*
X041039Y032571D01*
X041120Y032574D01*
X041201Y032573D01*
X041281Y032568D01*
X041361Y032559D01*
X041441Y032547D01*
X041520Y032530D01*
X041598Y032510D01*
X041675Y032486D01*
X041751Y032458D01*
X041825Y032427D01*
X041898Y032392D01*
X041969Y032354D01*
X042038Y032312D01*
X042105Y032267D01*
X042170Y032219D01*
X042232Y032167D01*
X042292Y032113D01*
X042349Y032056D01*
X042403Y031996D01*
X042455Y031934D01*
X042503Y031869D01*
X042548Y031802D01*
X042590Y031733D01*
X042628Y031662D01*
X042663Y031589D01*
X042694Y031515D01*
X042722Y031439D01*
X042746Y031362D01*
X042766Y031284D01*
X042783Y031205D01*
X042795Y031125D01*
X042804Y031045D01*
X042809Y030965D01*
X042810Y030884D01*
X042807Y030803D01*
X042800Y030723D01*
X042789Y030643D01*
X042775Y030563D01*
X042757Y030485D01*
X042734Y030407D01*
X042709Y030331D01*
X042679Y030256D01*
X042646Y030182D01*
X042609Y030110D01*
X042569Y030040D01*
X042526Y029972D01*
X042479Y029906D01*
X042429Y029843D01*
X042377Y029782D01*
X042321Y029723D01*
X039959Y032085D02*
X037991Y030117D01*
X005314Y030117D01*
X002951Y032085D01*
X001219Y030904D02*
X001221Y030951D01*
X001227Y030997D01*
X001237Y031043D01*
X001250Y031088D01*
X001268Y031131D01*
X001289Y031173D01*
X001313Y031213D01*
X001341Y031250D01*
X001372Y031285D01*
X001406Y031318D01*
X001442Y031347D01*
X001481Y031373D01*
X001522Y031396D01*
X001565Y031415D01*
X001609Y031431D01*
X001654Y031443D01*
X001700Y031451D01*
X001747Y031455D01*
X001793Y031455D01*
X001840Y031451D01*
X001886Y031443D01*
X001931Y031431D01*
X001975Y031415D01*
X002018Y031396D01*
X002059Y031373D01*
X002098Y031347D01*
X002134Y031318D01*
X002168Y031285D01*
X002199Y031250D01*
X002227Y031213D01*
X002251Y031173D01*
X002272Y031131D01*
X002290Y031088D01*
X002303Y031043D01*
X002313Y030997D01*
X002319Y030951D01*
X002321Y030904D01*
X002319Y030857D01*
X002313Y030811D01*
X002303Y030765D01*
X002290Y030720D01*
X002272Y030677D01*
X002251Y030635D01*
X002227Y030595D01*
X002199Y030558D01*
X002168Y030523D01*
X002134Y030490D01*
X002098Y030461D01*
X002059Y030435D01*
X002018Y030412D01*
X001975Y030393D01*
X001931Y030377D01*
X001886Y030365D01*
X001840Y030357D01*
X001793Y030353D01*
X001747Y030353D01*
X001700Y030357D01*
X001654Y030365D01*
X001609Y030377D01*
X001565Y030393D01*
X001522Y030412D01*
X001481Y030435D01*
X001442Y030461D01*
X001406Y030490D01*
X001372Y030523D01*
X001341Y030558D01*
X001313Y030595D01*
X001289Y030635D01*
X001268Y030677D01*
X001250Y030720D01*
X001237Y030765D01*
X001227Y030811D01*
X001221Y030857D01*
X001219Y030904D01*
X000590Y029723D02*
X000539Y029787D01*
X000492Y029853D01*
X000448Y029922D01*
X000407Y029992D01*
X000369Y030064D01*
X000336Y030138D01*
X000306Y030214D01*
X000279Y030291D01*
X000256Y030369D01*
X000238Y030448D01*
X000223Y030528D01*
X000212Y030609D01*
X000204Y030690D01*
X000201Y030771D01*
X000202Y030853D01*
X000207Y030934D01*
X000215Y031015D01*
X000228Y031095D01*
X000244Y031175D01*
X000264Y031254D01*
X000288Y031331D01*
X000316Y031408D01*
X000348Y031483D01*
X000383Y031556D01*
X000421Y031628D01*
X000463Y031698D01*
X000509Y031765D01*
X000557Y031831D01*
X000609Y031893D01*
X000664Y031954D01*
X000721Y032011D01*
X000782Y032066D01*
X000844Y032118D01*
X000910Y032166D01*
X000977Y032212D01*
X001047Y032254D01*
X001119Y032292D01*
X001192Y032327D01*
X001267Y032359D01*
X001344Y032387D01*
X001421Y032411D01*
X001500Y032431D01*
X001580Y032447D01*
X001660Y032460D01*
X001741Y032468D01*
X001822Y032473D01*
X001904Y032474D01*
X001985Y032471D01*
X002066Y032463D01*
X002147Y032452D01*
X002227Y032437D01*
X002306Y032419D01*
X002384Y032396D01*
X002461Y032369D01*
X002537Y032339D01*
X002611Y032306D01*
X002683Y032268D01*
X002753Y032227D01*
X002822Y032183D01*
X002888Y032136D01*
X002952Y032085D01*
X000589Y029723D02*
X002558Y027755D01*
X002558Y004920D01*
X000589Y002951D01*
M02*
