G75*
%MOIN*%
%OFA0B0*%
%FSLAX24Y24*%
%IPPOS*%
%LPD*%
%AMOC8*
5,1,8,0,0,1.08239X$1,22.5*
%
%ADD10R,0.0950X0.0950*%
%ADD11C,0.0950*%
%ADD12R,0.0800X0.0800*%
%ADD13C,0.0800*%
%ADD14C,0.0740*%
%ADD15C,0.0700*%
%ADD16C,0.0480*%
%ADD17R,0.0460X0.0630*%
%ADD18R,0.0630X0.0460*%
%ADD19C,0.0160*%
%ADD20C,0.0100*%
%ADD21C,0.0376*%
D10*
X023426Y003879D03*
D11*
X021458Y003879D03*
X019489Y003879D03*
D12*
X020235Y028835D03*
X024726Y028862D03*
D13*
X022758Y028862D03*
X018266Y028835D03*
D14*
X014014Y026940D03*
X012971Y026940D03*
X010983Y026928D03*
X009940Y026928D03*
X009940Y023928D03*
X010983Y023928D03*
X012971Y023940D03*
X014014Y023940D03*
X028865Y023955D03*
X029892Y023955D03*
X031853Y023955D03*
X032881Y023955D03*
X032881Y026955D03*
X031853Y026955D03*
X029892Y026955D03*
X028865Y026955D03*
X033753Y011540D03*
X033753Y008540D03*
X035753Y008589D03*
X035753Y005589D03*
X029288Y008429D03*
X029288Y011429D03*
X014871Y008935D03*
X012135Y009866D03*
X009635Y011521D03*
X009135Y009866D03*
X006635Y011521D03*
X014871Y005935D03*
D15*
X013995Y004534D03*
X012995Y004534D03*
X011995Y004534D03*
X010995Y004534D03*
X009995Y004534D03*
X028877Y004534D03*
X029877Y004534D03*
X030877Y004534D03*
X031877Y004534D03*
X032877Y004534D03*
X032877Y028196D03*
X031877Y028196D03*
X030877Y028196D03*
X029877Y028196D03*
X028877Y028196D03*
X013995Y028196D03*
X012995Y028196D03*
X011995Y028196D03*
X010995Y028196D03*
X009995Y028196D03*
D16*
X015593Y020310D02*
X016073Y020310D01*
X016073Y019310D02*
X015593Y019310D01*
X015593Y018310D02*
X016073Y018310D01*
X016073Y017310D02*
X015593Y017310D01*
X015593Y016310D02*
X016073Y016310D01*
X016073Y015310D02*
X015593Y015310D01*
X015593Y014310D02*
X016073Y014310D01*
X016073Y013310D02*
X015593Y013310D01*
X018593Y013310D02*
X019073Y013310D01*
X019073Y014310D02*
X018593Y014310D01*
X018593Y015310D02*
X019073Y015310D01*
X019073Y016310D02*
X018593Y016310D01*
X018593Y017310D02*
X019073Y017310D01*
X019073Y018310D02*
X018593Y018310D01*
X018593Y019310D02*
X019073Y019310D01*
X019073Y020310D02*
X018593Y020310D01*
X024306Y018731D02*
X024306Y018251D01*
X025306Y018251D02*
X025306Y018731D01*
X026306Y018731D02*
X026306Y018251D01*
X027306Y018251D02*
X027306Y018731D01*
X028306Y018731D02*
X028306Y018251D01*
X029306Y018251D02*
X029306Y018731D01*
X030306Y018731D02*
X030306Y018251D01*
X031306Y018251D02*
X031306Y018731D01*
X033995Y018703D02*
X034475Y018703D01*
X034475Y017703D02*
X033995Y017703D01*
X033995Y016703D02*
X034475Y016703D01*
X034475Y015703D02*
X033995Y015703D01*
X033995Y014703D02*
X034475Y014703D01*
X034475Y013703D02*
X033995Y013703D01*
X036995Y013703D02*
X037475Y013703D01*
X037475Y014703D02*
X036995Y014703D01*
X036995Y015703D02*
X037475Y015703D01*
X037475Y016703D02*
X036995Y016703D01*
X036995Y017703D02*
X037475Y017703D01*
X037475Y018703D02*
X036995Y018703D01*
X036995Y019703D02*
X037475Y019703D01*
X037475Y020703D02*
X036995Y020703D01*
X034475Y020703D02*
X033995Y020703D01*
X033995Y019703D02*
X034475Y019703D01*
X031306Y015731D02*
X031306Y015251D01*
X030306Y015251D02*
X030306Y015731D01*
X029306Y015731D02*
X029306Y015251D01*
X028306Y015251D02*
X028306Y015731D01*
X027306Y015731D02*
X027306Y015251D01*
X026306Y015251D02*
X026306Y015731D01*
X025306Y015731D02*
X025306Y015251D01*
X024306Y015251D02*
X024306Y015731D01*
X012504Y015418D02*
X012504Y014938D01*
X011504Y014938D02*
X011504Y015418D01*
X010504Y015418D02*
X010504Y014938D01*
X009504Y014938D02*
X009504Y015418D01*
X008504Y015418D02*
X008504Y014938D01*
X007504Y014938D02*
X007504Y015418D01*
X006504Y015418D02*
X006504Y014938D01*
X005504Y014938D02*
X005504Y015418D01*
X005504Y017938D02*
X005504Y018418D01*
X006504Y018418D02*
X006504Y017938D01*
X007504Y017938D02*
X007504Y018418D01*
X008504Y018418D02*
X008504Y017938D01*
X009504Y017938D02*
X009504Y018418D01*
X010504Y018418D02*
X010504Y017938D01*
X011504Y017938D02*
X011504Y018418D01*
X012504Y018418D02*
X012504Y017938D01*
D17*
X012258Y006258D03*
X012858Y006258D03*
X013458Y006258D03*
X010758Y006258D03*
X010158Y006258D03*
X009558Y006258D03*
X029258Y006858D03*
X029858Y006858D03*
X030458Y006858D03*
X032558Y006958D03*
X033158Y006958D03*
X033758Y006958D03*
D18*
X026858Y005858D03*
X026858Y005258D03*
X026858Y004658D03*
X006658Y007058D03*
X006658Y007658D03*
X006658Y008258D03*
D19*
X006658Y011498D01*
X006635Y011521D01*
X009135Y009866D02*
X011343Y007658D01*
X012258Y007658D01*
X012258Y006258D01*
X010758Y006258D01*
X010258Y006158D02*
X010158Y006258D01*
X010258Y006158D02*
X010258Y005358D01*
X010995Y004621D01*
X010995Y004534D01*
X011995Y004534D02*
X011995Y004595D01*
X012858Y005458D01*
X012858Y006258D01*
X013458Y006258D02*
X013458Y006058D01*
X014358Y005158D01*
X018211Y005158D01*
X019489Y003879D01*
X020268Y004658D01*
X024258Y004658D01*
X026858Y004658D01*
X027858Y004658D01*
X028153Y005258D02*
X026858Y005258D01*
X026858Y005858D02*
X027858Y006858D01*
X029258Y006858D01*
X029288Y006858D01*
X029288Y008429D01*
X030458Y008540D02*
X033753Y008540D01*
X033753Y006958D01*
X033758Y006958D01*
X033158Y006958D02*
X033158Y006258D01*
X032658Y005758D01*
X030877Y005758D01*
X030877Y004534D01*
X029877Y004534D02*
X029858Y004553D01*
X029858Y006858D01*
X030458Y006858D02*
X030458Y008540D01*
X032558Y006958D02*
X032558Y006858D01*
X031458Y006858D01*
X031858Y005258D02*
X035422Y005258D01*
X035753Y005589D01*
X031858Y005258D02*
X031858Y004534D01*
X031877Y004534D01*
X028877Y004534D02*
X028153Y005258D01*
X019489Y003879D02*
X019489Y003826D01*
X006658Y003826D01*
X006658Y007058D01*
X005504Y007058D01*
X005504Y015178D01*
X005504Y015704D01*
X007504Y017704D01*
X007504Y018178D01*
X006658Y008258D02*
X008658Y008258D01*
X009558Y007358D01*
X009558Y006258D01*
X007958Y005658D02*
X007958Y007658D01*
X006658Y007658D01*
X007958Y005658D02*
X009081Y004534D01*
X009995Y004534D01*
D20*
X004637Y002558D02*
X002558Y002558D01*
X002558Y004637D01*
X002758Y004837D01*
X002758Y027837D01*
X002558Y028037D01*
X002558Y030058D01*
X002658Y030158D01*
X004952Y030158D01*
X005179Y029969D01*
X005231Y029917D01*
X005241Y029917D01*
X005249Y029910D01*
X005323Y029917D01*
X038074Y029917D01*
X038191Y030034D01*
X038315Y030158D01*
X040358Y030158D01*
X040358Y028042D01*
X040153Y027837D01*
X040153Y004837D01*
X040358Y004632D01*
X040358Y002658D01*
X040258Y002558D01*
X038274Y002558D01*
X038074Y002758D01*
X004837Y002758D01*
X004637Y002558D01*
X002558Y002558D01*
X002558Y002656D02*
X004736Y002656D01*
X004834Y002755D02*
X002558Y002755D01*
X002558Y002853D02*
X040358Y002853D01*
X040358Y002755D02*
X038077Y002755D01*
X038175Y002656D02*
X040356Y002656D01*
X040258Y002558D02*
X038274Y002558D01*
X040358Y002952D02*
X002558Y002952D01*
X002558Y003050D02*
X040358Y003050D01*
X040358Y003149D02*
X002558Y003149D01*
X002558Y003247D02*
X019329Y003247D01*
X019361Y003234D02*
X019618Y003234D01*
X019855Y003332D01*
X020036Y003514D01*
X020134Y003751D01*
X020134Y004007D01*
X020087Y004123D01*
X020372Y004408D01*
X021074Y004408D01*
X020911Y004245D01*
X020813Y004007D01*
X020813Y003751D01*
X020911Y003514D01*
X021093Y003332D01*
X021330Y003234D01*
X021586Y003234D01*
X021823Y003332D01*
X022005Y003514D01*
X022103Y003751D01*
X022103Y004007D01*
X022005Y004245D01*
X021841Y004408D01*
X022810Y004408D01*
X022801Y004374D01*
X022801Y003929D01*
X023376Y003929D01*
X023376Y003829D01*
X022801Y003829D01*
X022801Y003384D01*
X022812Y003346D01*
X021837Y003346D01*
X021935Y003444D02*
X022801Y003444D01*
X022812Y003346D02*
X022831Y003312D01*
X022859Y003284D01*
X022893Y003264D01*
X022932Y003254D01*
X023376Y003254D01*
X023376Y003829D01*
X023476Y003829D01*
X023476Y003254D01*
X023921Y003254D01*
X023959Y003264D01*
X023993Y003284D01*
X024021Y003312D01*
X024041Y003346D01*
X040358Y003346D01*
X040358Y003444D02*
X024051Y003444D01*
X024051Y003384D02*
X024051Y003829D01*
X023476Y003829D01*
X023476Y003929D01*
X024051Y003929D01*
X024051Y004374D01*
X024042Y004408D01*
X026373Y004408D01*
X026373Y004357D01*
X026472Y004258D01*
X027243Y004258D01*
X027343Y004357D01*
X027343Y004408D01*
X027601Y004408D01*
X027655Y004354D01*
X027786Y004300D01*
X027929Y004300D01*
X028061Y004354D01*
X028161Y004455D01*
X028216Y004586D01*
X028216Y004729D01*
X028161Y004861D01*
X028061Y004961D01*
X027949Y005008D01*
X028049Y005008D01*
X028375Y004682D01*
X028357Y004638D01*
X028357Y004431D01*
X028436Y004240D01*
X028582Y004093D01*
X028773Y004014D01*
X028980Y004014D01*
X029171Y004093D01*
X029317Y004240D01*
X029377Y004382D01*
X029436Y004240D01*
X029582Y004093D01*
X029773Y004014D01*
X029980Y004014D01*
X030171Y004093D01*
X030317Y004240D01*
X030377Y004382D01*
X030436Y004240D01*
X030582Y004093D01*
X030773Y004014D01*
X030980Y004014D01*
X031171Y004093D01*
X031317Y004240D01*
X031377Y004382D01*
X031436Y004240D01*
X031582Y004093D01*
X031773Y004014D01*
X031980Y004014D01*
X032171Y004093D01*
X032317Y004240D01*
X032377Y004382D01*
X032436Y004240D01*
X032582Y004093D01*
X032773Y004014D01*
X032980Y004014D01*
X033171Y004093D01*
X033317Y004240D01*
X033397Y004431D01*
X033397Y004638D01*
X033317Y004829D01*
X033171Y004975D01*
X033092Y005008D01*
X035471Y005008D01*
X035563Y005046D01*
X035590Y005072D01*
X035646Y005049D01*
X035860Y005049D01*
X036059Y005131D01*
X036211Y005283D01*
X036293Y005482D01*
X036293Y005697D01*
X036211Y005895D01*
X036059Y006047D01*
X035860Y006129D01*
X035646Y006129D01*
X035447Y006047D01*
X035295Y005895D01*
X035213Y005697D01*
X035213Y005508D01*
X031808Y005508D01*
X031716Y005470D01*
X031646Y005399D01*
X031608Y005307D01*
X031608Y004986D01*
X031582Y004975D01*
X031436Y004829D01*
X031377Y004686D01*
X031317Y004829D01*
X031171Y004975D01*
X031127Y004993D01*
X031127Y005508D01*
X032707Y005508D01*
X032799Y005546D01*
X032870Y005616D01*
X033370Y006116D01*
X033408Y006208D01*
X033408Y006473D01*
X034058Y006473D01*
X034158Y006572D01*
X034158Y007343D01*
X034058Y007443D01*
X034003Y007443D01*
X034003Y008059D01*
X034059Y008083D01*
X034211Y008235D01*
X034293Y008433D01*
X034293Y008648D01*
X034211Y008846D01*
X034059Y008998D01*
X033860Y009080D01*
X033646Y009080D01*
X033447Y008998D01*
X033295Y008846D01*
X033272Y008790D01*
X030408Y008790D01*
X030316Y008752D01*
X030246Y008682D01*
X030208Y008590D01*
X030208Y007343D01*
X029538Y007343D01*
X029538Y007948D01*
X029594Y007971D01*
X029746Y008123D01*
X029828Y008321D01*
X029828Y008536D01*
X029746Y008734D01*
X029594Y008886D01*
X029396Y008969D01*
X029181Y008969D01*
X028983Y008886D01*
X028831Y008734D01*
X028748Y008536D01*
X028748Y008321D01*
X028831Y008123D01*
X028983Y007971D01*
X029038Y007948D01*
X029038Y007343D01*
X028957Y007343D01*
X028858Y007243D01*
X028858Y007108D01*
X027808Y007108D01*
X027716Y007070D01*
X027646Y006999D01*
X026904Y006258D01*
X026472Y006258D01*
X026373Y006158D01*
X026373Y004908D01*
X024578Y004908D01*
X024578Y014943D01*
X024653Y015019D01*
X024716Y015169D01*
X024716Y015812D01*
X024653Y015963D01*
X024538Y016078D01*
X024526Y016083D01*
X024526Y016400D01*
X026051Y017925D01*
X026074Y017903D01*
X026224Y017841D01*
X026387Y017841D01*
X026538Y017903D01*
X026653Y018019D01*
X026716Y018169D01*
X026716Y018812D01*
X026653Y018963D01*
X026538Y019078D01*
X026526Y019083D01*
X026526Y020887D01*
X018794Y028619D01*
X018836Y028722D01*
X018836Y028948D01*
X018750Y029158D01*
X018589Y029318D01*
X018380Y029405D01*
X018153Y029405D01*
X017944Y029318D01*
X017783Y029158D01*
X017696Y028948D01*
X017696Y028722D01*
X017783Y028512D01*
X017944Y028352D01*
X018153Y028265D01*
X018380Y028265D01*
X018483Y028308D01*
X026086Y020704D01*
X026086Y019083D01*
X026074Y019078D01*
X025958Y018963D01*
X025896Y018812D01*
X025896Y018392D01*
X025691Y018187D01*
X025696Y018212D01*
X025696Y018461D01*
X025336Y018461D01*
X025336Y018521D01*
X025696Y018521D01*
X025696Y018769D01*
X025681Y018845D01*
X025651Y018916D01*
X025609Y018979D01*
X025554Y019034D01*
X025490Y019076D01*
X025420Y019106D01*
X026086Y019106D01*
X026086Y019204D02*
X019473Y019204D01*
X019483Y019228D02*
X019483Y019391D01*
X019421Y019542D01*
X019306Y019657D01*
X019155Y019720D01*
X018512Y019720D01*
X018361Y019657D01*
X018246Y019542D01*
X018183Y019391D01*
X018183Y019228D01*
X018246Y019077D01*
X018361Y018962D01*
X018512Y018900D01*
X019155Y018900D01*
X019306Y018962D01*
X019421Y019077D01*
X019483Y019228D01*
X019483Y019303D02*
X026086Y019303D01*
X026086Y019401D02*
X019479Y019401D01*
X019438Y019500D02*
X026086Y019500D01*
X026086Y019598D02*
X019365Y019598D01*
X019210Y019697D02*
X026086Y019697D01*
X026086Y019795D02*
X017878Y019795D01*
X017878Y019697D02*
X018456Y019697D01*
X018302Y019598D02*
X017878Y019598D01*
X017878Y019500D02*
X018228Y019500D01*
X018187Y019401D02*
X017878Y019401D01*
X017878Y019303D02*
X018183Y019303D01*
X018193Y019204D02*
X017878Y019204D01*
X017878Y019106D02*
X018234Y019106D01*
X018316Y019007D02*
X017878Y019007D01*
X017878Y018909D02*
X018490Y018909D01*
X018512Y018720D02*
X018361Y018657D01*
X018246Y018542D01*
X018183Y018391D01*
X018183Y018228D01*
X018246Y018077D01*
X018361Y017962D01*
X018512Y017900D01*
X019155Y017900D01*
X019306Y017962D01*
X019421Y018077D01*
X019483Y018228D01*
X019483Y018391D01*
X019421Y018542D01*
X019306Y018657D01*
X019155Y018720D01*
X018512Y018720D01*
X018493Y018712D02*
X017878Y018712D01*
X017878Y018810D02*
X023896Y018810D01*
X023896Y018812D02*
X023896Y018169D01*
X023958Y018019D01*
X024074Y017903D01*
X024224Y017841D01*
X024387Y017841D01*
X024538Y017903D01*
X024653Y018019D01*
X024716Y018169D01*
X024716Y018812D01*
X024653Y018963D01*
X024538Y019078D01*
X024387Y019141D01*
X024224Y019141D01*
X024074Y019078D01*
X023958Y018963D01*
X023896Y018812D01*
X023896Y018712D02*
X019174Y018712D01*
X019177Y018909D02*
X023936Y018909D01*
X024002Y019007D02*
X019351Y019007D01*
X019433Y019106D02*
X024140Y019106D01*
X024472Y019106D02*
X025192Y019106D01*
X025121Y019076D01*
X025057Y019034D01*
X025003Y018979D01*
X024960Y018916D01*
X024931Y018845D01*
X024916Y018769D01*
X024916Y018521D01*
X025276Y018521D01*
X025276Y019121D01*
X025267Y019121D01*
X025192Y019106D01*
X025276Y019106D02*
X025336Y019106D01*
X025336Y019121D02*
X025336Y018521D01*
X025276Y018521D01*
X025276Y018461D01*
X025336Y018461D01*
X025336Y017861D01*
X025344Y017861D01*
X025370Y017866D01*
X024086Y016582D01*
X024086Y016083D01*
X024074Y016078D01*
X023958Y015963D01*
X023896Y015812D01*
X023896Y015169D01*
X023958Y015019D01*
X024074Y014903D01*
X024138Y014877D01*
X024138Y004908D01*
X020218Y004908D01*
X020126Y004870D01*
X019733Y004476D01*
X019618Y004524D01*
X019361Y004524D01*
X019246Y004476D01*
X018352Y005370D01*
X018261Y005408D01*
X015010Y005408D01*
X015177Y005477D01*
X015329Y005629D01*
X015411Y005827D01*
X015411Y006042D01*
X015329Y006241D01*
X015177Y006393D01*
X014979Y006475D01*
X014764Y006475D01*
X014565Y006393D01*
X014413Y006241D01*
X014331Y006042D01*
X014331Y005827D01*
X014413Y005629D01*
X014565Y005477D01*
X014733Y005408D01*
X014461Y005408D01*
X013858Y006011D01*
X013858Y006643D01*
X013758Y006743D01*
X012508Y006743D01*
X012508Y007707D01*
X012470Y007799D01*
X012399Y007870D01*
X012307Y007908D01*
X011446Y007908D01*
X009652Y009702D01*
X009675Y009758D01*
X009675Y009973D01*
X009593Y010171D01*
X009441Y010323D01*
X009242Y010406D01*
X009027Y010406D01*
X008829Y010323D01*
X008677Y010171D01*
X008595Y009973D01*
X008595Y009758D01*
X008677Y009560D01*
X008829Y009408D01*
X009027Y009326D01*
X009242Y009326D01*
X009298Y009349D01*
X011201Y007446D01*
X011293Y007408D01*
X012008Y007408D01*
X012008Y006743D01*
X011957Y006743D01*
X011858Y006643D01*
X011858Y006508D01*
X011158Y006508D01*
X011158Y006643D01*
X011058Y006743D01*
X009808Y006743D01*
X009808Y007407D01*
X009770Y007499D01*
X008870Y008399D01*
X008799Y008470D01*
X008707Y008508D01*
X007143Y008508D01*
X007143Y008558D01*
X007043Y008658D01*
X006908Y008658D01*
X006908Y011049D01*
X006941Y011063D01*
X007093Y011215D01*
X007175Y011413D01*
X007175Y011628D01*
X007093Y011827D01*
X006941Y011979D01*
X006742Y012061D01*
X006527Y012061D01*
X006329Y011979D01*
X006177Y011827D01*
X006095Y011628D01*
X006095Y011413D01*
X006177Y011215D01*
X006329Y011063D01*
X006408Y011030D01*
X006408Y008658D01*
X006272Y008658D01*
X006173Y008558D01*
X006173Y007308D01*
X005754Y007308D01*
X005754Y014608D01*
X005852Y014706D01*
X005914Y014857D01*
X005914Y015500D01*
X005852Y015650D01*
X005828Y015674D01*
X007646Y017492D01*
X007716Y017563D01*
X007726Y017586D01*
X007736Y017591D01*
X007852Y017706D01*
X007914Y017857D01*
X007914Y018500D01*
X007852Y018650D01*
X007736Y018766D01*
X007586Y018828D01*
X007423Y018828D01*
X007272Y018766D01*
X007157Y018650D01*
X007094Y018500D01*
X007094Y017857D01*
X007155Y017709D01*
X005292Y015846D01*
X005254Y015754D01*
X005254Y015748D01*
X005157Y015650D01*
X005094Y015500D01*
X005094Y014857D01*
X005157Y014706D01*
X005254Y014608D01*
X005254Y007008D01*
X005292Y006916D01*
X005363Y006846D01*
X005454Y006808D01*
X006173Y006808D01*
X006173Y006757D01*
X006272Y006658D01*
X006408Y006658D01*
X006408Y003776D01*
X006446Y003684D01*
X006516Y003614D01*
X006608Y003576D01*
X018917Y003576D01*
X018943Y003514D01*
X019124Y003332D01*
X019361Y003234D01*
X019111Y003346D02*
X002558Y003346D01*
X002558Y003444D02*
X019012Y003444D01*
X018931Y003543D02*
X002558Y003543D01*
X002558Y003641D02*
X006489Y003641D01*
X006423Y003740D02*
X002558Y003740D01*
X002558Y003838D02*
X006408Y003838D01*
X006408Y003937D02*
X002558Y003937D01*
X002558Y004035D02*
X006408Y004035D01*
X006408Y004134D02*
X002558Y004134D01*
X002558Y004232D02*
X006408Y004232D01*
X006408Y004331D02*
X002558Y004331D01*
X002558Y004429D02*
X006408Y004429D01*
X006408Y004528D02*
X002558Y004528D01*
X002558Y004626D02*
X006408Y004626D01*
X006408Y004725D02*
X002645Y004725D01*
X002744Y004823D02*
X006408Y004823D01*
X006408Y004922D02*
X002758Y004922D01*
X002758Y005020D02*
X006408Y005020D01*
X006408Y005119D02*
X002758Y005119D01*
X002758Y005217D02*
X006408Y005217D01*
X006408Y005316D02*
X002758Y005316D01*
X002758Y005414D02*
X006408Y005414D01*
X006408Y005513D02*
X002758Y005513D01*
X002758Y005611D02*
X006408Y005611D01*
X006408Y005710D02*
X002758Y005710D01*
X002758Y005808D02*
X006408Y005808D01*
X006408Y005907D02*
X002758Y005907D01*
X002758Y006005D02*
X006408Y006005D01*
X006408Y006104D02*
X002758Y006104D01*
X002758Y006202D02*
X006408Y006202D01*
X006408Y006301D02*
X002758Y006301D01*
X002758Y006399D02*
X006408Y006399D01*
X006408Y006498D02*
X002758Y006498D01*
X002758Y006596D02*
X006408Y006596D01*
X006235Y006695D02*
X002758Y006695D01*
X002758Y006793D02*
X006173Y006793D01*
X006173Y007384D02*
X005754Y007384D01*
X005754Y007483D02*
X006173Y007483D01*
X006173Y007581D02*
X005754Y007581D01*
X005754Y007680D02*
X006173Y007680D01*
X006173Y007778D02*
X005754Y007778D01*
X005754Y007877D02*
X006173Y007877D01*
X006173Y007975D02*
X005754Y007975D01*
X005754Y008074D02*
X006173Y008074D01*
X006173Y008172D02*
X005754Y008172D01*
X005754Y008271D02*
X006173Y008271D01*
X006173Y008369D02*
X005754Y008369D01*
X005754Y008468D02*
X006173Y008468D01*
X006181Y008566D02*
X005754Y008566D01*
X005754Y008665D02*
X006408Y008665D01*
X006408Y008763D02*
X005754Y008763D01*
X005754Y008862D02*
X006408Y008862D01*
X006408Y008960D02*
X005754Y008960D01*
X005754Y009059D02*
X006408Y009059D01*
X006408Y009157D02*
X005754Y009157D01*
X005754Y009256D02*
X006408Y009256D01*
X006408Y009354D02*
X005754Y009354D01*
X005754Y009453D02*
X006408Y009453D01*
X006408Y009551D02*
X005754Y009551D01*
X005754Y009650D02*
X006408Y009650D01*
X006408Y009748D02*
X005754Y009748D01*
X005754Y009847D02*
X006408Y009847D01*
X006408Y009945D02*
X005754Y009945D01*
X005754Y010044D02*
X006408Y010044D01*
X006408Y010142D02*
X005754Y010142D01*
X005754Y010241D02*
X006408Y010241D01*
X006408Y010339D02*
X005754Y010339D01*
X005754Y010438D02*
X006408Y010438D01*
X006408Y010536D02*
X005754Y010536D01*
X005754Y010635D02*
X006408Y010635D01*
X006408Y010733D02*
X005754Y010733D01*
X005754Y010832D02*
X006408Y010832D01*
X006408Y010930D02*
X005754Y010930D01*
X005754Y011029D02*
X006408Y011029D01*
X006265Y011127D02*
X005754Y011127D01*
X005754Y011226D02*
X006173Y011226D01*
X006132Y011324D02*
X005754Y011324D01*
X005754Y011423D02*
X006095Y011423D01*
X006095Y011521D02*
X005754Y011521D01*
X005754Y011620D02*
X006095Y011620D01*
X006132Y011718D02*
X005754Y011718D01*
X005754Y011817D02*
X006173Y011817D01*
X006266Y011915D02*
X005754Y011915D01*
X005754Y012014D02*
X006414Y012014D01*
X006856Y012014D02*
X009414Y012014D01*
X009329Y011979D02*
X009177Y011827D01*
X009095Y011628D01*
X009095Y011413D01*
X009177Y011215D01*
X009329Y011063D01*
X009527Y010981D01*
X009742Y010981D01*
X009941Y011063D01*
X010093Y011215D01*
X010175Y011413D01*
X010175Y011628D01*
X010093Y011827D01*
X009941Y011979D01*
X009742Y012061D01*
X009527Y012061D01*
X009329Y011979D01*
X009266Y011915D02*
X007004Y011915D01*
X007097Y011817D02*
X009173Y011817D01*
X009132Y011718D02*
X007138Y011718D01*
X007175Y011620D02*
X009095Y011620D01*
X009095Y011521D02*
X007175Y011521D01*
X007175Y011423D02*
X009095Y011423D01*
X009132Y011324D02*
X007138Y011324D01*
X007097Y011226D02*
X009173Y011226D01*
X009265Y011127D02*
X007005Y011127D01*
X006908Y011029D02*
X009412Y011029D01*
X009858Y011029D02*
X013976Y011029D01*
X014074Y010930D02*
X006908Y010930D01*
X006908Y010832D02*
X014173Y010832D01*
X014271Y010733D02*
X006908Y010733D01*
X006908Y010635D02*
X014370Y010635D01*
X014468Y010536D02*
X006908Y010536D01*
X006908Y010438D02*
X014567Y010438D01*
X014665Y010339D02*
X012403Y010339D01*
X012441Y010323D02*
X012242Y010406D01*
X012027Y010406D01*
X011829Y010323D01*
X011677Y010171D01*
X011595Y009973D01*
X011595Y009758D01*
X011677Y009560D01*
X011829Y009408D01*
X012027Y009326D01*
X012242Y009326D01*
X012441Y009408D01*
X012593Y009560D01*
X012675Y009758D01*
X012675Y009973D01*
X012593Y010171D01*
X012441Y010323D01*
X012523Y010241D02*
X014764Y010241D01*
X014862Y010142D02*
X012605Y010142D01*
X012646Y010044D02*
X014961Y010044D01*
X015059Y009945D02*
X012675Y009945D01*
X012675Y009847D02*
X015158Y009847D01*
X015256Y009748D02*
X012671Y009748D01*
X012630Y009650D02*
X015355Y009650D01*
X015453Y009551D02*
X012584Y009551D01*
X012486Y009453D02*
X014710Y009453D01*
X014764Y009475D02*
X014565Y009393D01*
X014413Y009241D01*
X014331Y009042D01*
X014331Y008827D01*
X014413Y008629D01*
X014565Y008477D01*
X014764Y008395D01*
X014979Y008395D01*
X015177Y008477D01*
X015329Y008629D01*
X015411Y008827D01*
X015411Y009042D01*
X015329Y009241D01*
X015177Y009393D01*
X014979Y009475D01*
X014764Y009475D01*
X014527Y009354D02*
X012311Y009354D01*
X011958Y009354D02*
X010000Y009354D01*
X010098Y009256D02*
X014428Y009256D01*
X014379Y009157D02*
X010197Y009157D01*
X010295Y009059D02*
X014338Y009059D01*
X014331Y008960D02*
X010394Y008960D01*
X010492Y008862D02*
X014331Y008862D01*
X014358Y008763D02*
X010591Y008763D01*
X010689Y008665D02*
X014399Y008665D01*
X014476Y008566D02*
X010788Y008566D01*
X010886Y008468D02*
X014588Y008468D01*
X015154Y008468D02*
X024138Y008468D01*
X024138Y008566D02*
X015266Y008566D01*
X015344Y008665D02*
X024138Y008665D01*
X024138Y008763D02*
X015385Y008763D01*
X015411Y008862D02*
X024138Y008862D01*
X024138Y008960D02*
X015411Y008960D01*
X015404Y009059D02*
X015750Y009059D01*
X015755Y009054D02*
X015886Y009000D01*
X016029Y009000D01*
X016161Y009054D01*
X016261Y009155D01*
X016316Y009286D01*
X016316Y009429D01*
X016261Y009561D01*
X016161Y009661D01*
X016029Y009716D01*
X015911Y009716D01*
X012578Y013049D01*
X012449Y013178D01*
X006724Y013178D01*
X006724Y014586D01*
X006736Y014591D01*
X006852Y014706D01*
X006914Y014857D01*
X006914Y015500D01*
X006852Y015650D01*
X006736Y015766D01*
X006586Y015828D01*
X006423Y015828D01*
X006272Y015766D01*
X006157Y015650D01*
X006094Y015500D01*
X006094Y014857D01*
X006157Y014706D01*
X006272Y014591D01*
X006284Y014586D01*
X006284Y013095D01*
X006238Y013049D01*
X006238Y012867D01*
X006367Y012738D01*
X012267Y012738D01*
X015600Y009405D01*
X015600Y009286D01*
X015654Y009155D01*
X015755Y009054D01*
X015653Y009157D02*
X015364Y009157D01*
X015314Y009256D02*
X015612Y009256D01*
X015600Y009354D02*
X015215Y009354D01*
X015032Y009453D02*
X015552Y009453D01*
X015958Y009358D02*
X012358Y012958D01*
X006458Y012958D01*
X006504Y013004D01*
X006504Y015178D01*
X006094Y015166D02*
X005914Y015166D01*
X005914Y015264D02*
X006094Y015264D01*
X006094Y015363D02*
X005914Y015363D01*
X005914Y015461D02*
X006094Y015461D01*
X006119Y015560D02*
X005889Y015560D01*
X005844Y015658D02*
X006164Y015658D01*
X006263Y015757D02*
X005910Y015757D01*
X006009Y015855D02*
X008284Y015855D01*
X008284Y015771D02*
X008272Y015766D01*
X008157Y015650D01*
X008094Y015500D01*
X008094Y014857D01*
X008157Y014706D01*
X008272Y014591D01*
X008423Y014528D01*
X008586Y014528D01*
X008736Y014591D01*
X008852Y014706D01*
X008914Y014857D01*
X008914Y015500D01*
X008852Y015650D01*
X008736Y015766D01*
X008724Y015771D01*
X008724Y016438D01*
X014394Y016438D01*
X015268Y015564D01*
X015246Y015542D01*
X015183Y015391D01*
X015183Y015228D01*
X015246Y015077D01*
X015361Y014962D01*
X015512Y014900D01*
X016155Y014900D01*
X016306Y014962D01*
X016421Y015077D01*
X016483Y015228D01*
X016483Y015391D01*
X016421Y015542D01*
X016306Y015657D01*
X016155Y015720D01*
X015734Y015720D01*
X015554Y015900D01*
X016155Y015900D01*
X016306Y015962D01*
X016421Y016077D01*
X016483Y016228D01*
X016483Y016391D01*
X016421Y016542D01*
X016306Y016657D01*
X016155Y016720D01*
X015512Y016720D01*
X015361Y016657D01*
X015246Y016542D01*
X015183Y016391D01*
X015183Y016271D01*
X014576Y016878D01*
X008513Y016878D01*
X008413Y016778D01*
X008284Y016649D01*
X008284Y015771D01*
X008263Y015757D02*
X007745Y015757D01*
X007736Y015766D02*
X007586Y015828D01*
X007423Y015828D01*
X007272Y015766D01*
X007157Y015650D01*
X007094Y015500D01*
X007094Y014857D01*
X007157Y014706D01*
X007272Y014591D01*
X007423Y014528D01*
X007586Y014528D01*
X007736Y014591D01*
X007852Y014706D01*
X007914Y014857D01*
X007914Y015500D01*
X007852Y015650D01*
X007736Y015766D01*
X007844Y015658D02*
X008164Y015658D01*
X008119Y015560D02*
X007889Y015560D01*
X007914Y015461D02*
X008094Y015461D01*
X008094Y015363D02*
X007914Y015363D01*
X007914Y015264D02*
X008094Y015264D01*
X008094Y015166D02*
X007914Y015166D01*
X007914Y015067D02*
X008094Y015067D01*
X008094Y014969D02*
X007914Y014969D01*
X007914Y014870D02*
X008094Y014870D01*
X008129Y014772D02*
X007879Y014772D01*
X007819Y014673D02*
X008189Y014673D01*
X008310Y014575D02*
X007698Y014575D01*
X007310Y014575D02*
X006724Y014575D01*
X006724Y014476D02*
X009284Y014476D01*
X009284Y014378D02*
X006724Y014378D01*
X006724Y014279D02*
X009324Y014279D01*
X009284Y014319D02*
X009384Y014219D01*
X009513Y014090D01*
X015241Y014090D01*
X015246Y014077D01*
X015361Y013962D01*
X015512Y013900D01*
X016155Y013900D01*
X016306Y013962D01*
X016421Y014077D01*
X016483Y014228D01*
X016483Y014391D01*
X016421Y014542D01*
X016306Y014657D01*
X016155Y014720D01*
X015512Y014720D01*
X015361Y014657D01*
X015246Y014542D01*
X015241Y014530D01*
X012589Y014530D01*
X012736Y014591D01*
X012852Y014706D01*
X012914Y014857D01*
X012914Y015500D01*
X012852Y015650D01*
X012736Y015766D01*
X012586Y015828D01*
X012423Y015828D01*
X012272Y015766D01*
X012157Y015650D01*
X012094Y015500D01*
X012094Y014857D01*
X012157Y014706D01*
X012272Y014591D01*
X012419Y014530D01*
X011589Y014530D01*
X011736Y014591D01*
X011852Y014706D01*
X011914Y014857D01*
X011914Y015500D01*
X011852Y015650D01*
X011736Y015766D01*
X011586Y015828D01*
X011423Y015828D01*
X011272Y015766D01*
X011157Y015650D01*
X011094Y015500D01*
X011094Y014857D01*
X011157Y014706D01*
X011272Y014591D01*
X011419Y014530D01*
X010589Y014530D01*
X010736Y014591D01*
X010852Y014706D01*
X010914Y014857D01*
X010914Y015500D01*
X010852Y015650D01*
X010736Y015766D01*
X010586Y015828D01*
X010423Y015828D01*
X010272Y015766D01*
X010157Y015650D01*
X010094Y015500D01*
X010094Y014857D01*
X010157Y014706D01*
X010272Y014591D01*
X010419Y014530D01*
X009724Y014530D01*
X009724Y014586D01*
X009736Y014591D01*
X009852Y014706D01*
X009914Y014857D01*
X009914Y015500D01*
X009852Y015650D01*
X009736Y015766D01*
X009586Y015828D01*
X009423Y015828D01*
X009272Y015766D01*
X009157Y015650D01*
X009094Y015500D01*
X009094Y014857D01*
X009157Y014706D01*
X009272Y014591D01*
X009284Y014586D01*
X009284Y014319D01*
X009422Y014181D02*
X006724Y014181D01*
X006724Y014082D02*
X015244Y014082D01*
X015339Y013984D02*
X006724Y013984D01*
X006724Y013885D02*
X016638Y013885D01*
X016638Y013787D02*
X006724Y013787D01*
X006724Y013688D02*
X015436Y013688D01*
X015361Y013657D02*
X015246Y013542D01*
X015183Y013391D01*
X015183Y013228D01*
X015246Y013077D01*
X015361Y012962D01*
X015512Y012900D01*
X016155Y012900D01*
X016306Y012962D01*
X016421Y013077D01*
X016483Y013228D01*
X016483Y013391D01*
X016421Y013542D01*
X016306Y013657D01*
X016155Y013720D01*
X015512Y013720D01*
X015361Y013657D01*
X015294Y013590D02*
X006724Y013590D01*
X006724Y013491D02*
X015225Y013491D01*
X015184Y013393D02*
X006724Y013393D01*
X006724Y013294D02*
X015183Y013294D01*
X015197Y013196D02*
X006724Y013196D01*
X006284Y013196D02*
X005754Y013196D01*
X005754Y013294D02*
X006284Y013294D01*
X006284Y013393D02*
X005754Y013393D01*
X005754Y013491D02*
X006284Y013491D01*
X006284Y013590D02*
X005754Y013590D01*
X005754Y013688D02*
X006284Y013688D01*
X006284Y013787D02*
X005754Y013787D01*
X005754Y013885D02*
X006284Y013885D01*
X006284Y013984D02*
X005754Y013984D01*
X005754Y014082D02*
X006284Y014082D01*
X006284Y014181D02*
X005754Y014181D01*
X005754Y014279D02*
X006284Y014279D01*
X006284Y014378D02*
X005754Y014378D01*
X005754Y014476D02*
X006284Y014476D01*
X006284Y014575D02*
X005754Y014575D01*
X005819Y014673D02*
X006189Y014673D01*
X006129Y014772D02*
X005879Y014772D01*
X005914Y014870D02*
X006094Y014870D01*
X006094Y014969D02*
X005914Y014969D01*
X005914Y015067D02*
X006094Y015067D01*
X006844Y015658D02*
X007164Y015658D01*
X007119Y015560D02*
X006889Y015560D01*
X006914Y015461D02*
X007094Y015461D01*
X007094Y015363D02*
X006914Y015363D01*
X006914Y015264D02*
X007094Y015264D01*
X007094Y015166D02*
X006914Y015166D01*
X006914Y015067D02*
X007094Y015067D01*
X007094Y014969D02*
X006914Y014969D01*
X006914Y014870D02*
X007094Y014870D01*
X007129Y014772D02*
X006879Y014772D01*
X006819Y014673D02*
X007189Y014673D01*
X008504Y015178D02*
X008504Y016558D01*
X008604Y016658D01*
X014485Y016658D01*
X015833Y015310D01*
X016303Y015658D02*
X016638Y015658D01*
X016638Y015560D02*
X016403Y015560D01*
X016454Y015461D02*
X016638Y015461D01*
X016638Y015363D02*
X016483Y015363D01*
X016483Y015264D02*
X016638Y015264D01*
X016638Y015166D02*
X016457Y015166D01*
X016411Y015067D02*
X016638Y015067D01*
X016638Y014969D02*
X016312Y014969D01*
X016267Y014673D02*
X016638Y014673D01*
X016638Y014575D02*
X016388Y014575D01*
X016448Y014476D02*
X016638Y014476D01*
X016638Y014378D02*
X016483Y014378D01*
X016483Y014279D02*
X016638Y014279D01*
X016638Y014181D02*
X016464Y014181D01*
X016423Y014082D02*
X016638Y014082D01*
X016638Y013984D02*
X016327Y013984D01*
X016231Y013688D02*
X016638Y013688D01*
X016638Y013590D02*
X016373Y013590D01*
X016442Y013491D02*
X016638Y013491D01*
X016638Y013393D02*
X016483Y013393D01*
X016483Y013294D02*
X016638Y013294D01*
X016638Y013267D02*
X016686Y013219D01*
X016815Y013090D01*
X018241Y013090D01*
X018246Y013077D01*
X018361Y012962D01*
X018512Y012900D01*
X019155Y012900D01*
X019306Y012962D01*
X019421Y013077D01*
X019483Y013228D01*
X019483Y013391D01*
X019421Y013542D01*
X019306Y013657D01*
X019155Y013720D01*
X018512Y013720D01*
X018361Y013657D01*
X018246Y013542D01*
X018241Y013530D01*
X017078Y013530D01*
X017078Y022449D01*
X016949Y022578D01*
X016849Y022678D01*
X014544Y022678D01*
X013762Y023460D01*
X013907Y023400D01*
X014122Y023400D01*
X014208Y023435D01*
X014676Y022967D01*
X014805Y022838D01*
X017367Y022838D01*
X017438Y022767D01*
X017438Y014267D01*
X017486Y014219D01*
X017615Y014090D01*
X018241Y014090D01*
X018246Y014077D01*
X018361Y013962D01*
X018512Y013900D01*
X019155Y013900D01*
X019306Y013962D01*
X019421Y014077D01*
X019483Y014228D01*
X019483Y014391D01*
X019421Y014542D01*
X019306Y014657D01*
X019155Y014720D01*
X018512Y014720D01*
X018361Y014657D01*
X018246Y014542D01*
X018241Y014530D01*
X017878Y014530D01*
X017878Y022949D01*
X017749Y023078D01*
X017549Y023278D01*
X014987Y023278D01*
X014519Y023746D01*
X014554Y023832D01*
X014554Y024047D01*
X014472Y024246D01*
X014320Y024397D01*
X014122Y024480D01*
X013907Y024480D01*
X013709Y024397D01*
X013557Y024246D01*
X013493Y024091D01*
X013429Y024246D01*
X013277Y024397D01*
X013079Y024480D01*
X012864Y024480D01*
X012665Y024397D01*
X012513Y024246D01*
X012431Y024047D01*
X012431Y023832D01*
X012513Y023634D01*
X012665Y023482D01*
X012864Y023400D01*
X013079Y023400D01*
X013164Y023435D01*
X014233Y022367D01*
X014362Y022238D01*
X016638Y022238D01*
X016638Y013267D01*
X016709Y013196D02*
X016470Y013196D01*
X016429Y013097D02*
X016807Y013097D01*
X016906Y013310D02*
X018833Y013310D01*
X018510Y012900D02*
X016156Y012900D01*
X016342Y012999D02*
X018324Y012999D01*
X018294Y013590D02*
X017078Y013590D01*
X017078Y013688D02*
X018436Y013688D01*
X018339Y013984D02*
X017078Y013984D01*
X017078Y014082D02*
X018244Y014082D01*
X018279Y014575D02*
X017878Y014575D01*
X017878Y014673D02*
X018400Y014673D01*
X018512Y014900D02*
X018361Y014962D01*
X018246Y015077D01*
X018183Y015228D01*
X018183Y015391D01*
X018246Y015542D01*
X018361Y015657D01*
X018512Y015720D01*
X019155Y015720D01*
X019306Y015657D01*
X019421Y015542D01*
X019483Y015391D01*
X019483Y015228D01*
X019421Y015077D01*
X019306Y014962D01*
X019155Y014900D01*
X018512Y014900D01*
X018354Y014969D02*
X017878Y014969D01*
X017878Y015067D02*
X018256Y015067D01*
X018209Y015166D02*
X017878Y015166D01*
X017878Y015264D02*
X018183Y015264D01*
X018183Y015363D02*
X017878Y015363D01*
X017878Y015461D02*
X018212Y015461D01*
X018264Y015560D02*
X017878Y015560D01*
X017878Y015658D02*
X018363Y015658D01*
X018512Y015900D02*
X018361Y015962D01*
X018246Y016077D01*
X018183Y016228D01*
X018183Y016391D01*
X018246Y016542D01*
X018361Y016657D01*
X018512Y016720D01*
X019155Y016720D01*
X019306Y016657D01*
X019421Y016542D01*
X019483Y016391D01*
X019483Y016228D01*
X019421Y016077D01*
X019306Y015962D01*
X019155Y015900D01*
X018512Y015900D01*
X018381Y015954D02*
X017878Y015954D01*
X017878Y016052D02*
X018271Y016052D01*
X018215Y016151D02*
X017878Y016151D01*
X017878Y016249D02*
X018183Y016249D01*
X018183Y016348D02*
X017878Y016348D01*
X017878Y016446D02*
X018206Y016446D01*
X018249Y016545D02*
X017878Y016545D01*
X017878Y016643D02*
X018347Y016643D01*
X018417Y016939D02*
X017878Y016939D01*
X017878Y017037D02*
X018286Y017037D01*
X018246Y017077D02*
X018361Y016962D01*
X018512Y016900D01*
X019155Y016900D01*
X019306Y016962D01*
X019421Y017077D01*
X019483Y017228D01*
X019483Y017391D01*
X019421Y017542D01*
X019306Y017657D01*
X019155Y017720D01*
X018512Y017720D01*
X018361Y017657D01*
X018246Y017542D01*
X018183Y017391D01*
X018183Y017228D01*
X018246Y017077D01*
X018222Y017136D02*
X017878Y017136D01*
X017878Y017234D02*
X018183Y017234D01*
X018183Y017333D02*
X017878Y017333D01*
X017878Y017431D02*
X018200Y017431D01*
X018241Y017530D02*
X017878Y017530D01*
X017878Y017628D02*
X018332Y017628D01*
X018454Y017924D02*
X017878Y017924D01*
X017878Y018022D02*
X018301Y018022D01*
X018228Y018121D02*
X017878Y018121D01*
X017878Y018219D02*
X018187Y018219D01*
X018183Y018318D02*
X017878Y018318D01*
X017878Y018416D02*
X018194Y018416D01*
X018234Y018515D02*
X017878Y018515D01*
X017878Y018613D02*
X018317Y018613D01*
X017438Y018613D02*
X017078Y018613D01*
X017078Y018515D02*
X017438Y018515D01*
X017438Y018416D02*
X017078Y018416D01*
X017078Y018318D02*
X017438Y018318D01*
X017438Y018219D02*
X017078Y018219D01*
X017078Y018121D02*
X017438Y018121D01*
X017438Y018022D02*
X017078Y018022D01*
X017078Y017924D02*
X017438Y017924D01*
X017438Y017825D02*
X017078Y017825D01*
X017078Y017727D02*
X017438Y017727D01*
X017438Y017628D02*
X017078Y017628D01*
X017078Y017530D02*
X017438Y017530D01*
X017438Y017431D02*
X017078Y017431D01*
X017078Y017333D02*
X017438Y017333D01*
X017438Y017234D02*
X017078Y017234D01*
X017078Y017136D02*
X017438Y017136D01*
X017438Y017037D02*
X017078Y017037D01*
X017078Y016939D02*
X017438Y016939D01*
X017438Y016840D02*
X017078Y016840D01*
X017078Y016742D02*
X017438Y016742D01*
X017438Y016643D02*
X017078Y016643D01*
X017078Y016545D02*
X017438Y016545D01*
X017438Y016446D02*
X017078Y016446D01*
X017078Y016348D02*
X017438Y016348D01*
X017438Y016249D02*
X017078Y016249D01*
X017078Y016151D02*
X017438Y016151D01*
X017438Y016052D02*
X017078Y016052D01*
X017078Y015954D02*
X017438Y015954D01*
X017438Y015855D02*
X017078Y015855D01*
X017078Y015757D02*
X017438Y015757D01*
X017438Y015658D02*
X017078Y015658D01*
X017078Y015560D02*
X017438Y015560D01*
X017438Y015461D02*
X017078Y015461D01*
X017078Y015363D02*
X017438Y015363D01*
X017438Y015264D02*
X017078Y015264D01*
X017078Y015166D02*
X017438Y015166D01*
X017438Y015067D02*
X017078Y015067D01*
X017078Y014969D02*
X017438Y014969D01*
X017438Y014870D02*
X017078Y014870D01*
X017078Y014772D02*
X017438Y014772D01*
X017438Y014673D02*
X017078Y014673D01*
X017078Y014575D02*
X017438Y014575D01*
X017438Y014476D02*
X017078Y014476D01*
X017078Y014378D02*
X017438Y014378D01*
X017438Y014279D02*
X017078Y014279D01*
X017078Y014181D02*
X017524Y014181D01*
X017658Y014358D02*
X017706Y014310D01*
X018833Y014310D01*
X019267Y014673D02*
X024138Y014673D01*
X024138Y014575D02*
X019388Y014575D01*
X019448Y014476D02*
X024138Y014476D01*
X024138Y014378D02*
X019483Y014378D01*
X019483Y014279D02*
X024138Y014279D01*
X024138Y014181D02*
X019464Y014181D01*
X019423Y014082D02*
X024138Y014082D01*
X024138Y013984D02*
X019327Y013984D01*
X019231Y013688D02*
X024138Y013688D01*
X024138Y013590D02*
X019373Y013590D01*
X019442Y013491D02*
X024138Y013491D01*
X024138Y013393D02*
X019483Y013393D01*
X019483Y013294D02*
X024138Y013294D01*
X024138Y013196D02*
X019470Y013196D01*
X019429Y013097D02*
X024138Y013097D01*
X024138Y012999D02*
X019342Y012999D01*
X019156Y012900D02*
X024138Y012900D01*
X024138Y012802D02*
X012825Y012802D01*
X012726Y012900D02*
X015510Y012900D01*
X015324Y012999D02*
X012628Y012999D01*
X012529Y013097D02*
X015238Y013097D01*
X015833Y014310D02*
X009604Y014310D01*
X009504Y014410D01*
X009504Y015178D01*
X009094Y015166D02*
X008914Y015166D01*
X008914Y015264D02*
X009094Y015264D01*
X009094Y015363D02*
X008914Y015363D01*
X008914Y015461D02*
X009094Y015461D01*
X009119Y015560D02*
X008889Y015560D01*
X008844Y015658D02*
X009164Y015658D01*
X009263Y015757D02*
X008745Y015757D01*
X008724Y015855D02*
X014977Y015855D01*
X015075Y015757D02*
X012745Y015757D01*
X012844Y015658D02*
X015174Y015658D01*
X015264Y015560D02*
X012889Y015560D01*
X012914Y015461D02*
X015212Y015461D01*
X015183Y015363D02*
X012914Y015363D01*
X012914Y015264D02*
X015183Y015264D01*
X015209Y015166D02*
X012914Y015166D01*
X012914Y015067D02*
X015256Y015067D01*
X015354Y014969D02*
X012914Y014969D01*
X012914Y014870D02*
X016638Y014870D01*
X016638Y014772D02*
X012879Y014772D01*
X012819Y014673D02*
X015400Y014673D01*
X015279Y014575D02*
X012698Y014575D01*
X012310Y014575D02*
X011698Y014575D01*
X011819Y014673D02*
X012189Y014673D01*
X012129Y014772D02*
X011879Y014772D01*
X011914Y014870D02*
X012094Y014870D01*
X012094Y014969D02*
X011914Y014969D01*
X011914Y015067D02*
X012094Y015067D01*
X012094Y015166D02*
X011914Y015166D01*
X011914Y015264D02*
X012094Y015264D01*
X012094Y015363D02*
X011914Y015363D01*
X011914Y015461D02*
X012094Y015461D01*
X012119Y015560D02*
X011889Y015560D01*
X011844Y015658D02*
X012164Y015658D01*
X012263Y015757D02*
X011745Y015757D01*
X011263Y015757D02*
X010745Y015757D01*
X010844Y015658D02*
X011164Y015658D01*
X011119Y015560D02*
X010889Y015560D01*
X010914Y015461D02*
X011094Y015461D01*
X011094Y015363D02*
X010914Y015363D01*
X010914Y015264D02*
X011094Y015264D01*
X011094Y015166D02*
X010914Y015166D01*
X010914Y015067D02*
X011094Y015067D01*
X011094Y014969D02*
X010914Y014969D01*
X010914Y014870D02*
X011094Y014870D01*
X011129Y014772D02*
X010879Y014772D01*
X010819Y014673D02*
X011189Y014673D01*
X011310Y014575D02*
X010698Y014575D01*
X010310Y014575D02*
X009724Y014575D01*
X009819Y014673D02*
X010189Y014673D01*
X010129Y014772D02*
X009879Y014772D01*
X009914Y014870D02*
X010094Y014870D01*
X010094Y014969D02*
X009914Y014969D01*
X009914Y015067D02*
X010094Y015067D01*
X010094Y015166D02*
X009914Y015166D01*
X009914Y015264D02*
X010094Y015264D01*
X010094Y015363D02*
X009914Y015363D01*
X009914Y015461D02*
X010094Y015461D01*
X010119Y015560D02*
X009889Y015560D01*
X009844Y015658D02*
X010164Y015658D01*
X010263Y015757D02*
X009745Y015757D01*
X009094Y015067D02*
X008914Y015067D01*
X008914Y014969D02*
X009094Y014969D01*
X009094Y014870D02*
X008914Y014870D01*
X008879Y014772D02*
X009129Y014772D01*
X009189Y014673D02*
X008819Y014673D01*
X008698Y014575D02*
X009284Y014575D01*
X008724Y015954D02*
X014878Y015954D01*
X014780Y016052D02*
X008724Y016052D01*
X008724Y016151D02*
X014681Y016151D01*
X014583Y016249D02*
X008724Y016249D01*
X008724Y016348D02*
X014484Y016348D01*
X014811Y016643D02*
X015347Y016643D01*
X015249Y016545D02*
X014909Y016545D01*
X015008Y016446D02*
X015206Y016446D01*
X015183Y016348D02*
X015106Y016348D01*
X014712Y016742D02*
X016638Y016742D01*
X016638Y016840D02*
X014614Y016840D01*
X015246Y017077D02*
X015361Y016962D01*
X015512Y016900D01*
X016155Y016900D01*
X016306Y016962D01*
X016421Y017077D01*
X016483Y017228D01*
X016483Y017391D01*
X016421Y017542D01*
X016306Y017657D01*
X016155Y017720D01*
X015512Y017720D01*
X015361Y017657D01*
X015246Y017542D01*
X015183Y017391D01*
X015183Y017228D01*
X015246Y017077D01*
X015286Y017037D02*
X007191Y017037D01*
X007092Y016939D02*
X015417Y016939D01*
X015222Y017136D02*
X007289Y017136D01*
X007388Y017234D02*
X015183Y017234D01*
X015183Y017333D02*
X007486Y017333D01*
X007585Y017431D02*
X015200Y017431D01*
X015241Y017530D02*
X011590Y017530D01*
X011586Y017528D02*
X011736Y017591D01*
X011852Y017706D01*
X011914Y017857D01*
X011914Y018500D01*
X011852Y018650D01*
X011736Y018766D01*
X011586Y018828D01*
X011423Y018828D01*
X011272Y018766D01*
X011157Y018650D01*
X011094Y018500D01*
X011094Y017857D01*
X011157Y017706D01*
X011272Y017591D01*
X011423Y017528D01*
X011586Y017528D01*
X011419Y017530D02*
X010590Y017530D01*
X010586Y017528D02*
X010736Y017591D01*
X010852Y017706D01*
X010914Y017857D01*
X010914Y018500D01*
X010852Y018650D01*
X010736Y018766D01*
X010724Y018771D01*
X010724Y018838D01*
X014994Y018838D01*
X015268Y018564D01*
X015246Y018542D01*
X015183Y018391D01*
X015183Y018228D01*
X015246Y018077D01*
X015361Y017962D01*
X015512Y017900D01*
X016155Y017900D01*
X016306Y017962D01*
X016421Y018077D01*
X016483Y018228D01*
X016483Y018391D01*
X016421Y018542D01*
X016306Y018657D01*
X016155Y018720D01*
X015734Y018720D01*
X015554Y018900D01*
X016155Y018900D01*
X016306Y018962D01*
X016421Y019077D01*
X016483Y019228D01*
X016483Y019391D01*
X016421Y019542D01*
X016306Y019657D01*
X016155Y019720D01*
X015512Y019720D01*
X015361Y019657D01*
X015246Y019542D01*
X015183Y019391D01*
X015183Y019271D01*
X015176Y019278D01*
X010467Y019278D01*
X010413Y019224D01*
X010284Y019095D01*
X010284Y018771D01*
X010272Y018766D01*
X010157Y018650D01*
X010094Y018500D01*
X010094Y017857D01*
X010157Y017706D01*
X010272Y017591D01*
X010423Y017528D01*
X010586Y017528D01*
X010419Y017530D02*
X009590Y017530D01*
X009586Y017528D02*
X009736Y017591D01*
X009852Y017706D01*
X009914Y017857D01*
X009914Y018500D01*
X009852Y018650D01*
X009736Y018766D01*
X009586Y018828D01*
X009423Y018828D01*
X009272Y018766D01*
X009157Y018650D01*
X009094Y018500D01*
X009094Y017857D01*
X009157Y017706D01*
X009272Y017591D01*
X009423Y017528D01*
X009586Y017528D01*
X009419Y017530D02*
X008590Y017530D01*
X008586Y017528D02*
X008736Y017591D01*
X008852Y017706D01*
X008914Y017857D01*
X008914Y018500D01*
X008852Y018650D01*
X008736Y018766D01*
X008586Y018828D01*
X008423Y018828D01*
X008272Y018766D01*
X008157Y018650D01*
X008094Y018500D01*
X008094Y017857D01*
X008157Y017706D01*
X008272Y017591D01*
X008423Y017528D01*
X008586Y017528D01*
X008419Y017530D02*
X007683Y017530D01*
X007774Y017628D02*
X008234Y017628D01*
X008148Y017727D02*
X007860Y017727D01*
X007901Y017825D02*
X008107Y017825D01*
X008094Y017924D02*
X007914Y017924D01*
X007914Y018022D02*
X008094Y018022D01*
X008094Y018121D02*
X007914Y018121D01*
X007914Y018219D02*
X008094Y018219D01*
X008094Y018318D02*
X007914Y018318D01*
X007914Y018416D02*
X008094Y018416D01*
X008100Y018515D02*
X007908Y018515D01*
X007867Y018613D02*
X008141Y018613D01*
X008218Y018712D02*
X007790Y018712D01*
X007629Y018810D02*
X008379Y018810D01*
X008629Y018810D02*
X009379Y018810D01*
X009218Y018712D02*
X008790Y018712D01*
X008867Y018613D02*
X009141Y018613D01*
X009100Y018515D02*
X008908Y018515D01*
X008914Y018416D02*
X009094Y018416D01*
X009094Y018318D02*
X008914Y018318D01*
X008914Y018219D02*
X009094Y018219D01*
X009094Y018121D02*
X008914Y018121D01*
X008914Y018022D02*
X009094Y018022D01*
X009094Y017924D02*
X008914Y017924D01*
X008901Y017825D02*
X009107Y017825D01*
X009148Y017727D02*
X008860Y017727D01*
X008774Y017628D02*
X009234Y017628D01*
X009774Y017628D02*
X010234Y017628D01*
X010148Y017727D02*
X009860Y017727D01*
X009901Y017825D02*
X010107Y017825D01*
X010094Y017924D02*
X009914Y017924D01*
X009914Y018022D02*
X010094Y018022D01*
X010094Y018121D02*
X009914Y018121D01*
X009914Y018219D02*
X010094Y018219D01*
X010094Y018318D02*
X009914Y018318D01*
X009914Y018416D02*
X010094Y018416D01*
X010100Y018515D02*
X009908Y018515D01*
X009867Y018613D02*
X010141Y018613D01*
X010218Y018712D02*
X009790Y018712D01*
X009629Y018810D02*
X010284Y018810D01*
X010284Y018909D02*
X005724Y018909D01*
X005724Y019007D02*
X010284Y019007D01*
X010295Y019106D02*
X005724Y019106D01*
X005724Y019204D02*
X010393Y019204D01*
X010558Y019058D02*
X010504Y019004D01*
X010504Y018178D01*
X010914Y018219D02*
X011094Y018219D01*
X011094Y018121D02*
X010914Y018121D01*
X010914Y018022D02*
X011094Y018022D01*
X011094Y017924D02*
X010914Y017924D01*
X010901Y017825D02*
X011107Y017825D01*
X011148Y017727D02*
X010860Y017727D01*
X010774Y017628D02*
X011234Y017628D01*
X011774Y017628D02*
X012266Y017628D01*
X012256Y017635D02*
X012319Y017593D01*
X012390Y017563D01*
X012466Y017548D01*
X012474Y017548D01*
X012474Y018148D01*
X012114Y018148D01*
X012114Y017900D01*
X012129Y017824D01*
X012159Y017753D01*
X012201Y017690D01*
X012256Y017635D01*
X012176Y017727D02*
X011860Y017727D01*
X011901Y017825D02*
X012129Y017825D01*
X012114Y017924D02*
X011914Y017924D01*
X011914Y018022D02*
X012114Y018022D01*
X012114Y018121D02*
X011914Y018121D01*
X011914Y018219D02*
X012114Y018219D01*
X012114Y018208D02*
X012474Y018208D01*
X012474Y018148D01*
X012534Y018148D01*
X012534Y017548D01*
X012543Y017548D01*
X012618Y017563D01*
X012689Y017593D01*
X012753Y017635D01*
X012807Y017690D01*
X012850Y017753D01*
X012879Y017824D01*
X012894Y017900D01*
X012894Y018148D01*
X012534Y018148D01*
X012534Y018208D01*
X012474Y018208D01*
X012474Y018808D01*
X012466Y018808D01*
X012390Y018793D01*
X012319Y018764D01*
X012256Y018721D01*
X012201Y018667D01*
X012159Y018603D01*
X012129Y018532D01*
X012114Y018457D01*
X012114Y018208D01*
X012114Y018318D02*
X011914Y018318D01*
X011914Y018416D02*
X012114Y018416D01*
X012126Y018515D02*
X011908Y018515D01*
X011867Y018613D02*
X012165Y018613D01*
X012246Y018712D02*
X011790Y018712D01*
X011629Y018810D02*
X015022Y018810D01*
X015120Y018712D02*
X012762Y018712D01*
X012753Y018721D02*
X012689Y018764D01*
X012618Y018793D01*
X012543Y018808D01*
X012534Y018808D01*
X012534Y018208D01*
X012894Y018208D01*
X012894Y018457D01*
X012879Y018532D01*
X012850Y018603D01*
X012807Y018667D01*
X012753Y018721D01*
X012843Y018613D02*
X015219Y018613D01*
X015234Y018515D02*
X012883Y018515D01*
X012894Y018416D02*
X015194Y018416D01*
X015183Y018318D02*
X012894Y018318D01*
X012894Y018219D02*
X015187Y018219D01*
X015228Y018121D02*
X012894Y018121D01*
X012894Y018022D02*
X015301Y018022D01*
X015454Y017924D02*
X012894Y017924D01*
X012879Y017825D02*
X016638Y017825D01*
X016638Y017727D02*
X012832Y017727D01*
X012742Y017628D02*
X015332Y017628D01*
X016213Y017924D02*
X016638Y017924D01*
X016638Y018022D02*
X016366Y018022D01*
X016439Y018121D02*
X016638Y018121D01*
X016638Y018219D02*
X016480Y018219D01*
X016483Y018318D02*
X016638Y018318D01*
X016638Y018416D02*
X016473Y018416D01*
X016432Y018515D02*
X016638Y018515D01*
X016638Y018613D02*
X016350Y018613D01*
X016174Y018712D02*
X016638Y018712D01*
X016638Y018810D02*
X015644Y018810D01*
X015833Y018310D02*
X015085Y019058D01*
X010558Y019058D01*
X010724Y018810D02*
X011379Y018810D01*
X011218Y018712D02*
X010790Y018712D01*
X010867Y018613D02*
X011141Y018613D01*
X011100Y018515D02*
X010908Y018515D01*
X010914Y018416D02*
X011094Y018416D01*
X011094Y018318D02*
X010914Y018318D01*
X012474Y018318D02*
X012534Y018318D01*
X012534Y018416D02*
X012474Y018416D01*
X012474Y018515D02*
X012534Y018515D01*
X012534Y018613D02*
X012474Y018613D01*
X012474Y018712D02*
X012534Y018712D01*
X012534Y018219D02*
X012474Y018219D01*
X012474Y018121D02*
X012534Y018121D01*
X012534Y018022D02*
X012474Y018022D01*
X012474Y017924D02*
X012534Y017924D01*
X012534Y017825D02*
X012474Y017825D01*
X012474Y017727D02*
X012534Y017727D01*
X012534Y017628D02*
X012474Y017628D01*
X015183Y019303D02*
X005724Y019303D01*
X005724Y019401D02*
X015187Y019401D01*
X015228Y019500D02*
X005724Y019500D01*
X005724Y019598D02*
X015302Y019598D01*
X015456Y019697D02*
X005724Y019697D01*
X005724Y019795D02*
X016638Y019795D01*
X016638Y019697D02*
X016210Y019697D01*
X016365Y019598D02*
X016638Y019598D01*
X016638Y019500D02*
X016438Y019500D01*
X016479Y019401D02*
X016638Y019401D01*
X016638Y019303D02*
X016483Y019303D01*
X016473Y019204D02*
X016638Y019204D01*
X016638Y019106D02*
X016433Y019106D01*
X016351Y019007D02*
X016638Y019007D01*
X016638Y018909D02*
X016177Y018909D01*
X017078Y018909D02*
X017438Y018909D01*
X017438Y019007D02*
X017078Y019007D01*
X017078Y019106D02*
X017438Y019106D01*
X017438Y019204D02*
X017078Y019204D01*
X017078Y019303D02*
X017438Y019303D01*
X017438Y019401D02*
X017078Y019401D01*
X017078Y019500D02*
X017438Y019500D01*
X017438Y019598D02*
X017078Y019598D01*
X017078Y019697D02*
X017438Y019697D01*
X017438Y019795D02*
X017078Y019795D01*
X017078Y019894D02*
X017438Y019894D01*
X017438Y019992D02*
X017078Y019992D01*
X017078Y020091D02*
X017438Y020091D01*
X017438Y020189D02*
X017078Y020189D01*
X017078Y020288D02*
X017438Y020288D01*
X017438Y020386D02*
X017078Y020386D01*
X017078Y020485D02*
X017438Y020485D01*
X017438Y020583D02*
X017078Y020583D01*
X017078Y020682D02*
X017438Y020682D01*
X017438Y020780D02*
X017078Y020780D01*
X017078Y020879D02*
X017438Y020879D01*
X017438Y020977D02*
X017078Y020977D01*
X017078Y021076D02*
X017438Y021076D01*
X017438Y021174D02*
X017078Y021174D01*
X017078Y021273D02*
X017438Y021273D01*
X017438Y021371D02*
X017078Y021371D01*
X017078Y021470D02*
X017438Y021470D01*
X017438Y021568D02*
X017078Y021568D01*
X017078Y021667D02*
X017438Y021667D01*
X017438Y021765D02*
X017078Y021765D01*
X017078Y021864D02*
X017438Y021864D01*
X017438Y021962D02*
X017078Y021962D01*
X017078Y022061D02*
X017438Y022061D01*
X017438Y022159D02*
X017078Y022159D01*
X017078Y022258D02*
X017438Y022258D01*
X017438Y022356D02*
X017078Y022356D01*
X017072Y022455D02*
X017438Y022455D01*
X017438Y022553D02*
X016973Y022553D01*
X016875Y022652D02*
X017438Y022652D01*
X017438Y022750D02*
X014472Y022750D01*
X014373Y022849D02*
X014794Y022849D01*
X014696Y022947D02*
X014275Y022947D01*
X014176Y023046D02*
X014597Y023046D01*
X014499Y023144D02*
X014078Y023144D01*
X013979Y023243D02*
X014400Y023243D01*
X014302Y023341D02*
X013881Y023341D01*
X013810Y023440D02*
X013782Y023440D01*
X013455Y023144D02*
X006955Y023144D01*
X006857Y023046D02*
X013554Y023046D01*
X013652Y022947D02*
X006758Y022947D01*
X006660Y022849D02*
X013751Y022849D01*
X013849Y022750D02*
X006561Y022750D01*
X006463Y022652D02*
X013948Y022652D01*
X014046Y022553D02*
X006364Y022553D01*
X006266Y022455D02*
X014145Y022455D01*
X014243Y022356D02*
X006167Y022356D01*
X006069Y022258D02*
X014342Y022258D01*
X014453Y022458D02*
X016758Y022458D01*
X016858Y022358D01*
X016858Y013358D01*
X016906Y013310D01*
X017078Y013787D02*
X024138Y013787D01*
X024138Y013885D02*
X017078Y013885D01*
X017658Y014358D02*
X017658Y022858D01*
X017458Y023058D01*
X014896Y023058D01*
X014014Y023940D01*
X013637Y024326D02*
X013348Y024326D01*
X013436Y024228D02*
X013549Y024228D01*
X013508Y024129D02*
X013477Y024129D01*
X013211Y024425D02*
X013775Y024425D01*
X014254Y024425D02*
X019380Y024425D01*
X019478Y024326D02*
X014391Y024326D01*
X014480Y024228D02*
X019577Y024228D01*
X019675Y024129D02*
X014520Y024129D01*
X014554Y024031D02*
X019774Y024031D01*
X019872Y023932D02*
X014554Y023932D01*
X014554Y023834D02*
X019971Y023834D01*
X020069Y023735D02*
X014530Y023735D01*
X014628Y023637D02*
X020168Y023637D01*
X020266Y023538D02*
X014727Y023538D01*
X014825Y023440D02*
X020365Y023440D01*
X020463Y023341D02*
X014924Y023341D01*
X014453Y022458D02*
X012971Y023940D01*
X012594Y024326D02*
X011348Y024326D01*
X011289Y024386D02*
X011090Y024468D01*
X010876Y024468D01*
X010677Y024386D01*
X010525Y024234D01*
X010461Y024080D01*
X010397Y024234D01*
X010246Y024386D01*
X010047Y024468D01*
X009832Y024468D01*
X009634Y024386D01*
X009482Y024234D01*
X009400Y024035D01*
X009400Y023820D01*
X009482Y023622D01*
X009634Y023470D01*
X009832Y023388D01*
X010047Y023388D01*
X010246Y023470D01*
X010397Y023622D01*
X010461Y023776D01*
X010525Y023622D01*
X010677Y023470D01*
X010876Y023388D01*
X011090Y023388D01*
X011289Y023470D01*
X011441Y023622D01*
X011523Y023820D01*
X011523Y024035D01*
X011441Y024234D01*
X011289Y024386D01*
X011194Y024425D02*
X012731Y024425D01*
X012506Y024228D02*
X011443Y024228D01*
X011484Y024129D02*
X012465Y024129D01*
X012431Y024031D02*
X011523Y024031D01*
X011523Y023932D02*
X012431Y023932D01*
X012431Y023834D02*
X011523Y023834D01*
X011488Y023735D02*
X012471Y023735D01*
X012512Y023637D02*
X011447Y023637D01*
X011357Y023538D02*
X012609Y023538D01*
X012767Y023440D02*
X011216Y023440D01*
X010750Y023440D02*
X010173Y023440D01*
X010314Y023538D02*
X010609Y023538D01*
X010519Y023637D02*
X010404Y023637D01*
X010444Y023735D02*
X010478Y023735D01*
X010482Y024129D02*
X010441Y024129D01*
X010400Y024228D02*
X010523Y024228D01*
X010618Y024326D02*
X010305Y024326D01*
X010151Y024425D02*
X010772Y024425D01*
X009728Y024425D02*
X008236Y024425D01*
X008334Y024523D02*
X019281Y024523D01*
X019183Y024622D02*
X008433Y024622D01*
X008531Y024720D02*
X019084Y024720D01*
X018986Y024819D02*
X008630Y024819D01*
X008728Y024917D02*
X018887Y024917D01*
X018789Y025016D02*
X008827Y025016D01*
X008925Y025114D02*
X018690Y025114D01*
X018592Y025213D02*
X009024Y025213D01*
X009122Y025311D02*
X018493Y025311D01*
X018395Y025410D02*
X009221Y025410D01*
X009249Y025438D02*
X018367Y025438D01*
X023438Y020367D01*
X023567Y020238D01*
X024971Y020238D01*
X025055Y020154D01*
X025186Y020100D01*
X025329Y020100D01*
X025461Y020154D01*
X025561Y020255D01*
X025616Y020386D01*
X026086Y020386D01*
X026086Y020288D02*
X025575Y020288D01*
X025616Y020386D02*
X025616Y020529D01*
X025561Y020661D01*
X025461Y020761D01*
X025329Y020816D01*
X025186Y020816D01*
X025055Y020761D01*
X024971Y020678D01*
X023749Y020678D01*
X018549Y025878D01*
X009067Y025878D01*
X008938Y025749D01*
X005284Y022095D01*
X005284Y018771D01*
X005272Y018766D01*
X005157Y018650D01*
X005094Y018500D01*
X005094Y017857D01*
X005157Y017706D01*
X005272Y017591D01*
X005423Y017528D01*
X005586Y017528D01*
X005736Y017591D01*
X005852Y017706D01*
X005914Y017857D01*
X005914Y018500D01*
X005852Y018650D01*
X005736Y018766D01*
X005724Y018771D01*
X005724Y021913D01*
X009249Y025438D01*
X009158Y025658D02*
X018458Y025658D01*
X023658Y020458D01*
X025258Y020458D01*
X025593Y020583D02*
X026086Y020583D01*
X026086Y020485D02*
X025616Y020485D01*
X025540Y020682D02*
X026086Y020682D01*
X026010Y020780D02*
X025415Y020780D01*
X025101Y020780D02*
X023646Y020780D01*
X023548Y020879D02*
X025911Y020879D01*
X025813Y020977D02*
X023449Y020977D01*
X023351Y021076D02*
X025714Y021076D01*
X025616Y021174D02*
X023252Y021174D01*
X023154Y021273D02*
X025517Y021273D01*
X025419Y021371D02*
X023055Y021371D01*
X022957Y021470D02*
X025320Y021470D01*
X025222Y021568D02*
X022858Y021568D01*
X022760Y021667D02*
X025123Y021667D01*
X025025Y021765D02*
X022661Y021765D01*
X022563Y021864D02*
X024926Y021864D01*
X024828Y021962D02*
X022464Y021962D01*
X022366Y022061D02*
X024729Y022061D01*
X024631Y022159D02*
X022267Y022159D01*
X022169Y022258D02*
X024532Y022258D01*
X024434Y022356D02*
X022070Y022356D01*
X021972Y022455D02*
X024335Y022455D01*
X024237Y022553D02*
X021873Y022553D01*
X021775Y022652D02*
X024138Y022652D01*
X024040Y022750D02*
X021676Y022750D01*
X021578Y022849D02*
X023941Y022849D01*
X023843Y022947D02*
X021479Y022947D01*
X021381Y023046D02*
X023744Y023046D01*
X023646Y023144D02*
X021282Y023144D01*
X021184Y023243D02*
X023547Y023243D01*
X023449Y023341D02*
X021085Y023341D01*
X020987Y023440D02*
X023350Y023440D01*
X023252Y023538D02*
X020888Y023538D01*
X020790Y023637D02*
X023153Y023637D01*
X023055Y023735D02*
X020691Y023735D01*
X020593Y023834D02*
X022956Y023834D01*
X022858Y023932D02*
X020494Y023932D01*
X020396Y024031D02*
X022759Y024031D01*
X022661Y024129D02*
X020297Y024129D01*
X020199Y024228D02*
X022562Y024228D01*
X022464Y024326D02*
X020100Y024326D01*
X020002Y024425D02*
X022365Y024425D01*
X022267Y024523D02*
X019903Y024523D01*
X019805Y024622D02*
X022168Y024622D01*
X022070Y024720D02*
X019706Y024720D01*
X019608Y024819D02*
X021971Y024819D01*
X021873Y024917D02*
X019509Y024917D01*
X019411Y025016D02*
X021774Y025016D01*
X021676Y025114D02*
X019312Y025114D01*
X019214Y025213D02*
X021577Y025213D01*
X021479Y025311D02*
X019115Y025311D01*
X019017Y025410D02*
X021380Y025410D01*
X021282Y025508D02*
X018918Y025508D01*
X018820Y025607D02*
X021183Y025607D01*
X021085Y025705D02*
X018721Y025705D01*
X018623Y025804D02*
X020986Y025804D01*
X020888Y025902D02*
X002758Y025902D01*
X002758Y025804D02*
X008993Y025804D01*
X008894Y025705D02*
X002758Y025705D01*
X002758Y025607D02*
X008796Y025607D01*
X008697Y025508D02*
X002758Y025508D01*
X002758Y025410D02*
X008599Y025410D01*
X008500Y025311D02*
X002758Y025311D01*
X002758Y025213D02*
X008402Y025213D01*
X008303Y025114D02*
X002758Y025114D01*
X002758Y025016D02*
X008205Y025016D01*
X008106Y024917D02*
X002758Y024917D01*
X002758Y024819D02*
X008008Y024819D01*
X007909Y024720D02*
X002758Y024720D01*
X002758Y024622D02*
X007811Y024622D01*
X007712Y024523D02*
X002758Y024523D01*
X002758Y024425D02*
X007614Y024425D01*
X007515Y024326D02*
X002758Y024326D01*
X002758Y024228D02*
X007417Y024228D01*
X007318Y024129D02*
X002758Y024129D01*
X002758Y024031D02*
X007220Y024031D01*
X007121Y023932D02*
X002758Y023932D01*
X002758Y023834D02*
X007023Y023834D01*
X006924Y023735D02*
X002758Y023735D01*
X002758Y023637D02*
X006826Y023637D01*
X006727Y023538D02*
X002758Y023538D01*
X002758Y023440D02*
X006629Y023440D01*
X006530Y023341D02*
X002758Y023341D01*
X002758Y023243D02*
X006432Y023243D01*
X006333Y023144D02*
X002758Y023144D01*
X002758Y023046D02*
X006235Y023046D01*
X006136Y022947D02*
X002758Y022947D01*
X002758Y022849D02*
X006038Y022849D01*
X005939Y022750D02*
X002758Y022750D01*
X002758Y022652D02*
X005841Y022652D01*
X005742Y022553D02*
X002758Y022553D01*
X002758Y022455D02*
X005644Y022455D01*
X005545Y022356D02*
X002758Y022356D01*
X002758Y022258D02*
X005447Y022258D01*
X005348Y022159D02*
X002758Y022159D01*
X002758Y022061D02*
X005284Y022061D01*
X005284Y021962D02*
X002758Y021962D01*
X002758Y021864D02*
X005284Y021864D01*
X005284Y021765D02*
X002758Y021765D01*
X002758Y021667D02*
X005284Y021667D01*
X005284Y021568D02*
X002758Y021568D01*
X002758Y021470D02*
X005284Y021470D01*
X005284Y021371D02*
X002758Y021371D01*
X002758Y021273D02*
X005284Y021273D01*
X005284Y021174D02*
X002758Y021174D01*
X002758Y021076D02*
X005284Y021076D01*
X005284Y020977D02*
X002758Y020977D01*
X002758Y020879D02*
X005284Y020879D01*
X005284Y020780D02*
X002758Y020780D01*
X002758Y020682D02*
X005284Y020682D01*
X005284Y020583D02*
X002758Y020583D01*
X002758Y020485D02*
X005284Y020485D01*
X005284Y020386D02*
X002758Y020386D01*
X002758Y020288D02*
X005284Y020288D01*
X005284Y020189D02*
X002758Y020189D01*
X002758Y020091D02*
X005284Y020091D01*
X005284Y019992D02*
X002758Y019992D01*
X002758Y019894D02*
X005284Y019894D01*
X005284Y019795D02*
X002758Y019795D01*
X002758Y019697D02*
X005284Y019697D01*
X005284Y019598D02*
X002758Y019598D01*
X002758Y019500D02*
X005284Y019500D01*
X005284Y019401D02*
X002758Y019401D01*
X002758Y019303D02*
X005284Y019303D01*
X005284Y019204D02*
X002758Y019204D01*
X002758Y019106D02*
X005284Y019106D01*
X005284Y019007D02*
X002758Y019007D01*
X002758Y018909D02*
X005284Y018909D01*
X005284Y018810D02*
X002758Y018810D01*
X002758Y018712D02*
X005218Y018712D01*
X005141Y018613D02*
X002758Y018613D01*
X002758Y018515D02*
X005100Y018515D01*
X005094Y018416D02*
X002758Y018416D01*
X002758Y018318D02*
X005094Y018318D01*
X005094Y018219D02*
X002758Y018219D01*
X002758Y018121D02*
X005094Y018121D01*
X005094Y018022D02*
X002758Y018022D01*
X002758Y017924D02*
X005094Y017924D01*
X005107Y017825D02*
X002758Y017825D01*
X002758Y017727D02*
X005148Y017727D01*
X005234Y017628D02*
X002758Y017628D01*
X002758Y017530D02*
X005419Y017530D01*
X005590Y017530D02*
X006976Y017530D01*
X007075Y017628D02*
X006742Y017628D01*
X006753Y017635D02*
X006807Y017690D01*
X006850Y017753D01*
X006879Y017824D01*
X006894Y017900D01*
X006894Y018148D01*
X006534Y018148D01*
X006534Y017548D01*
X006543Y017548D01*
X006618Y017563D01*
X006689Y017593D01*
X006753Y017635D01*
X006832Y017727D02*
X007148Y017727D01*
X007107Y017825D02*
X006879Y017825D01*
X006894Y017924D02*
X007094Y017924D01*
X007094Y018022D02*
X006894Y018022D01*
X006894Y018121D02*
X007094Y018121D01*
X007094Y018219D02*
X006894Y018219D01*
X006894Y018208D02*
X006894Y018457D01*
X006879Y018532D01*
X006850Y018603D01*
X006807Y018667D01*
X006753Y018721D01*
X006689Y018764D01*
X006618Y018793D01*
X006543Y018808D01*
X006534Y018808D01*
X006534Y018208D01*
X006474Y018208D01*
X006474Y018148D01*
X006114Y018148D01*
X006114Y017900D01*
X006129Y017824D01*
X006159Y017753D01*
X006201Y017690D01*
X006256Y017635D01*
X006319Y017593D01*
X006390Y017563D01*
X006466Y017548D01*
X006474Y017548D01*
X006474Y018148D01*
X006534Y018148D01*
X006534Y018208D01*
X006894Y018208D01*
X006894Y018318D02*
X007094Y018318D01*
X007094Y018416D02*
X006894Y018416D01*
X006883Y018515D02*
X007100Y018515D01*
X007141Y018613D02*
X006843Y018613D01*
X006762Y018712D02*
X007218Y018712D01*
X007379Y018810D02*
X005724Y018810D01*
X005790Y018712D02*
X006246Y018712D01*
X006256Y018721D02*
X006201Y018667D01*
X006159Y018603D01*
X006129Y018532D01*
X006114Y018457D01*
X006114Y018208D01*
X006474Y018208D01*
X006474Y018808D01*
X006466Y018808D01*
X006390Y018793D01*
X006319Y018764D01*
X006256Y018721D01*
X006165Y018613D02*
X005867Y018613D01*
X005908Y018515D02*
X006126Y018515D01*
X006114Y018416D02*
X005914Y018416D01*
X005914Y018318D02*
X006114Y018318D01*
X006114Y018219D02*
X005914Y018219D01*
X005914Y018121D02*
X006114Y018121D01*
X006114Y018022D02*
X005914Y018022D01*
X005914Y017924D02*
X006114Y017924D01*
X006129Y017825D02*
X005901Y017825D01*
X005860Y017727D02*
X006176Y017727D01*
X006266Y017628D02*
X005774Y017628D01*
X005504Y018178D02*
X005504Y022004D01*
X009158Y025658D01*
X009634Y026470D02*
X009832Y026388D01*
X010047Y026388D01*
X010246Y026470D01*
X010397Y026622D01*
X010461Y026776D01*
X010525Y026622D01*
X010677Y026470D01*
X010876Y026388D01*
X011090Y026388D01*
X011289Y026470D01*
X011441Y026622D01*
X011523Y026820D01*
X011523Y027035D01*
X011441Y027234D01*
X011289Y027386D01*
X011090Y027468D01*
X010876Y027468D01*
X010677Y027386D01*
X010525Y027234D01*
X010461Y027080D01*
X010397Y027234D01*
X010246Y027386D01*
X010047Y027468D01*
X009832Y027468D01*
X009634Y027386D01*
X009482Y027234D01*
X009400Y027035D01*
X009400Y026820D01*
X009482Y026622D01*
X009634Y026470D01*
X009610Y026493D02*
X002758Y026493D01*
X002758Y026395D02*
X009815Y026395D01*
X010064Y026395D02*
X010859Y026395D01*
X010654Y026493D02*
X010269Y026493D01*
X010367Y026592D02*
X010555Y026592D01*
X010497Y026690D02*
X010426Y026690D01*
X010459Y027084D02*
X010463Y027084D01*
X010504Y027183D02*
X010418Y027183D01*
X010350Y027281D02*
X010573Y027281D01*
X010671Y027380D02*
X010251Y027380D01*
X010098Y027676D02*
X010289Y027755D01*
X010436Y027901D01*
X010495Y028044D01*
X010554Y027901D01*
X010700Y027755D01*
X010891Y027676D01*
X011098Y027676D01*
X011289Y027755D01*
X011436Y027901D01*
X011495Y028044D01*
X011554Y027901D01*
X011700Y027755D01*
X011891Y027676D01*
X012098Y027676D01*
X012289Y027755D01*
X012436Y027901D01*
X012495Y028044D01*
X012554Y027901D01*
X012700Y027755D01*
X012891Y027676D01*
X013098Y027676D01*
X013289Y027755D01*
X013436Y027901D01*
X013495Y028044D01*
X013554Y027901D01*
X013700Y027755D01*
X013891Y027676D01*
X014098Y027676D01*
X014289Y027755D01*
X014436Y027901D01*
X014515Y028092D01*
X014515Y028299D01*
X014436Y028490D01*
X014289Y028636D01*
X014098Y028716D01*
X013891Y028716D01*
X013700Y028636D01*
X013554Y028490D01*
X013495Y028347D01*
X013436Y028490D01*
X013289Y028636D01*
X013098Y028716D01*
X012891Y028716D01*
X012700Y028636D01*
X012554Y028490D01*
X012495Y028347D01*
X012436Y028490D01*
X012289Y028636D01*
X012098Y028716D01*
X011891Y028716D01*
X011700Y028636D01*
X011554Y028490D01*
X011495Y028347D01*
X011436Y028490D01*
X011289Y028636D01*
X011098Y028716D01*
X010891Y028716D01*
X010700Y028636D01*
X010554Y028490D01*
X010495Y028347D01*
X010436Y028490D01*
X010289Y028636D01*
X010098Y028716D01*
X009891Y028716D01*
X009700Y028636D01*
X009554Y028490D01*
X009475Y028299D01*
X009475Y028092D01*
X009554Y027901D01*
X009700Y027755D01*
X009891Y027676D01*
X010098Y027676D01*
X010308Y027774D02*
X010681Y027774D01*
X010583Y027872D02*
X010407Y027872D01*
X010464Y027971D02*
X010525Y027971D01*
X010502Y028365D02*
X010487Y028365D01*
X010447Y028463D02*
X010543Y028463D01*
X010626Y028562D02*
X010364Y028562D01*
X010232Y028660D02*
X010758Y028660D01*
X011232Y028660D02*
X011758Y028660D01*
X011626Y028562D02*
X011364Y028562D01*
X011447Y028463D02*
X011543Y028463D01*
X011502Y028365D02*
X011487Y028365D01*
X011464Y027971D02*
X011525Y027971D01*
X011583Y027872D02*
X011407Y027872D01*
X011308Y027774D02*
X011681Y027774D01*
X012308Y027774D02*
X012681Y027774D01*
X012583Y027872D02*
X012407Y027872D01*
X012464Y027971D02*
X012525Y027971D01*
X012502Y028365D02*
X012487Y028365D01*
X012447Y028463D02*
X012543Y028463D01*
X012626Y028562D02*
X012364Y028562D01*
X012232Y028660D02*
X012758Y028660D01*
X013232Y028660D02*
X013758Y028660D01*
X013626Y028562D02*
X013364Y028562D01*
X013447Y028463D02*
X013543Y028463D01*
X013502Y028365D02*
X013487Y028365D01*
X013464Y027971D02*
X013525Y027971D01*
X013583Y027872D02*
X013407Y027872D01*
X013308Y027774D02*
X013681Y027774D01*
X013904Y027478D02*
X013082Y027478D01*
X013079Y027480D02*
X012864Y027480D01*
X012665Y027397D01*
X012513Y027246D01*
X012431Y027047D01*
X012431Y026832D01*
X012513Y026634D01*
X012665Y026482D01*
X012864Y026400D01*
X013079Y026400D01*
X013277Y026482D01*
X013429Y026634D01*
X013493Y026788D01*
X013557Y026634D01*
X013709Y026482D01*
X013907Y026400D01*
X014122Y026400D01*
X014320Y026482D01*
X014472Y026634D01*
X014554Y026832D01*
X014554Y027047D01*
X014472Y027246D01*
X014320Y027397D01*
X014122Y027480D01*
X013907Y027480D01*
X013709Y027397D01*
X013557Y027246D01*
X013493Y027091D01*
X013429Y027246D01*
X013277Y027397D01*
X013079Y027480D01*
X012861Y027478D02*
X002758Y027478D01*
X002758Y027380D02*
X009628Y027380D01*
X009529Y027281D02*
X002758Y027281D01*
X002758Y027183D02*
X009461Y027183D01*
X009420Y027084D02*
X002758Y027084D01*
X002758Y026986D02*
X009400Y026986D01*
X009400Y026887D02*
X002758Y026887D01*
X002758Y026789D02*
X009413Y026789D01*
X009454Y026690D02*
X002758Y026690D01*
X002758Y026592D02*
X009512Y026592D01*
X011107Y026395D02*
X020395Y026395D01*
X020297Y026493D02*
X014332Y026493D01*
X014430Y026592D02*
X020198Y026592D01*
X020100Y026690D02*
X014496Y026690D01*
X014536Y026789D02*
X020001Y026789D01*
X019903Y026887D02*
X014554Y026887D01*
X014554Y026986D02*
X019804Y026986D01*
X019706Y027084D02*
X014539Y027084D01*
X014498Y027183D02*
X019607Y027183D01*
X019509Y027281D02*
X014436Y027281D01*
X014338Y027380D02*
X019410Y027380D01*
X019312Y027478D02*
X014125Y027478D01*
X014308Y027774D02*
X019016Y027774D01*
X018918Y027872D02*
X014407Y027872D01*
X014464Y027971D02*
X018819Y027971D01*
X018721Y028069D02*
X014505Y028069D01*
X014515Y028168D02*
X018622Y028168D01*
X018524Y028266D02*
X018383Y028266D01*
X018150Y028266D02*
X014515Y028266D01*
X014487Y028365D02*
X017930Y028365D01*
X017832Y028463D02*
X014447Y028463D01*
X014364Y028562D02*
X017763Y028562D01*
X017722Y028660D02*
X014232Y028660D01*
X013691Y027380D02*
X013295Y027380D01*
X013393Y027281D02*
X013592Y027281D01*
X013531Y027183D02*
X013455Y027183D01*
X013452Y026690D02*
X013533Y026690D01*
X013599Y026592D02*
X013387Y026592D01*
X013288Y026493D02*
X013697Y026493D01*
X012654Y026493D02*
X011312Y026493D01*
X011411Y026592D02*
X012555Y026592D01*
X012490Y026690D02*
X011469Y026690D01*
X011510Y026789D02*
X012449Y026789D01*
X012431Y026887D02*
X011523Y026887D01*
X011523Y026986D02*
X012431Y026986D01*
X012447Y027084D02*
X011503Y027084D01*
X011462Y027183D02*
X012487Y027183D01*
X012549Y027281D02*
X011393Y027281D01*
X011295Y027380D02*
X012648Y027380D01*
X009681Y027774D02*
X002758Y027774D01*
X002758Y027675D02*
X019115Y027675D01*
X019213Y027577D02*
X002758Y027577D01*
X002723Y027872D02*
X009583Y027872D01*
X009525Y027971D02*
X002624Y027971D01*
X002558Y028069D02*
X009484Y028069D01*
X009475Y028168D02*
X002558Y028168D01*
X002558Y028266D02*
X009475Y028266D01*
X009502Y028365D02*
X002558Y028365D01*
X002558Y028463D02*
X009543Y028463D01*
X009626Y028562D02*
X002558Y028562D01*
X002558Y028660D02*
X009758Y028660D01*
X005207Y029941D02*
X002558Y029941D01*
X002558Y030039D02*
X005094Y030039D01*
X004976Y030138D02*
X002638Y030138D01*
X002558Y029842D02*
X040358Y029842D01*
X040358Y029744D02*
X002558Y029744D01*
X002558Y029645D02*
X040358Y029645D01*
X040358Y029547D02*
X002558Y029547D01*
X002558Y029448D02*
X040358Y029448D01*
X040358Y029350D02*
X025249Y029350D01*
X025246Y029354D02*
X025218Y029382D01*
X025184Y029401D01*
X025146Y029412D01*
X024776Y029412D01*
X024776Y028912D01*
X024676Y028912D01*
X024676Y029412D01*
X024306Y029412D01*
X024268Y029401D01*
X024234Y029382D01*
X024206Y029354D01*
X024186Y029320D01*
X024176Y029281D01*
X024176Y028912D01*
X024676Y028912D01*
X024676Y028812D01*
X024176Y028812D01*
X024176Y028442D01*
X024186Y028404D01*
X024206Y028370D01*
X024234Y028342D01*
X024268Y028322D01*
X024306Y028312D01*
X024676Y028312D01*
X024676Y028812D01*
X024776Y028812D01*
X024776Y028912D01*
X025276Y028912D01*
X025276Y029281D01*
X025266Y029320D01*
X025246Y029354D01*
X025276Y029251D02*
X040358Y029251D01*
X040358Y029153D02*
X025276Y029153D01*
X025276Y029054D02*
X040358Y029054D01*
X040358Y028956D02*
X025276Y028956D01*
X025276Y028812D02*
X024776Y028812D01*
X024776Y028312D01*
X025146Y028312D01*
X025184Y028322D01*
X025218Y028342D01*
X025246Y028370D01*
X025266Y028404D01*
X025276Y028442D01*
X025276Y028812D01*
X025276Y028759D02*
X040358Y028759D01*
X040358Y028857D02*
X024776Y028857D01*
X024776Y028759D02*
X024676Y028759D01*
X024676Y028857D02*
X022808Y028857D01*
X022808Y028812D02*
X022808Y028912D01*
X022708Y028912D01*
X022708Y029411D01*
X022629Y029398D01*
X022547Y029371D01*
X022469Y029332D01*
X022399Y029281D01*
X022338Y029220D01*
X022287Y029150D01*
X022248Y029073D01*
X022221Y028990D01*
X022209Y028912D01*
X022708Y028912D01*
X022708Y028812D01*
X022209Y028812D01*
X022221Y028733D01*
X022248Y028651D01*
X022287Y028573D01*
X022338Y028503D01*
X022399Y028442D01*
X022469Y028391D01*
X022547Y028352D01*
X022629Y028325D01*
X022708Y028313D01*
X022708Y028812D01*
X022808Y028812D01*
X023307Y028812D01*
X023294Y028733D01*
X023267Y028651D01*
X023228Y028573D01*
X023177Y028503D01*
X023116Y028442D01*
X023046Y028391D01*
X022969Y028352D01*
X022887Y028325D01*
X022808Y028313D01*
X022808Y028812D01*
X022808Y028759D02*
X022708Y028759D01*
X022708Y028857D02*
X020805Y028857D01*
X020805Y028759D02*
X022217Y028759D01*
X022245Y028660D02*
X020805Y028660D01*
X020805Y028562D02*
X022296Y028562D01*
X022378Y028463D02*
X020805Y028463D01*
X020805Y028365D02*
X022521Y028365D01*
X022708Y028365D02*
X022808Y028365D01*
X022808Y028463D02*
X022708Y028463D01*
X022708Y028562D02*
X022808Y028562D01*
X022808Y028660D02*
X022708Y028660D01*
X022808Y028912D02*
X023307Y028912D01*
X023294Y028990D01*
X023267Y029073D01*
X023228Y029150D01*
X023177Y029220D01*
X023116Y029281D01*
X023046Y029332D01*
X022969Y029371D01*
X022887Y029398D01*
X022808Y029411D01*
X022808Y028912D01*
X022808Y028956D02*
X022708Y028956D01*
X022708Y029054D02*
X022808Y029054D01*
X022808Y029153D02*
X022708Y029153D01*
X022708Y029251D02*
X022808Y029251D01*
X022808Y029350D02*
X022708Y029350D01*
X022504Y029350D02*
X020760Y029350D01*
X020805Y029305D02*
X020705Y029405D01*
X019764Y029405D01*
X019665Y029305D01*
X019665Y028364D01*
X019764Y028265D01*
X020705Y028265D01*
X020805Y028364D01*
X020805Y029305D01*
X020805Y029251D02*
X022370Y029251D01*
X022289Y029153D02*
X020805Y029153D01*
X020805Y029054D02*
X022242Y029054D01*
X022216Y028956D02*
X020805Y028956D01*
X020707Y028266D02*
X028357Y028266D01*
X028357Y028299D02*
X028357Y028092D01*
X028436Y027901D01*
X028582Y027755D01*
X028773Y027676D01*
X028980Y027676D01*
X029171Y027755D01*
X029317Y027901D01*
X029377Y028044D01*
X029436Y027901D01*
X029582Y027755D01*
X029773Y027676D01*
X029980Y027676D01*
X030171Y027755D01*
X030317Y027901D01*
X030377Y028044D01*
X030436Y027901D01*
X030582Y027755D01*
X030773Y027676D01*
X030980Y027676D01*
X031171Y027755D01*
X031317Y027901D01*
X031377Y028044D01*
X031436Y027901D01*
X031582Y027755D01*
X031773Y027676D01*
X031980Y027676D01*
X032171Y027755D01*
X032317Y027901D01*
X032377Y028044D01*
X032436Y027901D01*
X032582Y027755D01*
X032773Y027676D01*
X032980Y027676D01*
X033171Y027755D01*
X033317Y027901D01*
X033397Y028092D01*
X033397Y028299D01*
X033317Y028490D01*
X033171Y028636D01*
X032980Y028716D01*
X032773Y028716D01*
X032582Y028636D01*
X032436Y028490D01*
X032377Y028347D01*
X032317Y028490D01*
X032171Y028636D01*
X031980Y028716D01*
X031773Y028716D01*
X031582Y028636D01*
X031436Y028490D01*
X031377Y028347D01*
X031317Y028490D01*
X031171Y028636D01*
X030980Y028716D01*
X030773Y028716D01*
X030582Y028636D01*
X030436Y028490D01*
X030377Y028347D01*
X030317Y028490D01*
X030171Y028636D01*
X029980Y028716D01*
X029773Y028716D01*
X029582Y028636D01*
X029436Y028490D01*
X029377Y028347D01*
X029317Y028490D01*
X029171Y028636D01*
X028980Y028716D01*
X028773Y028716D01*
X028582Y028636D01*
X028436Y028490D01*
X028357Y028299D01*
X028384Y028365D02*
X025241Y028365D01*
X025276Y028463D02*
X028425Y028463D01*
X028508Y028562D02*
X025276Y028562D01*
X025276Y028660D02*
X028640Y028660D01*
X029113Y028660D02*
X029640Y028660D01*
X029508Y028562D02*
X029246Y028562D01*
X029329Y028463D02*
X029425Y028463D01*
X029384Y028365D02*
X029369Y028365D01*
X029346Y027971D02*
X029407Y027971D01*
X029464Y027872D02*
X029289Y027872D01*
X029190Y027774D02*
X029563Y027774D01*
X029744Y027478D02*
X029013Y027478D01*
X028972Y027495D02*
X028757Y027495D01*
X028559Y027413D01*
X028407Y027261D01*
X028325Y027063D01*
X028325Y026848D01*
X028407Y026649D01*
X028559Y026498D01*
X028757Y026415D01*
X028972Y026415D01*
X029171Y026498D01*
X029323Y026649D01*
X029379Y026785D01*
X029435Y026649D01*
X029586Y026498D01*
X029785Y026415D01*
X030000Y026415D01*
X030198Y026498D01*
X030350Y026649D01*
X030432Y026848D01*
X030432Y027063D01*
X030350Y027261D01*
X030198Y027413D01*
X030000Y027495D01*
X029785Y027495D01*
X029586Y027413D01*
X029435Y027261D01*
X029379Y027126D01*
X029323Y027261D01*
X029171Y027413D01*
X028972Y027495D01*
X028716Y027478D02*
X019934Y027478D01*
X020033Y027380D02*
X028526Y027380D01*
X028427Y027281D02*
X020131Y027281D01*
X020230Y027183D02*
X028375Y027183D01*
X028334Y027084D02*
X020328Y027084D01*
X020427Y026986D02*
X028325Y026986D01*
X028325Y026887D02*
X020525Y026887D01*
X020624Y026789D02*
X028349Y026789D01*
X028390Y026690D02*
X020722Y026690D01*
X020821Y026592D02*
X028465Y026592D01*
X028569Y026493D02*
X020919Y026493D01*
X021018Y026395D02*
X040153Y026395D01*
X040153Y026493D02*
X033176Y026493D01*
X033186Y026498D02*
X033338Y026649D01*
X033421Y026848D01*
X033421Y027063D01*
X033338Y027261D01*
X033186Y027413D01*
X032988Y027495D01*
X032773Y027495D01*
X032575Y027413D01*
X032423Y027261D01*
X032367Y027126D01*
X032311Y027261D01*
X032159Y027413D01*
X031960Y027495D01*
X031746Y027495D01*
X031547Y027413D01*
X031395Y027261D01*
X031313Y027063D01*
X031313Y026848D01*
X031395Y026649D01*
X031547Y026498D01*
X031746Y026415D01*
X031960Y026415D01*
X032159Y026498D01*
X032311Y026649D01*
X032367Y026785D01*
X032423Y026649D01*
X032575Y026498D01*
X032773Y026415D01*
X032988Y026415D01*
X033186Y026498D01*
X033281Y026592D02*
X040153Y026592D01*
X040153Y026690D02*
X033355Y026690D01*
X033396Y026789D02*
X040153Y026789D01*
X040153Y026887D02*
X033421Y026887D01*
X033421Y026986D02*
X040153Y026986D01*
X040153Y027084D02*
X033412Y027084D01*
X033371Y027183D02*
X040153Y027183D01*
X040153Y027281D02*
X033318Y027281D01*
X033220Y027380D02*
X040153Y027380D01*
X040153Y027478D02*
X033029Y027478D01*
X032732Y027478D02*
X032002Y027478D01*
X032192Y027380D02*
X032541Y027380D01*
X032443Y027281D02*
X032291Y027281D01*
X032343Y027183D02*
X032390Y027183D01*
X032406Y026690D02*
X032328Y026690D01*
X032253Y026592D02*
X032480Y026592D01*
X032585Y026493D02*
X032149Y026493D01*
X031557Y026493D02*
X030188Y026493D01*
X030292Y026592D02*
X031453Y026592D01*
X031378Y026690D02*
X030367Y026690D01*
X030408Y026789D02*
X031338Y026789D01*
X031313Y026887D02*
X030432Y026887D01*
X030432Y026986D02*
X031313Y026986D01*
X031322Y027084D02*
X030423Y027084D01*
X030383Y027183D02*
X031363Y027183D01*
X031415Y027281D02*
X030330Y027281D01*
X030232Y027380D02*
X031514Y027380D01*
X031704Y027478D02*
X030041Y027478D01*
X030190Y027774D02*
X030563Y027774D01*
X030464Y027872D02*
X030289Y027872D01*
X030346Y027971D02*
X030407Y027971D01*
X030384Y028365D02*
X030369Y028365D01*
X030329Y028463D02*
X030425Y028463D01*
X030508Y028562D02*
X030246Y028562D01*
X030113Y028660D02*
X030640Y028660D01*
X031113Y028660D02*
X031640Y028660D01*
X031508Y028562D02*
X031246Y028562D01*
X031329Y028463D02*
X031425Y028463D01*
X031384Y028365D02*
X031369Y028365D01*
X031346Y027971D02*
X031407Y027971D01*
X031464Y027872D02*
X031289Y027872D01*
X031190Y027774D02*
X031563Y027774D01*
X032190Y027774D02*
X032563Y027774D01*
X032464Y027872D02*
X032289Y027872D01*
X032346Y027971D02*
X032407Y027971D01*
X032384Y028365D02*
X032369Y028365D01*
X032329Y028463D02*
X032425Y028463D01*
X032508Y028562D02*
X032246Y028562D01*
X032113Y028660D02*
X032640Y028660D01*
X033113Y028660D02*
X040358Y028660D01*
X040358Y028562D02*
X033246Y028562D01*
X033329Y028463D02*
X040358Y028463D01*
X040358Y028365D02*
X033369Y028365D01*
X033397Y028266D02*
X040358Y028266D01*
X040358Y028168D02*
X033397Y028168D01*
X033387Y028069D02*
X040358Y028069D01*
X040286Y027971D02*
X033346Y027971D01*
X033289Y027872D02*
X040188Y027872D01*
X040153Y027774D02*
X033190Y027774D01*
X029553Y027380D02*
X029204Y027380D01*
X029303Y027281D02*
X029455Y027281D01*
X029402Y027183D02*
X029355Y027183D01*
X029340Y026690D02*
X029418Y026690D01*
X029492Y026592D02*
X029265Y026592D01*
X029160Y026493D02*
X029597Y026493D01*
X028563Y027774D02*
X019639Y027774D01*
X019737Y027675D02*
X040153Y027675D01*
X040153Y027577D02*
X019836Y027577D01*
X019540Y027872D02*
X028464Y027872D01*
X028407Y027971D02*
X019442Y027971D01*
X019343Y028069D02*
X028366Y028069D01*
X028357Y028168D02*
X019245Y028168D01*
X019146Y028266D02*
X019763Y028266D01*
X019665Y028365D02*
X019048Y028365D01*
X018949Y028463D02*
X019665Y028463D01*
X019665Y028562D02*
X018851Y028562D01*
X018811Y028660D02*
X019665Y028660D01*
X019665Y028759D02*
X018836Y028759D01*
X018836Y028857D02*
X019665Y028857D01*
X019665Y028956D02*
X018833Y028956D01*
X018792Y029054D02*
X019665Y029054D01*
X019665Y029153D02*
X018752Y029153D01*
X018656Y029251D02*
X019665Y029251D01*
X019709Y029350D02*
X018513Y029350D01*
X018266Y028835D02*
X026306Y020796D01*
X026306Y018491D01*
X024306Y016491D01*
X024306Y015491D01*
X024306Y015410D01*
X024358Y015358D01*
X024358Y004758D01*
X024258Y004658D01*
X024138Y004922D02*
X018800Y004922D01*
X018702Y005020D02*
X024138Y005020D01*
X024138Y005119D02*
X018603Y005119D01*
X018505Y005217D02*
X024138Y005217D01*
X024138Y005316D02*
X018406Y005316D01*
X018899Y004823D02*
X020080Y004823D01*
X019981Y004725D02*
X018997Y004725D01*
X019096Y004626D02*
X019883Y004626D01*
X019784Y004528D02*
X019194Y004528D01*
X020098Y004134D02*
X020865Y004134D01*
X020906Y004232D02*
X020196Y004232D01*
X020295Y004331D02*
X020997Y004331D01*
X020824Y004035D02*
X020123Y004035D01*
X020134Y003937D02*
X020813Y003937D01*
X020813Y003838D02*
X020134Y003838D01*
X020130Y003740D02*
X020817Y003740D01*
X020858Y003641D02*
X020089Y003641D01*
X020048Y003543D02*
X020899Y003543D01*
X020981Y003444D02*
X019967Y003444D01*
X019868Y003346D02*
X021079Y003346D01*
X021298Y003247D02*
X019649Y003247D01*
X021618Y003247D02*
X040358Y003247D01*
X040358Y003543D02*
X024051Y003543D01*
X024051Y003641D02*
X040358Y003641D01*
X040358Y003740D02*
X024051Y003740D01*
X024051Y003937D02*
X040358Y003937D01*
X040358Y004035D02*
X033031Y004035D01*
X033212Y004134D02*
X040358Y004134D01*
X040358Y004232D02*
X033310Y004232D01*
X033355Y004331D02*
X040358Y004331D01*
X040358Y004429D02*
X033396Y004429D01*
X033397Y004528D02*
X040358Y004528D01*
X040358Y004626D02*
X033397Y004626D01*
X033361Y004725D02*
X040265Y004725D01*
X040167Y004823D02*
X033320Y004823D01*
X033224Y004922D02*
X040153Y004922D01*
X040153Y005020D02*
X035501Y005020D01*
X036028Y005119D02*
X040153Y005119D01*
X040153Y005217D02*
X036145Y005217D01*
X036224Y005316D02*
X040153Y005316D01*
X040153Y005414D02*
X036265Y005414D01*
X036293Y005513D02*
X040153Y005513D01*
X040153Y005611D02*
X036293Y005611D01*
X036288Y005710D02*
X040153Y005710D01*
X040153Y005808D02*
X036247Y005808D01*
X036199Y005907D02*
X040153Y005907D01*
X040153Y006005D02*
X036101Y006005D01*
X035922Y006104D02*
X040153Y006104D01*
X040153Y006202D02*
X033405Y006202D01*
X033408Y006301D02*
X040153Y006301D01*
X040153Y006399D02*
X033408Y006399D01*
X033357Y006104D02*
X035584Y006104D01*
X035405Y006005D02*
X033259Y006005D01*
X033160Y005907D02*
X035307Y005907D01*
X035259Y005808D02*
X033062Y005808D01*
X032963Y005710D02*
X035218Y005710D01*
X035213Y005611D02*
X032865Y005611D01*
X032720Y005513D02*
X035213Y005513D01*
X034083Y006498D02*
X040153Y006498D01*
X040153Y006596D02*
X034158Y006596D01*
X034158Y006695D02*
X040153Y006695D01*
X040153Y006793D02*
X034158Y006793D01*
X034158Y006892D02*
X040153Y006892D01*
X040153Y006990D02*
X034158Y006990D01*
X034158Y007089D02*
X040153Y007089D01*
X040153Y007187D02*
X034158Y007187D01*
X034158Y007286D02*
X040153Y007286D01*
X040153Y007384D02*
X034117Y007384D01*
X034003Y007483D02*
X040153Y007483D01*
X040153Y007581D02*
X034003Y007581D01*
X034003Y007680D02*
X040153Y007680D01*
X040153Y007778D02*
X034003Y007778D01*
X034003Y007877D02*
X040153Y007877D01*
X040153Y007975D02*
X034003Y007975D01*
X034037Y008074D02*
X035586Y008074D01*
X035646Y008049D02*
X035447Y008131D01*
X035295Y008283D01*
X035213Y008482D01*
X035213Y008697D01*
X035295Y008895D01*
X035447Y009047D01*
X035646Y009129D01*
X035860Y009129D01*
X036059Y009047D01*
X036211Y008895D01*
X036293Y008697D01*
X036293Y008482D01*
X036211Y008283D01*
X036059Y008131D01*
X035860Y008049D01*
X035646Y008049D01*
X035406Y008172D02*
X034149Y008172D01*
X034226Y008271D02*
X035308Y008271D01*
X035260Y008369D02*
X034267Y008369D01*
X034293Y008468D02*
X035219Y008468D01*
X035213Y008566D02*
X034293Y008566D01*
X034286Y008665D02*
X035213Y008665D01*
X035241Y008763D02*
X034245Y008763D01*
X034195Y008862D02*
X035281Y008862D01*
X035360Y008960D02*
X034097Y008960D01*
X033913Y009059D02*
X035475Y009059D01*
X036031Y009059D02*
X040153Y009059D01*
X040153Y009157D02*
X024578Y009157D01*
X024578Y009059D02*
X033593Y009059D01*
X033409Y008960D02*
X029416Y008960D01*
X029619Y008862D02*
X033311Y008862D01*
X033646Y011000D02*
X033447Y011083D01*
X033295Y011235D01*
X033213Y011433D01*
X033213Y011648D01*
X033295Y011846D01*
X033447Y011998D01*
X033646Y012080D01*
X033860Y012080D01*
X034059Y011998D01*
X034211Y011846D01*
X034293Y011648D01*
X034293Y011433D01*
X034211Y011235D01*
X034059Y011083D01*
X033860Y011000D01*
X033646Y011000D01*
X033577Y011029D02*
X029652Y011029D01*
X029594Y010971D02*
X029746Y011123D01*
X029828Y011321D01*
X029828Y011536D01*
X029746Y011734D01*
X029594Y011886D01*
X029396Y011969D01*
X029181Y011969D01*
X028983Y011886D01*
X028831Y011734D01*
X028748Y011536D01*
X028748Y011321D01*
X028831Y011123D01*
X028983Y010971D01*
X029181Y010889D01*
X029396Y010889D01*
X029594Y010971D01*
X029496Y010930D02*
X040153Y010930D01*
X040153Y010832D02*
X024578Y010832D01*
X024578Y010930D02*
X029080Y010930D01*
X028925Y011029D02*
X024578Y011029D01*
X024578Y011127D02*
X028829Y011127D01*
X028788Y011226D02*
X024578Y011226D01*
X024578Y011324D02*
X028748Y011324D01*
X028748Y011423D02*
X024578Y011423D01*
X024578Y011521D02*
X028748Y011521D01*
X028783Y011620D02*
X024578Y011620D01*
X024578Y011718D02*
X028824Y011718D01*
X028913Y011817D02*
X024578Y011817D01*
X024578Y011915D02*
X029052Y011915D01*
X029525Y011915D02*
X033364Y011915D01*
X033283Y011817D02*
X029664Y011817D01*
X029753Y011718D02*
X033242Y011718D01*
X033213Y011620D02*
X029794Y011620D01*
X029828Y011521D02*
X033213Y011521D01*
X033217Y011423D02*
X029828Y011423D01*
X029828Y011324D02*
X033258Y011324D01*
X033304Y011226D02*
X029789Y011226D01*
X029748Y011127D02*
X033402Y011127D01*
X033929Y011029D02*
X040153Y011029D01*
X040153Y011127D02*
X034104Y011127D01*
X034202Y011226D02*
X040153Y011226D01*
X040153Y011324D02*
X034248Y011324D01*
X034289Y011423D02*
X040153Y011423D01*
X040153Y011521D02*
X034293Y011521D01*
X034293Y011620D02*
X040153Y011620D01*
X040153Y011718D02*
X034264Y011718D01*
X034223Y011817D02*
X040153Y011817D01*
X040153Y011915D02*
X034142Y011915D01*
X034021Y012014D02*
X040153Y012014D01*
X040153Y012112D02*
X024578Y012112D01*
X024578Y012014D02*
X033485Y012014D01*
X033913Y013293D02*
X033763Y013356D01*
X033647Y013471D01*
X033585Y013622D01*
X033585Y013785D01*
X033647Y013936D01*
X033763Y014051D01*
X033913Y014113D01*
X034556Y014113D01*
X034707Y014051D01*
X034822Y013936D01*
X034838Y013899D01*
X034838Y014508D01*
X034822Y014471D01*
X034707Y014356D01*
X034556Y014293D01*
X033913Y014293D01*
X033763Y014356D01*
X033647Y014471D01*
X033642Y014483D01*
X028315Y014483D01*
X028186Y014612D01*
X028086Y014712D01*
X028086Y014898D01*
X028074Y014903D01*
X027958Y015019D01*
X027896Y015169D01*
X027896Y015812D01*
X027958Y015963D01*
X028074Y016078D01*
X028224Y016141D01*
X028387Y016141D01*
X028538Y016078D01*
X028653Y015963D01*
X028716Y015812D01*
X028716Y015169D01*
X028653Y015019D01*
X028558Y014923D01*
X029053Y014923D01*
X028958Y015019D01*
X028896Y015169D01*
X028896Y015812D01*
X028958Y015963D01*
X029074Y016078D01*
X029224Y016141D01*
X029387Y016141D01*
X029538Y016078D01*
X029653Y015963D01*
X029716Y015812D01*
X029716Y015169D01*
X029653Y015019D01*
X029558Y014923D01*
X030053Y014923D01*
X029958Y015019D01*
X029896Y015169D01*
X029896Y015812D01*
X029958Y015963D01*
X030074Y016078D01*
X030224Y016141D01*
X030387Y016141D01*
X030538Y016078D01*
X030653Y015963D01*
X030716Y015812D01*
X030716Y015169D01*
X030653Y015019D01*
X030558Y014923D01*
X031053Y014923D01*
X030958Y015019D01*
X030896Y015169D01*
X030896Y015812D01*
X030958Y015963D01*
X031074Y016078D01*
X031224Y016141D01*
X031387Y016141D01*
X031538Y016078D01*
X031653Y015963D01*
X031716Y015812D01*
X031716Y015169D01*
X031653Y015019D01*
X031558Y014923D01*
X033642Y014923D01*
X033647Y014936D01*
X033763Y015051D01*
X033913Y015113D01*
X034556Y015113D01*
X034707Y015051D01*
X034822Y014936D01*
X034838Y014899D01*
X034838Y015508D01*
X034822Y015471D01*
X034707Y015356D01*
X034556Y015293D01*
X033913Y015293D01*
X033763Y015356D01*
X033647Y015471D01*
X033585Y015622D01*
X033585Y015785D01*
X033647Y015936D01*
X033669Y015958D01*
X032789Y016838D01*
X027526Y016838D01*
X027526Y016083D01*
X027538Y016078D01*
X027653Y015963D01*
X027716Y015812D01*
X027716Y015169D01*
X027653Y015019D01*
X027538Y014903D01*
X027387Y014841D01*
X027224Y014841D01*
X027074Y014903D01*
X026958Y015019D01*
X026896Y015169D01*
X026896Y015812D01*
X026958Y015963D01*
X027074Y016078D01*
X027086Y016083D01*
X027086Y017049D01*
X027186Y017149D01*
X027315Y017278D01*
X032972Y017278D01*
X033585Y016665D01*
X033585Y016785D01*
X033647Y016936D01*
X033763Y017051D01*
X033913Y017113D01*
X034556Y017113D01*
X034707Y017051D01*
X034822Y016936D01*
X034838Y016899D01*
X034838Y017508D01*
X034822Y017471D01*
X034707Y017356D01*
X034556Y017293D01*
X033913Y017293D01*
X033763Y017356D01*
X033647Y017471D01*
X033585Y017622D01*
X033585Y017785D01*
X033647Y017936D01*
X033763Y018051D01*
X033913Y018113D01*
X034556Y018113D01*
X034707Y018051D01*
X034822Y017936D01*
X034838Y017899D01*
X034838Y018508D01*
X034822Y018471D01*
X034707Y018356D01*
X034556Y018293D01*
X033913Y018293D01*
X033763Y018356D01*
X033647Y018471D01*
X033585Y018622D01*
X033585Y018785D01*
X033647Y018936D01*
X033669Y018958D01*
X033489Y019138D01*
X030395Y019138D01*
X030538Y019078D01*
X030653Y018963D01*
X030716Y018812D01*
X030716Y018169D01*
X030653Y018019D01*
X030538Y017903D01*
X030387Y017841D01*
X030224Y017841D01*
X030074Y017903D01*
X029958Y018019D01*
X029896Y018169D01*
X029896Y018812D01*
X029958Y018963D01*
X030074Y019078D01*
X030217Y019138D01*
X029549Y019138D01*
X029526Y019115D01*
X029526Y019083D01*
X029538Y019078D01*
X029653Y018963D01*
X029716Y018812D01*
X029716Y018169D01*
X029653Y018019D01*
X029538Y017903D01*
X029387Y017841D01*
X029224Y017841D01*
X029074Y017903D01*
X028958Y018019D01*
X028896Y018169D01*
X028896Y018812D01*
X028958Y018963D01*
X029074Y019078D01*
X029086Y019083D01*
X029086Y019297D01*
X029215Y019426D01*
X029367Y019578D01*
X033603Y019578D01*
X033585Y019622D01*
X033585Y019785D01*
X033647Y019936D01*
X033763Y020051D01*
X033913Y020113D01*
X034556Y020113D01*
X034707Y020051D01*
X034822Y019936D01*
X034838Y019899D01*
X034838Y020560D01*
X034821Y020519D01*
X034778Y020455D01*
X034724Y020400D01*
X034660Y020358D01*
X034589Y020328D01*
X034513Y020313D01*
X034265Y020313D01*
X034265Y020673D01*
X034205Y020673D01*
X034205Y020313D01*
X033956Y020313D01*
X033881Y020328D01*
X033810Y020358D01*
X033746Y020400D01*
X033692Y020455D01*
X033649Y020519D01*
X033620Y020590D01*
X033605Y020665D01*
X033605Y020673D01*
X034205Y020673D01*
X034205Y020733D01*
X033605Y020733D01*
X033605Y020742D01*
X033620Y020817D01*
X033649Y020888D01*
X033692Y020952D01*
X033746Y021006D01*
X033810Y021049D01*
X033881Y021078D01*
X033956Y021093D01*
X034205Y021093D01*
X034205Y020733D01*
X034265Y020733D01*
X034265Y021093D01*
X034513Y021093D01*
X034589Y021078D01*
X034660Y021049D01*
X034724Y021006D01*
X034778Y020952D01*
X034821Y020888D01*
X034838Y020847D01*
X034838Y022138D01*
X033360Y022138D01*
X033231Y022267D01*
X032046Y023451D01*
X031960Y023415D01*
X031746Y023415D01*
X031547Y023498D01*
X031395Y023649D01*
X031313Y023848D01*
X031313Y024063D01*
X031395Y024261D01*
X031547Y024413D01*
X031746Y024495D01*
X031960Y024495D01*
X032159Y024413D01*
X032311Y024261D01*
X032367Y024126D01*
X032423Y024261D01*
X032575Y024413D01*
X032773Y024495D01*
X032988Y024495D01*
X033186Y024413D01*
X033338Y024261D01*
X033421Y024063D01*
X033421Y023848D01*
X033385Y023762D01*
X034069Y023078D01*
X036049Y023078D01*
X036178Y022949D01*
X036178Y014923D01*
X036642Y014923D01*
X036647Y014936D01*
X036763Y015051D01*
X036913Y015113D01*
X037556Y015113D01*
X037707Y015051D01*
X037822Y014936D01*
X037885Y014785D01*
X037885Y014622D01*
X037822Y014471D01*
X037707Y014356D01*
X037556Y014293D01*
X036913Y014293D01*
X036763Y014356D01*
X036647Y014471D01*
X036642Y014483D01*
X035967Y014483D01*
X035838Y014612D01*
X035738Y014712D01*
X035738Y022638D01*
X033887Y022638D01*
X033758Y022767D01*
X033758Y022767D01*
X033074Y023451D01*
X032988Y023415D01*
X032773Y023415D01*
X032655Y023464D01*
X033542Y022578D01*
X035149Y022578D01*
X035278Y022449D01*
X035278Y013923D01*
X036642Y013923D01*
X036647Y013936D01*
X036763Y014051D01*
X036913Y014113D01*
X037556Y014113D01*
X037707Y014051D01*
X037822Y013936D01*
X037885Y013785D01*
X037885Y013622D01*
X037822Y013471D01*
X037707Y013356D01*
X037556Y013293D01*
X036913Y013293D01*
X036763Y013356D01*
X036647Y013471D01*
X036642Y013483D01*
X035067Y013483D01*
X034885Y013665D01*
X034885Y013622D01*
X034822Y013471D01*
X034707Y013356D01*
X034556Y013293D01*
X033913Y013293D01*
X033911Y013294D02*
X024578Y013294D01*
X024578Y013196D02*
X040153Y013196D01*
X040153Y013294D02*
X037559Y013294D01*
X037744Y013393D02*
X040153Y013393D01*
X040153Y013491D02*
X037831Y013491D01*
X037872Y013590D02*
X040153Y013590D01*
X040153Y013688D02*
X037885Y013688D01*
X037884Y013787D02*
X040153Y013787D01*
X040153Y013885D02*
X037843Y013885D01*
X037774Y013984D02*
X040153Y013984D01*
X040153Y014082D02*
X037632Y014082D01*
X037729Y014378D02*
X040153Y014378D01*
X040153Y014476D02*
X037825Y014476D01*
X037865Y014575D02*
X040153Y014575D01*
X040153Y014673D02*
X037885Y014673D01*
X037885Y014772D02*
X040153Y014772D01*
X040153Y014870D02*
X037850Y014870D01*
X037789Y014969D02*
X040153Y014969D01*
X040153Y015067D02*
X037668Y015067D01*
X037556Y015293D02*
X037707Y015356D01*
X037822Y015471D01*
X037885Y015622D01*
X037885Y015785D01*
X037822Y015936D01*
X037707Y016051D01*
X037556Y016113D01*
X036913Y016113D01*
X036763Y016051D01*
X036647Y015936D01*
X036585Y015785D01*
X036585Y015622D01*
X036647Y015471D01*
X036763Y015356D01*
X036913Y015293D01*
X037556Y015293D01*
X037714Y015363D02*
X040153Y015363D01*
X040153Y015461D02*
X037813Y015461D01*
X037859Y015560D02*
X040153Y015560D01*
X040153Y015658D02*
X037885Y015658D01*
X037885Y015757D02*
X040153Y015757D01*
X040153Y015855D02*
X037856Y015855D01*
X037804Y015954D02*
X040153Y015954D01*
X040153Y016052D02*
X037704Y016052D01*
X037556Y016293D02*
X037707Y016356D01*
X037822Y016471D01*
X037885Y016622D01*
X037885Y016785D01*
X037822Y016936D01*
X037707Y017051D01*
X037556Y017113D01*
X036913Y017113D01*
X036763Y017051D01*
X036647Y016936D01*
X036585Y016785D01*
X036585Y016622D01*
X036647Y016471D01*
X036763Y016356D01*
X036913Y016293D01*
X037556Y016293D01*
X037688Y016348D02*
X040153Y016348D01*
X040153Y016446D02*
X037798Y016446D01*
X037853Y016545D02*
X040153Y016545D01*
X040153Y016643D02*
X037885Y016643D01*
X037885Y016742D02*
X040153Y016742D01*
X040153Y016840D02*
X037862Y016840D01*
X037819Y016939D02*
X040153Y016939D01*
X040153Y017037D02*
X037721Y017037D01*
X037651Y017333D02*
X040153Y017333D01*
X040153Y017431D02*
X037783Y017431D01*
X037822Y017471D02*
X037885Y017622D01*
X037885Y017785D01*
X037822Y017936D01*
X037707Y018051D01*
X037556Y018113D01*
X036913Y018113D01*
X036763Y018051D01*
X036647Y017936D01*
X036585Y017785D01*
X036585Y017622D01*
X036647Y017471D01*
X036763Y017356D01*
X036913Y017293D01*
X037556Y017293D01*
X037707Y017356D01*
X037822Y017471D01*
X037847Y017530D02*
X040153Y017530D01*
X040153Y017628D02*
X037885Y017628D01*
X037885Y017727D02*
X040153Y017727D01*
X040153Y017825D02*
X037868Y017825D01*
X037827Y017924D02*
X040153Y017924D01*
X040153Y018022D02*
X037736Y018022D01*
X037615Y018318D02*
X040153Y018318D01*
X040153Y018416D02*
X037768Y018416D01*
X037822Y018471D02*
X037885Y018622D01*
X037885Y018785D01*
X037822Y018936D01*
X037707Y019051D01*
X037556Y019113D01*
X036913Y019113D01*
X036763Y019051D01*
X036647Y018936D01*
X036585Y018785D01*
X036585Y018622D01*
X036647Y018471D01*
X036763Y018356D01*
X036913Y018293D01*
X037556Y018293D01*
X037707Y018356D01*
X037822Y018471D01*
X037841Y018515D02*
X040153Y018515D01*
X040153Y018613D02*
X037881Y018613D01*
X037885Y018712D02*
X040153Y018712D01*
X040153Y018810D02*
X037874Y018810D01*
X037834Y018909D02*
X040153Y018909D01*
X040153Y019007D02*
X037751Y019007D01*
X037575Y019106D02*
X040153Y019106D01*
X040153Y019204D02*
X036178Y019204D01*
X036178Y019106D02*
X036895Y019106D01*
X036913Y019293D02*
X036763Y019356D01*
X036647Y019471D01*
X036585Y019622D01*
X036585Y019785D01*
X036647Y019936D01*
X036763Y020051D01*
X036913Y020113D01*
X037556Y020113D01*
X037707Y020051D01*
X037822Y019936D01*
X037885Y019785D01*
X037885Y019622D01*
X037822Y019471D01*
X037707Y019356D01*
X037556Y019293D01*
X036913Y019293D01*
X036891Y019303D02*
X036178Y019303D01*
X036178Y019401D02*
X036717Y019401D01*
X036635Y019500D02*
X036178Y019500D01*
X036178Y019598D02*
X036595Y019598D01*
X036585Y019697D02*
X036178Y019697D01*
X036178Y019795D02*
X036589Y019795D01*
X036630Y019894D02*
X036178Y019894D01*
X036178Y019992D02*
X036704Y019992D01*
X036859Y020091D02*
X036178Y020091D01*
X036178Y020189D02*
X040153Y020189D01*
X040153Y020091D02*
X037611Y020091D01*
X037766Y019992D02*
X040153Y019992D01*
X040153Y019894D02*
X037840Y019894D01*
X037881Y019795D02*
X040153Y019795D01*
X040153Y019697D02*
X037885Y019697D01*
X037875Y019598D02*
X040153Y019598D01*
X040153Y019500D02*
X037834Y019500D01*
X037753Y019401D02*
X040153Y019401D01*
X040153Y019303D02*
X037579Y019303D01*
X036719Y019007D02*
X036178Y019007D01*
X036178Y018909D02*
X036636Y018909D01*
X036595Y018810D02*
X036178Y018810D01*
X036178Y018712D02*
X036585Y018712D01*
X036588Y018613D02*
X036178Y018613D01*
X036178Y018515D02*
X036629Y018515D01*
X036702Y018416D02*
X036178Y018416D01*
X036178Y018318D02*
X036855Y018318D01*
X036734Y018022D02*
X036178Y018022D01*
X036178Y017924D02*
X036642Y017924D01*
X036602Y017825D02*
X036178Y017825D01*
X036178Y017727D02*
X036585Y017727D01*
X036585Y017628D02*
X036178Y017628D01*
X036178Y017530D02*
X036623Y017530D01*
X036687Y017431D02*
X036178Y017431D01*
X036178Y017333D02*
X036818Y017333D01*
X036749Y017037D02*
X036178Y017037D01*
X036178Y016939D02*
X036650Y016939D01*
X036608Y016840D02*
X036178Y016840D01*
X036178Y016742D02*
X036585Y016742D01*
X036585Y016643D02*
X036178Y016643D01*
X036178Y016545D02*
X036617Y016545D01*
X036672Y016446D02*
X036178Y016446D01*
X036178Y016348D02*
X036782Y016348D01*
X036766Y016052D02*
X036178Y016052D01*
X036178Y015954D02*
X036665Y015954D01*
X036614Y015855D02*
X036178Y015855D01*
X036178Y015757D02*
X036585Y015757D01*
X036585Y015658D02*
X036178Y015658D01*
X036178Y015560D02*
X036611Y015560D01*
X036657Y015461D02*
X036178Y015461D01*
X036178Y015363D02*
X036756Y015363D01*
X036802Y015067D02*
X036178Y015067D01*
X036178Y014969D02*
X036680Y014969D01*
X036645Y014476D02*
X035278Y014476D01*
X035278Y014378D02*
X036741Y014378D01*
X036838Y014082D02*
X035278Y014082D01*
X035278Y013984D02*
X036695Y013984D01*
X037235Y013703D02*
X035158Y013703D01*
X035058Y013803D01*
X035058Y022358D01*
X033451Y022358D01*
X031853Y023955D01*
X031360Y023735D02*
X030386Y023735D01*
X030350Y023649D02*
X030432Y023848D01*
X030432Y024063D01*
X030350Y024261D01*
X030198Y024413D01*
X030000Y024495D01*
X029785Y024495D01*
X029586Y024413D01*
X029435Y024261D01*
X029379Y024126D01*
X029323Y024261D01*
X029171Y024413D01*
X028972Y024495D01*
X028757Y024495D01*
X028559Y024413D01*
X028407Y024261D01*
X028325Y024063D01*
X028325Y023848D01*
X028407Y023649D01*
X028559Y023498D01*
X028757Y023415D01*
X028972Y023415D01*
X029171Y023498D01*
X029323Y023649D01*
X029379Y023785D01*
X029435Y023649D01*
X029586Y023498D01*
X029785Y023415D01*
X030000Y023415D01*
X030198Y023498D01*
X030350Y023649D01*
X030337Y023637D02*
X031408Y023637D01*
X031506Y023538D02*
X030239Y023538D01*
X030059Y023440D02*
X031687Y023440D01*
X032019Y023440D02*
X032057Y023440D01*
X032156Y023341D02*
X024071Y023341D01*
X024170Y023243D02*
X032254Y023243D01*
X032353Y023144D02*
X024268Y023144D01*
X024367Y023046D02*
X032451Y023046D01*
X032550Y022947D02*
X024465Y022947D01*
X024564Y022849D02*
X032648Y022849D01*
X032747Y022750D02*
X024662Y022750D01*
X024761Y022652D02*
X032845Y022652D01*
X032944Y022553D02*
X024859Y022553D01*
X024958Y022455D02*
X033042Y022455D01*
X033141Y022356D02*
X025056Y022356D01*
X025155Y022258D02*
X033239Y022258D01*
X033338Y022159D02*
X025253Y022159D01*
X025352Y022061D02*
X034838Y022061D01*
X034838Y021962D02*
X025450Y021962D01*
X025549Y021864D02*
X034838Y021864D01*
X034838Y021765D02*
X025647Y021765D01*
X025746Y021667D02*
X034838Y021667D01*
X034838Y021568D02*
X025844Y021568D01*
X025943Y021470D02*
X034838Y021470D01*
X034838Y021371D02*
X026041Y021371D01*
X026140Y021273D02*
X034838Y021273D01*
X034838Y021174D02*
X026238Y021174D01*
X026337Y021076D02*
X033875Y021076D01*
X033717Y020977D02*
X026435Y020977D01*
X026526Y020879D02*
X033645Y020879D01*
X033613Y020780D02*
X026526Y020780D01*
X026526Y020682D02*
X034205Y020682D01*
X034205Y020780D02*
X034265Y020780D01*
X034265Y020879D02*
X034205Y020879D01*
X034205Y020977D02*
X034265Y020977D01*
X034265Y021076D02*
X034205Y021076D01*
X034595Y021076D02*
X034838Y021076D01*
X034838Y020977D02*
X034753Y020977D01*
X034824Y020879D02*
X034838Y020879D01*
X034838Y020485D02*
X034798Y020485D01*
X034838Y020386D02*
X034702Y020386D01*
X034838Y020288D02*
X026526Y020288D01*
X026526Y020386D02*
X033768Y020386D01*
X033672Y020485D02*
X026526Y020485D01*
X026526Y020583D02*
X033623Y020583D01*
X033859Y020091D02*
X026526Y020091D01*
X026526Y020189D02*
X034838Y020189D01*
X034838Y020091D02*
X034611Y020091D01*
X034766Y019992D02*
X034838Y019992D01*
X035278Y019992D02*
X035738Y019992D01*
X035738Y019894D02*
X035278Y019894D01*
X035278Y019795D02*
X035738Y019795D01*
X035738Y019697D02*
X035278Y019697D01*
X035278Y019598D02*
X035738Y019598D01*
X035738Y019500D02*
X035278Y019500D01*
X035278Y019401D02*
X035738Y019401D01*
X035738Y019303D02*
X035278Y019303D01*
X035278Y019204D02*
X035738Y019204D01*
X035738Y019106D02*
X035278Y019106D01*
X035278Y019007D02*
X035738Y019007D01*
X035738Y018909D02*
X035278Y018909D01*
X035278Y018810D02*
X035738Y018810D01*
X035738Y018712D02*
X035278Y018712D01*
X035278Y018613D02*
X035738Y018613D01*
X035738Y018515D02*
X035278Y018515D01*
X035278Y018416D02*
X035738Y018416D01*
X035738Y018318D02*
X035278Y018318D01*
X035278Y018219D02*
X035738Y018219D01*
X035738Y018121D02*
X035278Y018121D01*
X035278Y018022D02*
X035738Y018022D01*
X035738Y017924D02*
X035278Y017924D01*
X035278Y017825D02*
X035738Y017825D01*
X035738Y017727D02*
X035278Y017727D01*
X035278Y017628D02*
X035738Y017628D01*
X035738Y017530D02*
X035278Y017530D01*
X035278Y017431D02*
X035738Y017431D01*
X035738Y017333D02*
X035278Y017333D01*
X035278Y017234D02*
X035738Y017234D01*
X035738Y017136D02*
X035278Y017136D01*
X035278Y017037D02*
X035738Y017037D01*
X035738Y016939D02*
X035278Y016939D01*
X035278Y016840D02*
X035738Y016840D01*
X035738Y016742D02*
X035278Y016742D01*
X035278Y016643D02*
X035738Y016643D01*
X035738Y016545D02*
X035278Y016545D01*
X035278Y016446D02*
X035738Y016446D01*
X035738Y016348D02*
X035278Y016348D01*
X035278Y016249D02*
X035738Y016249D01*
X035738Y016151D02*
X035278Y016151D01*
X035278Y016052D02*
X035738Y016052D01*
X035738Y015954D02*
X035278Y015954D01*
X035278Y015855D02*
X035738Y015855D01*
X035738Y015757D02*
X035278Y015757D01*
X035278Y015658D02*
X035738Y015658D01*
X035738Y015560D02*
X035278Y015560D01*
X035278Y015461D02*
X035738Y015461D01*
X035738Y015363D02*
X035278Y015363D01*
X035278Y015264D02*
X035738Y015264D01*
X035738Y015166D02*
X035278Y015166D01*
X035278Y015067D02*
X035738Y015067D01*
X035738Y014969D02*
X035278Y014969D01*
X035278Y014870D02*
X035738Y014870D01*
X035738Y014772D02*
X035278Y014772D01*
X035278Y014673D02*
X035777Y014673D01*
X035875Y014575D02*
X035278Y014575D01*
X035278Y014279D02*
X040153Y014279D01*
X040153Y014181D02*
X035278Y014181D01*
X034838Y014181D02*
X024578Y014181D01*
X024578Y014279D02*
X034838Y014279D01*
X034838Y014378D02*
X034729Y014378D01*
X034825Y014476D02*
X034838Y014476D01*
X034838Y014082D02*
X034632Y014082D01*
X034774Y013984D02*
X034838Y013984D01*
X034872Y013590D02*
X034960Y013590D01*
X035059Y013491D02*
X034831Y013491D01*
X034744Y013393D02*
X036726Y013393D01*
X036911Y013294D02*
X034559Y013294D01*
X033726Y013393D02*
X024578Y013393D01*
X024578Y013491D02*
X033639Y013491D01*
X033598Y013590D02*
X024578Y013590D01*
X024578Y013688D02*
X033585Y013688D01*
X033586Y013787D02*
X024578Y013787D01*
X024578Y013885D02*
X033626Y013885D01*
X033695Y013984D02*
X024578Y013984D01*
X024578Y014082D02*
X033838Y014082D01*
X033741Y014378D02*
X024578Y014378D01*
X024578Y014476D02*
X033645Y014476D01*
X033680Y014969D02*
X031604Y014969D01*
X031674Y015067D02*
X033802Y015067D01*
X033756Y015363D02*
X031716Y015363D01*
X031716Y015461D02*
X033657Y015461D01*
X033611Y015560D02*
X031716Y015560D01*
X031716Y015658D02*
X033585Y015658D01*
X033585Y015757D02*
X031716Y015757D01*
X031698Y015855D02*
X033614Y015855D01*
X033665Y015954D02*
X031657Y015954D01*
X031564Y016052D02*
X033575Y016052D01*
X033476Y016151D02*
X027526Y016151D01*
X027526Y016249D02*
X033378Y016249D01*
X033279Y016348D02*
X027526Y016348D01*
X027526Y016446D02*
X033181Y016446D01*
X033082Y016545D02*
X027526Y016545D01*
X027526Y016643D02*
X032984Y016643D01*
X032885Y016742D02*
X027526Y016742D01*
X027306Y016958D02*
X027406Y017058D01*
X032881Y017058D01*
X034235Y015703D01*
X034714Y015363D02*
X034838Y015363D01*
X034838Y015461D02*
X034813Y015461D01*
X034838Y015264D02*
X031716Y015264D01*
X031714Y015166D02*
X034838Y015166D01*
X034838Y015067D02*
X034668Y015067D01*
X034789Y014969D02*
X034838Y014969D01*
X034235Y014703D02*
X028406Y014703D01*
X028306Y014803D01*
X028306Y015491D01*
X028716Y015461D02*
X028896Y015461D01*
X028896Y015363D02*
X028716Y015363D01*
X028716Y015264D02*
X028896Y015264D01*
X028897Y015166D02*
X028714Y015166D01*
X028674Y015067D02*
X028938Y015067D01*
X029008Y014969D02*
X028604Y014969D01*
X028086Y014870D02*
X027458Y014870D01*
X027604Y014969D02*
X028008Y014969D01*
X027938Y015067D02*
X027674Y015067D01*
X027714Y015166D02*
X027897Y015166D01*
X027896Y015264D02*
X027716Y015264D01*
X027716Y015363D02*
X027896Y015363D01*
X027896Y015461D02*
X027716Y015461D01*
X027716Y015560D02*
X027896Y015560D01*
X027896Y015658D02*
X027716Y015658D01*
X027716Y015757D02*
X027896Y015757D01*
X027914Y015855D02*
X027698Y015855D01*
X027657Y015954D02*
X027954Y015954D01*
X028047Y016052D02*
X027564Y016052D01*
X027086Y016151D02*
X024526Y016151D01*
X024526Y016249D02*
X027086Y016249D01*
X027086Y016348D02*
X024526Y016348D01*
X024572Y016446D02*
X027086Y016446D01*
X027086Y016545D02*
X024671Y016545D01*
X024769Y016643D02*
X027086Y016643D01*
X027086Y016742D02*
X024868Y016742D01*
X024966Y016840D02*
X027086Y016840D01*
X027086Y016939D02*
X025065Y016939D01*
X025163Y017037D02*
X027086Y017037D01*
X027173Y017136D02*
X025262Y017136D01*
X025360Y017234D02*
X027271Y017234D01*
X027306Y016958D02*
X027306Y015491D01*
X026896Y015461D02*
X026716Y015461D01*
X026716Y015363D02*
X026896Y015363D01*
X026896Y015264D02*
X026716Y015264D01*
X026716Y015169D02*
X026653Y015019D01*
X026538Y014903D01*
X026387Y014841D01*
X026224Y014841D01*
X026074Y014903D01*
X025958Y015019D01*
X025896Y015169D01*
X025896Y015812D01*
X025958Y015963D01*
X026074Y016078D01*
X026224Y016141D01*
X026387Y016141D01*
X026538Y016078D01*
X026653Y015963D01*
X026716Y015812D01*
X026716Y015169D01*
X026714Y015166D02*
X026897Y015166D01*
X026938Y015067D02*
X026674Y015067D01*
X026604Y014969D02*
X027008Y014969D01*
X027153Y014870D02*
X026458Y014870D01*
X026153Y014870D02*
X025458Y014870D01*
X025387Y014841D02*
X025538Y014903D01*
X025653Y015019D01*
X025716Y015169D01*
X025716Y015812D01*
X025653Y015963D01*
X025538Y016078D01*
X025387Y016141D01*
X025224Y016141D01*
X025074Y016078D01*
X024958Y015963D01*
X024896Y015812D01*
X024896Y015169D01*
X024958Y015019D01*
X025074Y014903D01*
X025224Y014841D01*
X025387Y014841D01*
X025153Y014870D02*
X024578Y014870D01*
X024578Y014772D02*
X028086Y014772D01*
X028125Y014673D02*
X024578Y014673D01*
X024578Y014575D02*
X028223Y014575D01*
X028716Y015560D02*
X028896Y015560D01*
X028896Y015658D02*
X028716Y015658D01*
X028716Y015757D02*
X028896Y015757D01*
X028914Y015855D02*
X028698Y015855D01*
X028657Y015954D02*
X028954Y015954D01*
X029047Y016052D02*
X028564Y016052D01*
X029564Y016052D02*
X030047Y016052D01*
X029954Y015954D02*
X029657Y015954D01*
X029698Y015855D02*
X029914Y015855D01*
X029896Y015757D02*
X029716Y015757D01*
X029716Y015658D02*
X029896Y015658D01*
X029896Y015560D02*
X029716Y015560D01*
X029716Y015461D02*
X029896Y015461D01*
X029896Y015363D02*
X029716Y015363D01*
X029716Y015264D02*
X029896Y015264D01*
X029897Y015166D02*
X029714Y015166D01*
X029674Y015067D02*
X029938Y015067D01*
X030008Y014969D02*
X029604Y014969D01*
X030604Y014969D02*
X031008Y014969D01*
X030938Y015067D02*
X030674Y015067D01*
X030714Y015166D02*
X030897Y015166D01*
X030896Y015264D02*
X030716Y015264D01*
X030716Y015363D02*
X030896Y015363D01*
X030896Y015461D02*
X030716Y015461D01*
X030716Y015560D02*
X030896Y015560D01*
X030896Y015658D02*
X030716Y015658D01*
X030716Y015757D02*
X030896Y015757D01*
X030914Y015855D02*
X030698Y015855D01*
X030657Y015954D02*
X030954Y015954D01*
X031047Y016052D02*
X030564Y016052D01*
X030559Y017924D02*
X031093Y017924D01*
X031121Y017905D02*
X031192Y017876D01*
X031267Y017861D01*
X031276Y017861D01*
X031276Y018461D01*
X031336Y018461D01*
X031336Y018521D01*
X031696Y018521D01*
X031696Y018769D01*
X031681Y018845D01*
X031651Y018916D01*
X031609Y018979D01*
X031554Y019034D01*
X031490Y019076D01*
X031420Y019106D01*
X033521Y019106D01*
X033620Y019007D02*
X031581Y019007D01*
X031654Y018909D02*
X033636Y018909D01*
X033595Y018810D02*
X031688Y018810D01*
X031696Y018712D02*
X033585Y018712D01*
X033588Y018613D02*
X031696Y018613D01*
X031696Y018461D02*
X031336Y018461D01*
X031336Y017861D01*
X031344Y017861D01*
X031420Y017876D01*
X031490Y017905D01*
X031554Y017948D01*
X031609Y018002D01*
X031651Y018066D01*
X031681Y018137D01*
X031696Y018212D01*
X031696Y018461D01*
X031696Y018416D02*
X033702Y018416D01*
X033629Y018515D02*
X031336Y018515D01*
X031336Y018521D02*
X031276Y018521D01*
X031276Y019121D01*
X031267Y019121D01*
X031192Y019106D01*
X031121Y019076D01*
X031057Y019034D01*
X031003Y018979D01*
X030960Y018916D01*
X030931Y018845D01*
X030916Y018769D01*
X030916Y018521D01*
X031276Y018521D01*
X031276Y018461D01*
X030916Y018461D01*
X030916Y018212D01*
X030931Y018137D01*
X030960Y018066D01*
X031003Y018002D01*
X031057Y017948D01*
X031121Y017905D01*
X031276Y017924D02*
X031336Y017924D01*
X031336Y018022D02*
X031276Y018022D01*
X031276Y018121D02*
X031336Y018121D01*
X031336Y018219D02*
X031276Y018219D01*
X031276Y018318D02*
X031336Y018318D01*
X031336Y018416D02*
X031276Y018416D01*
X031276Y018515D02*
X030716Y018515D01*
X030716Y018613D02*
X030916Y018613D01*
X030916Y018712D02*
X030716Y018712D01*
X030716Y018810D02*
X030924Y018810D01*
X030957Y018909D02*
X030676Y018909D01*
X030609Y019007D02*
X031031Y019007D01*
X031192Y019106D02*
X030472Y019106D01*
X030140Y019106D02*
X029526Y019106D01*
X029609Y019007D02*
X030002Y019007D01*
X029936Y018909D02*
X029676Y018909D01*
X029716Y018810D02*
X029896Y018810D01*
X029896Y018712D02*
X029716Y018712D01*
X029716Y018613D02*
X029896Y018613D01*
X029896Y018515D02*
X029716Y018515D01*
X029716Y018416D02*
X029896Y018416D01*
X029896Y018318D02*
X029716Y018318D01*
X029716Y018219D02*
X029896Y018219D01*
X029916Y018121D02*
X029696Y018121D01*
X029655Y018022D02*
X029957Y018022D01*
X030053Y017924D02*
X029559Y017924D01*
X029053Y017924D02*
X028559Y017924D01*
X028538Y017903D02*
X028653Y018019D01*
X028716Y018169D01*
X028716Y018812D01*
X028653Y018963D01*
X028538Y019078D01*
X028387Y019141D01*
X028224Y019141D01*
X028074Y019078D01*
X027958Y018963D01*
X027896Y018812D01*
X027896Y018169D01*
X027958Y018019D01*
X028074Y017903D01*
X028224Y017841D01*
X028387Y017841D01*
X028538Y017903D01*
X028655Y018022D02*
X028957Y018022D01*
X028916Y018121D02*
X028696Y018121D01*
X028716Y018219D02*
X028896Y018219D01*
X028896Y018318D02*
X028716Y018318D01*
X028716Y018416D02*
X028896Y018416D01*
X028896Y018515D02*
X028716Y018515D01*
X028716Y018613D02*
X028896Y018613D01*
X028896Y018712D02*
X028716Y018712D01*
X028716Y018810D02*
X028896Y018810D01*
X028936Y018909D02*
X028676Y018909D01*
X028609Y019007D02*
X029002Y019007D01*
X029086Y019106D02*
X028472Y019106D01*
X028140Y019106D02*
X027472Y019106D01*
X027538Y019078D02*
X027387Y019141D01*
X027224Y019141D01*
X027074Y019078D01*
X026958Y018963D01*
X026896Y018812D01*
X026896Y018169D01*
X026958Y018019D01*
X027074Y017903D01*
X027224Y017841D01*
X027387Y017841D01*
X027538Y017903D01*
X027653Y018019D01*
X027716Y018169D01*
X027716Y018812D01*
X027653Y018963D01*
X027538Y019078D01*
X027609Y019007D02*
X028002Y019007D01*
X027936Y018909D02*
X027676Y018909D01*
X027716Y018810D02*
X027896Y018810D01*
X027896Y018712D02*
X027716Y018712D01*
X027716Y018613D02*
X027896Y018613D01*
X027896Y018515D02*
X027716Y018515D01*
X027716Y018416D02*
X027896Y018416D01*
X027896Y018318D02*
X027716Y018318D01*
X027716Y018219D02*
X027896Y018219D01*
X027916Y018121D02*
X027696Y018121D01*
X027655Y018022D02*
X027957Y018022D01*
X028053Y017924D02*
X027559Y017924D01*
X027053Y017924D02*
X026559Y017924D01*
X026655Y018022D02*
X026957Y018022D01*
X026916Y018121D02*
X026696Y018121D01*
X026716Y018219D02*
X026896Y018219D01*
X026896Y018318D02*
X026716Y018318D01*
X026716Y018416D02*
X026896Y018416D01*
X026896Y018515D02*
X026716Y018515D01*
X026716Y018613D02*
X026896Y018613D01*
X026896Y018712D02*
X026716Y018712D01*
X026716Y018810D02*
X026896Y018810D01*
X026936Y018909D02*
X026676Y018909D01*
X026609Y019007D02*
X027002Y019007D01*
X027140Y019106D02*
X026526Y019106D01*
X026526Y019204D02*
X029086Y019204D01*
X029092Y019303D02*
X026526Y019303D01*
X026526Y019401D02*
X029190Y019401D01*
X029289Y019500D02*
X026526Y019500D01*
X026526Y019598D02*
X033595Y019598D01*
X033585Y019697D02*
X026526Y019697D01*
X026526Y019795D02*
X033589Y019795D01*
X033630Y019894D02*
X026526Y019894D01*
X026526Y019992D02*
X033704Y019992D01*
X034205Y020386D02*
X034265Y020386D01*
X034265Y020485D02*
X034205Y020485D01*
X034205Y020583D02*
X034265Y020583D01*
X035278Y020583D02*
X035738Y020583D01*
X035738Y020485D02*
X035278Y020485D01*
X035278Y020386D02*
X035738Y020386D01*
X035738Y020288D02*
X035278Y020288D01*
X035278Y020189D02*
X035738Y020189D01*
X035738Y020091D02*
X035278Y020091D01*
X035278Y020682D02*
X035738Y020682D01*
X035738Y020780D02*
X035278Y020780D01*
X035278Y020879D02*
X035738Y020879D01*
X035738Y020977D02*
X035278Y020977D01*
X035278Y021076D02*
X035738Y021076D01*
X035738Y021174D02*
X035278Y021174D01*
X035278Y021273D02*
X035738Y021273D01*
X035738Y021371D02*
X035278Y021371D01*
X035278Y021470D02*
X035738Y021470D01*
X035738Y021568D02*
X035278Y021568D01*
X035278Y021667D02*
X035738Y021667D01*
X035738Y021765D02*
X035278Y021765D01*
X035278Y021864D02*
X035738Y021864D01*
X035738Y021962D02*
X035278Y021962D01*
X035278Y022061D02*
X035738Y022061D01*
X035738Y022159D02*
X035278Y022159D01*
X035278Y022258D02*
X035738Y022258D01*
X035738Y022356D02*
X035278Y022356D01*
X035272Y022455D02*
X035738Y022455D01*
X035738Y022553D02*
X035173Y022553D01*
X035958Y022858D02*
X033978Y022858D01*
X032881Y023955D01*
X033421Y023932D02*
X040153Y023932D01*
X040153Y023834D02*
X033415Y023834D01*
X033412Y023735D02*
X040153Y023735D01*
X040153Y023637D02*
X033510Y023637D01*
X033609Y023538D02*
X040153Y023538D01*
X040153Y023440D02*
X033707Y023440D01*
X033806Y023341D02*
X040153Y023341D01*
X040153Y023243D02*
X033904Y023243D01*
X034003Y023144D02*
X040153Y023144D01*
X040153Y023046D02*
X036081Y023046D01*
X036178Y022947D02*
X040153Y022947D01*
X040153Y022849D02*
X036178Y022849D01*
X036178Y022750D02*
X040153Y022750D01*
X040153Y022652D02*
X036178Y022652D01*
X036178Y022553D02*
X040153Y022553D01*
X040153Y022455D02*
X036178Y022455D01*
X036178Y022356D02*
X040153Y022356D01*
X040153Y022258D02*
X036178Y022258D01*
X036178Y022159D02*
X040153Y022159D01*
X040153Y022061D02*
X036178Y022061D01*
X036178Y021962D02*
X040153Y021962D01*
X040153Y021864D02*
X036178Y021864D01*
X036178Y021765D02*
X040153Y021765D01*
X040153Y021667D02*
X036178Y021667D01*
X036178Y021568D02*
X040153Y021568D01*
X040153Y021470D02*
X036178Y021470D01*
X036178Y021371D02*
X040153Y021371D01*
X040153Y021273D02*
X036178Y021273D01*
X036178Y021174D02*
X040153Y021174D01*
X040153Y021076D02*
X037647Y021076D01*
X037707Y021051D02*
X037556Y021113D01*
X036913Y021113D01*
X036763Y021051D01*
X036647Y020936D01*
X036585Y020785D01*
X036585Y020622D01*
X036647Y020471D01*
X036763Y020356D01*
X036913Y020293D01*
X037556Y020293D01*
X037707Y020356D01*
X037822Y020471D01*
X037885Y020622D01*
X037885Y020785D01*
X037822Y020936D01*
X037707Y021051D01*
X037781Y020977D02*
X040153Y020977D01*
X040153Y020879D02*
X037846Y020879D01*
X037885Y020780D02*
X040153Y020780D01*
X040153Y020682D02*
X037885Y020682D01*
X037869Y020583D02*
X040153Y020583D01*
X040153Y020485D02*
X037828Y020485D01*
X037738Y020386D02*
X040153Y020386D01*
X040153Y020288D02*
X036178Y020288D01*
X036178Y020386D02*
X036732Y020386D01*
X036642Y020485D02*
X036178Y020485D01*
X036178Y020583D02*
X036601Y020583D01*
X036585Y020682D02*
X036178Y020682D01*
X036178Y020780D02*
X036585Y020780D01*
X036624Y020879D02*
X036178Y020879D01*
X036178Y020977D02*
X036689Y020977D01*
X036823Y021076D02*
X036178Y021076D01*
X035958Y022858D02*
X035958Y014803D01*
X036058Y014703D01*
X037235Y014703D01*
X036178Y015166D02*
X040153Y015166D01*
X040153Y015264D02*
X036178Y015264D01*
X036178Y016151D02*
X040153Y016151D01*
X040153Y016249D02*
X036178Y016249D01*
X036178Y017136D02*
X040153Y017136D01*
X040153Y017234D02*
X036178Y017234D01*
X036178Y018121D02*
X040153Y018121D01*
X040153Y018219D02*
X036178Y018219D01*
X034838Y018219D02*
X031696Y018219D01*
X031696Y018318D02*
X033855Y018318D01*
X033734Y018022D02*
X031622Y018022D01*
X031674Y018121D02*
X034838Y018121D01*
X034838Y018022D02*
X034736Y018022D01*
X034827Y017924D02*
X034838Y017924D01*
X034838Y017431D02*
X034783Y017431D01*
X034838Y017333D02*
X034651Y017333D01*
X034838Y017234D02*
X033015Y017234D01*
X033114Y017136D02*
X034838Y017136D01*
X034838Y017037D02*
X034721Y017037D01*
X034819Y016939D02*
X034838Y016939D01*
X033818Y017333D02*
X025459Y017333D01*
X025557Y017431D02*
X033687Y017431D01*
X033623Y017530D02*
X025656Y017530D01*
X025754Y017628D02*
X033585Y017628D01*
X033585Y017727D02*
X025853Y017727D01*
X025951Y017825D02*
X033602Y017825D01*
X033642Y017924D02*
X031518Y017924D01*
X030989Y018022D02*
X030655Y018022D01*
X030696Y018121D02*
X030937Y018121D01*
X030916Y018219D02*
X030716Y018219D01*
X030716Y018318D02*
X030916Y018318D01*
X030916Y018416D02*
X030716Y018416D01*
X031276Y018613D02*
X031336Y018613D01*
X031336Y018521D02*
X031336Y019121D01*
X031344Y019121D01*
X031420Y019106D01*
X031336Y019106D02*
X031276Y019106D01*
X031276Y019007D02*
X031336Y019007D01*
X031336Y018909D02*
X031276Y018909D01*
X031276Y018810D02*
X031336Y018810D01*
X031336Y018712D02*
X031276Y018712D01*
X029458Y019358D02*
X029306Y019206D01*
X029306Y018491D01*
X029458Y019358D02*
X033581Y019358D01*
X034235Y018703D01*
X034615Y018318D02*
X034838Y018318D01*
X034838Y018416D02*
X034768Y018416D01*
X033749Y017037D02*
X033212Y017037D01*
X033311Y016939D02*
X033650Y016939D01*
X033608Y016840D02*
X033409Y016840D01*
X033508Y016742D02*
X033585Y016742D01*
X027047Y016052D02*
X026564Y016052D01*
X026657Y015954D02*
X026954Y015954D01*
X026914Y015855D02*
X026698Y015855D01*
X026716Y015757D02*
X026896Y015757D01*
X026896Y015658D02*
X026716Y015658D01*
X026716Y015560D02*
X026896Y015560D01*
X026047Y016052D02*
X025564Y016052D01*
X025657Y015954D02*
X025954Y015954D01*
X025914Y015855D02*
X025698Y015855D01*
X025716Y015757D02*
X025896Y015757D01*
X025896Y015658D02*
X025716Y015658D01*
X025716Y015560D02*
X025896Y015560D01*
X025896Y015461D02*
X025716Y015461D01*
X025716Y015363D02*
X025896Y015363D01*
X025896Y015264D02*
X025716Y015264D01*
X025714Y015166D02*
X025897Y015166D01*
X025938Y015067D02*
X025674Y015067D01*
X025604Y014969D02*
X026008Y014969D01*
X025008Y014969D02*
X024604Y014969D01*
X024674Y015067D02*
X024938Y015067D01*
X024897Y015166D02*
X024714Y015166D01*
X024716Y015264D02*
X024896Y015264D01*
X024896Y015363D02*
X024716Y015363D01*
X024716Y015461D02*
X024896Y015461D01*
X024896Y015560D02*
X024716Y015560D01*
X024716Y015658D02*
X024896Y015658D01*
X024896Y015757D02*
X024716Y015757D01*
X024698Y015855D02*
X024914Y015855D01*
X024954Y015954D02*
X024657Y015954D01*
X024564Y016052D02*
X025047Y016052D01*
X024086Y016151D02*
X019451Y016151D01*
X019483Y016249D02*
X024086Y016249D01*
X024086Y016348D02*
X019483Y016348D01*
X019461Y016446D02*
X024086Y016446D01*
X024086Y016545D02*
X019418Y016545D01*
X019320Y016643D02*
X024147Y016643D01*
X024246Y016742D02*
X017878Y016742D01*
X017878Y016840D02*
X024344Y016840D01*
X024443Y016939D02*
X019249Y016939D01*
X019381Y017037D02*
X024541Y017037D01*
X024640Y017136D02*
X019445Y017136D01*
X019483Y017234D02*
X024738Y017234D01*
X024837Y017333D02*
X019483Y017333D01*
X019467Y017431D02*
X024935Y017431D01*
X025034Y017530D02*
X019426Y017530D01*
X019335Y017628D02*
X025132Y017628D01*
X025231Y017727D02*
X017878Y017727D01*
X017878Y017825D02*
X025329Y017825D01*
X025276Y017861D02*
X025276Y018461D01*
X024916Y018461D01*
X024916Y018212D01*
X024931Y018137D01*
X024960Y018066D01*
X025003Y018002D01*
X025057Y017948D01*
X025121Y017905D01*
X025192Y017876D01*
X025267Y017861D01*
X025276Y017861D01*
X025276Y017924D02*
X025336Y017924D01*
X025336Y018022D02*
X025276Y018022D01*
X025276Y018121D02*
X025336Y018121D01*
X025336Y018219D02*
X025276Y018219D01*
X025276Y018318D02*
X025336Y018318D01*
X025336Y018416D02*
X025276Y018416D01*
X025276Y018515D02*
X024716Y018515D01*
X024716Y018613D02*
X024916Y018613D01*
X024916Y018712D02*
X024716Y018712D01*
X024716Y018810D02*
X024924Y018810D01*
X024957Y018909D02*
X024676Y018909D01*
X024609Y019007D02*
X025031Y019007D01*
X025276Y019007D02*
X025336Y019007D01*
X025336Y018909D02*
X025276Y018909D01*
X025276Y018810D02*
X025336Y018810D01*
X025336Y018712D02*
X025276Y018712D01*
X025276Y018613D02*
X025336Y018613D01*
X025336Y018515D02*
X025896Y018515D01*
X025896Y018613D02*
X025696Y018613D01*
X025696Y018712D02*
X025896Y018712D01*
X025896Y018810D02*
X025688Y018810D01*
X025654Y018909D02*
X025936Y018909D01*
X026002Y019007D02*
X025581Y019007D01*
X025420Y019106D02*
X025344Y019121D01*
X025336Y019121D01*
X025696Y018416D02*
X025896Y018416D01*
X025822Y018318D02*
X025696Y018318D01*
X025696Y018219D02*
X025723Y018219D01*
X026050Y017924D02*
X026053Y017924D01*
X025093Y017924D02*
X024559Y017924D01*
X024655Y018022D02*
X024989Y018022D01*
X024937Y018121D02*
X024696Y018121D01*
X024716Y018219D02*
X024916Y018219D01*
X024916Y018318D02*
X024716Y018318D01*
X024716Y018416D02*
X024916Y018416D01*
X024053Y017924D02*
X019213Y017924D01*
X019366Y018022D02*
X023957Y018022D01*
X023916Y018121D02*
X019439Y018121D01*
X019480Y018219D02*
X023896Y018219D01*
X023896Y018318D02*
X019483Y018318D01*
X019473Y018416D02*
X023896Y018416D01*
X023896Y018515D02*
X019432Y018515D01*
X019350Y018613D02*
X023896Y018613D01*
X025020Y020189D02*
X019467Y020189D01*
X019483Y020228D02*
X019483Y020391D01*
X019421Y020542D01*
X019306Y020657D01*
X019155Y020720D01*
X018512Y020720D01*
X018361Y020657D01*
X018246Y020542D01*
X018183Y020391D01*
X018183Y020228D01*
X018246Y020077D01*
X018361Y019962D01*
X018512Y019900D01*
X019155Y019900D01*
X019306Y019962D01*
X019421Y020077D01*
X019483Y020228D01*
X019483Y020288D02*
X023517Y020288D01*
X023418Y020386D02*
X019483Y020386D01*
X019445Y020485D02*
X023320Y020485D01*
X023221Y020583D02*
X019380Y020583D01*
X019246Y020682D02*
X023123Y020682D01*
X023024Y020780D02*
X017878Y020780D01*
X017878Y020682D02*
X018420Y020682D01*
X018287Y020583D02*
X017878Y020583D01*
X017878Y020485D02*
X018222Y020485D01*
X018183Y020386D02*
X017878Y020386D01*
X017878Y020288D02*
X018183Y020288D01*
X018199Y020189D02*
X017878Y020189D01*
X017878Y020091D02*
X018240Y020091D01*
X018331Y019992D02*
X017878Y019992D01*
X017878Y019894D02*
X026086Y019894D01*
X026086Y019992D02*
X019336Y019992D01*
X019426Y020091D02*
X026086Y020091D01*
X026086Y020189D02*
X025496Y020189D01*
X024975Y020682D02*
X023745Y020682D01*
X022926Y020879D02*
X017878Y020879D01*
X017878Y020977D02*
X022827Y020977D01*
X022729Y021076D02*
X017878Y021076D01*
X017878Y021174D02*
X022630Y021174D01*
X022532Y021273D02*
X017878Y021273D01*
X017878Y021371D02*
X022433Y021371D01*
X022335Y021470D02*
X017878Y021470D01*
X017878Y021568D02*
X022236Y021568D01*
X022138Y021667D02*
X017878Y021667D01*
X017878Y021765D02*
X022039Y021765D01*
X021941Y021864D02*
X017878Y021864D01*
X017878Y021962D02*
X021842Y021962D01*
X021744Y022061D02*
X017878Y022061D01*
X017878Y022159D02*
X021645Y022159D01*
X021547Y022258D02*
X017878Y022258D01*
X017878Y022356D02*
X021448Y022356D01*
X021350Y022455D02*
X017878Y022455D01*
X017878Y022553D02*
X021251Y022553D01*
X021153Y022652D02*
X017878Y022652D01*
X017878Y022750D02*
X021054Y022750D01*
X020956Y022849D02*
X017878Y022849D01*
X017878Y022947D02*
X020857Y022947D01*
X020759Y023046D02*
X017781Y023046D01*
X017682Y023144D02*
X020660Y023144D01*
X020562Y023243D02*
X017584Y023243D01*
X016638Y022159D02*
X005970Y022159D01*
X005872Y022061D02*
X016638Y022061D01*
X016638Y021962D02*
X005773Y021962D01*
X005724Y021864D02*
X016638Y021864D01*
X016638Y021765D02*
X005724Y021765D01*
X005724Y021667D02*
X016638Y021667D01*
X016638Y021568D02*
X005724Y021568D01*
X005724Y021470D02*
X016638Y021470D01*
X016638Y021371D02*
X005724Y021371D01*
X005724Y021273D02*
X016638Y021273D01*
X016638Y021174D02*
X005724Y021174D01*
X005724Y021076D02*
X016638Y021076D01*
X016638Y020977D02*
X005724Y020977D01*
X005724Y020879D02*
X016638Y020879D01*
X016638Y020780D02*
X005724Y020780D01*
X005724Y020682D02*
X015472Y020682D01*
X015480Y020685D02*
X015409Y020655D01*
X015345Y020613D01*
X015290Y020558D01*
X015248Y020494D01*
X015218Y020423D01*
X015203Y020348D01*
X015203Y020340D01*
X015803Y020340D01*
X015803Y020280D01*
X015203Y020280D01*
X015203Y020271D01*
X015218Y020196D01*
X015248Y020125D01*
X015290Y020061D01*
X015345Y020007D01*
X015409Y019964D01*
X015480Y019935D01*
X015555Y019920D01*
X015803Y019920D01*
X015803Y020280D01*
X015863Y020280D01*
X015863Y019920D01*
X016112Y019920D01*
X016187Y019935D01*
X016258Y019964D01*
X016322Y020007D01*
X016376Y020061D01*
X016419Y020125D01*
X016448Y020196D01*
X016463Y020271D01*
X016463Y020280D01*
X015863Y020280D01*
X015863Y020340D01*
X015803Y020340D01*
X015803Y020700D01*
X015555Y020700D01*
X015480Y020685D01*
X015315Y020583D02*
X005724Y020583D01*
X005724Y020485D02*
X015244Y020485D01*
X015211Y020386D02*
X005724Y020386D01*
X005724Y020288D02*
X015803Y020288D01*
X015863Y020288D02*
X016638Y020288D01*
X016638Y020386D02*
X016456Y020386D01*
X016448Y020423D02*
X016419Y020494D01*
X016376Y020558D01*
X016322Y020613D01*
X016258Y020655D01*
X016187Y020685D01*
X016112Y020700D01*
X015863Y020700D01*
X015863Y020340D01*
X016463Y020340D01*
X016463Y020348D01*
X016448Y020423D01*
X016423Y020485D02*
X016638Y020485D01*
X016638Y020583D02*
X016351Y020583D01*
X016194Y020682D02*
X016638Y020682D01*
X016638Y020189D02*
X016446Y020189D01*
X016396Y020091D02*
X016638Y020091D01*
X016638Y019992D02*
X016300Y019992D01*
X016638Y019894D02*
X005724Y019894D01*
X005724Y019992D02*
X015366Y019992D01*
X015271Y020091D02*
X005724Y020091D01*
X005724Y020189D02*
X015221Y020189D01*
X015803Y020189D02*
X015863Y020189D01*
X015863Y020091D02*
X015803Y020091D01*
X015803Y019992D02*
X015863Y019992D01*
X015863Y020386D02*
X015803Y020386D01*
X015803Y020485D02*
X015863Y020485D01*
X015863Y020583D02*
X015803Y020583D01*
X015803Y020682D02*
X015863Y020682D01*
X017078Y018810D02*
X017438Y018810D01*
X017438Y018712D02*
X017078Y018712D01*
X016638Y017628D02*
X016335Y017628D01*
X016426Y017530D02*
X016638Y017530D01*
X016638Y017431D02*
X016467Y017431D01*
X016483Y017333D02*
X016638Y017333D01*
X016638Y017234D02*
X016483Y017234D01*
X016445Y017136D02*
X016638Y017136D01*
X016638Y017037D02*
X016381Y017037D01*
X016249Y016939D02*
X016638Y016939D01*
X016638Y016643D02*
X016320Y016643D01*
X016418Y016545D02*
X016638Y016545D01*
X016638Y016446D02*
X016461Y016446D01*
X016483Y016348D02*
X016638Y016348D01*
X016638Y016249D02*
X016483Y016249D01*
X016451Y016151D02*
X016638Y016151D01*
X016638Y016052D02*
X016396Y016052D01*
X016285Y015954D02*
X016638Y015954D01*
X016638Y015855D02*
X015599Y015855D01*
X015697Y015757D02*
X016638Y015757D01*
X017878Y015757D02*
X023896Y015757D01*
X023896Y015658D02*
X019303Y015658D01*
X019403Y015560D02*
X023896Y015560D01*
X023896Y015461D02*
X019454Y015461D01*
X019483Y015363D02*
X023896Y015363D01*
X023896Y015264D02*
X019483Y015264D01*
X019457Y015166D02*
X023897Y015166D01*
X023938Y015067D02*
X019411Y015067D01*
X019312Y014969D02*
X024008Y014969D01*
X024138Y014870D02*
X017878Y014870D01*
X017878Y014772D02*
X024138Y014772D01*
X023914Y015855D02*
X017878Y015855D01*
X019285Y015954D02*
X023954Y015954D01*
X024047Y016052D02*
X019396Y016052D01*
X024138Y012703D02*
X012923Y012703D01*
X013022Y012605D02*
X024138Y012605D01*
X024138Y012506D02*
X013120Y012506D01*
X013219Y012408D02*
X024138Y012408D01*
X024138Y012309D02*
X013317Y012309D01*
X013416Y012211D02*
X024138Y012211D01*
X024138Y012112D02*
X013514Y012112D01*
X013613Y012014D02*
X024138Y012014D01*
X024138Y011915D02*
X013711Y011915D01*
X013810Y011817D02*
X024138Y011817D01*
X024138Y011718D02*
X013908Y011718D01*
X014007Y011620D02*
X024138Y011620D01*
X024138Y011521D02*
X014105Y011521D01*
X014204Y011423D02*
X024138Y011423D01*
X024138Y011324D02*
X014302Y011324D01*
X014401Y011226D02*
X024138Y011226D01*
X024138Y011127D02*
X014499Y011127D01*
X014598Y011029D02*
X024138Y011029D01*
X024138Y010930D02*
X014696Y010930D01*
X014795Y010832D02*
X024138Y010832D01*
X024138Y010733D02*
X014893Y010733D01*
X014992Y010635D02*
X024138Y010635D01*
X024138Y010536D02*
X015090Y010536D01*
X015189Y010438D02*
X024138Y010438D01*
X024138Y010339D02*
X015287Y010339D01*
X015386Y010241D02*
X024138Y010241D01*
X024138Y010142D02*
X015484Y010142D01*
X015583Y010044D02*
X024138Y010044D01*
X024138Y009945D02*
X015681Y009945D01*
X015780Y009847D02*
X024138Y009847D01*
X024138Y009748D02*
X015878Y009748D01*
X016172Y009650D02*
X024138Y009650D01*
X024138Y009551D02*
X016265Y009551D01*
X016306Y009453D02*
X024138Y009453D01*
X024138Y009354D02*
X016316Y009354D01*
X016303Y009256D02*
X024138Y009256D01*
X024138Y009157D02*
X016262Y009157D01*
X016165Y009059D02*
X024138Y009059D01*
X024578Y008960D02*
X029161Y008960D01*
X028958Y008862D02*
X024578Y008862D01*
X024578Y008763D02*
X028859Y008763D01*
X028802Y008665D02*
X024578Y008665D01*
X024578Y008566D02*
X028761Y008566D01*
X028748Y008468D02*
X024578Y008468D01*
X024578Y008369D02*
X028748Y008369D01*
X028769Y008271D02*
X024578Y008271D01*
X024578Y008172D02*
X028810Y008172D01*
X028880Y008074D02*
X024578Y008074D01*
X024578Y007975D02*
X028978Y007975D01*
X029038Y007877D02*
X024578Y007877D01*
X024578Y007778D02*
X029038Y007778D01*
X029038Y007680D02*
X024578Y007680D01*
X024578Y007581D02*
X029038Y007581D01*
X029038Y007483D02*
X024578Y007483D01*
X024578Y007384D02*
X029038Y007384D01*
X028900Y007286D02*
X024578Y007286D01*
X024578Y007187D02*
X028858Y007187D01*
X029538Y007384D02*
X030208Y007384D01*
X030208Y007483D02*
X029538Y007483D01*
X029538Y007581D02*
X030208Y007581D01*
X030208Y007680D02*
X029538Y007680D01*
X029538Y007778D02*
X030208Y007778D01*
X030208Y007877D02*
X029538Y007877D01*
X029599Y007975D02*
X030208Y007975D01*
X030208Y008074D02*
X029697Y008074D01*
X029767Y008172D02*
X030208Y008172D01*
X030208Y008271D02*
X029808Y008271D01*
X029828Y008369D02*
X030208Y008369D01*
X030208Y008468D02*
X029828Y008468D01*
X029816Y008566D02*
X030208Y008566D01*
X030239Y008665D02*
X029775Y008665D01*
X029717Y008763D02*
X030342Y008763D01*
X027762Y007089D02*
X024578Y007089D01*
X024578Y006990D02*
X027637Y006990D01*
X027538Y006892D02*
X024578Y006892D01*
X024578Y006793D02*
X027440Y006793D01*
X027341Y006695D02*
X024578Y006695D01*
X024578Y006596D02*
X027243Y006596D01*
X027144Y006498D02*
X024578Y006498D01*
X024578Y006399D02*
X027046Y006399D01*
X026947Y006301D02*
X024578Y006301D01*
X024578Y006202D02*
X026417Y006202D01*
X026373Y006104D02*
X024578Y006104D01*
X024578Y006005D02*
X026373Y006005D01*
X026373Y005907D02*
X024578Y005907D01*
X024578Y005808D02*
X026373Y005808D01*
X026373Y005710D02*
X024578Y005710D01*
X024578Y005611D02*
X026373Y005611D01*
X026373Y005513D02*
X024578Y005513D01*
X024578Y005414D02*
X026373Y005414D01*
X026373Y005316D02*
X024578Y005316D01*
X024578Y005217D02*
X026373Y005217D01*
X026373Y005119D02*
X024578Y005119D01*
X024578Y005020D02*
X026373Y005020D01*
X026373Y004922D02*
X024578Y004922D01*
X024138Y005414D02*
X015025Y005414D01*
X015213Y005513D02*
X024138Y005513D01*
X024138Y005611D02*
X015311Y005611D01*
X015362Y005710D02*
X024138Y005710D01*
X024138Y005808D02*
X015403Y005808D01*
X015411Y005907D02*
X024138Y005907D01*
X024138Y006005D02*
X015411Y006005D01*
X015386Y006104D02*
X024138Y006104D01*
X024138Y006202D02*
X015345Y006202D01*
X015269Y006301D02*
X024138Y006301D01*
X024138Y006399D02*
X015161Y006399D01*
X014581Y006399D02*
X013858Y006399D01*
X013858Y006301D02*
X014473Y006301D01*
X014397Y006202D02*
X013858Y006202D01*
X013858Y006104D02*
X014357Y006104D01*
X014331Y006005D02*
X013864Y006005D01*
X013962Y005907D02*
X014331Y005907D01*
X014339Y005808D02*
X014061Y005808D01*
X014159Y005710D02*
X014380Y005710D01*
X014431Y005611D02*
X014258Y005611D01*
X014356Y005513D02*
X014530Y005513D01*
X014455Y005414D02*
X014717Y005414D01*
X013858Y006498D02*
X024138Y006498D01*
X024138Y006596D02*
X013858Y006596D01*
X013806Y006695D02*
X024138Y006695D01*
X024138Y006793D02*
X012508Y006793D01*
X012508Y006892D02*
X024138Y006892D01*
X024138Y006990D02*
X012508Y006990D01*
X012508Y007089D02*
X024138Y007089D01*
X024138Y007187D02*
X012508Y007187D01*
X012508Y007286D02*
X024138Y007286D01*
X024138Y007384D02*
X012508Y007384D01*
X012508Y007483D02*
X024138Y007483D01*
X024138Y007581D02*
X012508Y007581D01*
X012508Y007680D02*
X024138Y007680D01*
X024138Y007778D02*
X012478Y007778D01*
X012382Y007877D02*
X024138Y007877D01*
X024138Y007975D02*
X011379Y007975D01*
X011280Y008074D02*
X024138Y008074D01*
X024138Y008172D02*
X011182Y008172D01*
X011083Y008271D02*
X024138Y008271D01*
X024138Y008369D02*
X010985Y008369D01*
X010672Y007975D02*
X009294Y007975D01*
X009392Y007877D02*
X010770Y007877D01*
X010869Y007778D02*
X009491Y007778D01*
X009589Y007680D02*
X010967Y007680D01*
X011066Y007581D02*
X009688Y007581D01*
X009777Y007483D02*
X011164Y007483D01*
X012008Y007384D02*
X009808Y007384D01*
X009808Y007286D02*
X012008Y007286D01*
X012008Y007187D02*
X009808Y007187D01*
X009808Y007089D02*
X012008Y007089D01*
X012008Y006990D02*
X009808Y006990D01*
X009808Y006892D02*
X012008Y006892D01*
X012008Y006793D02*
X009808Y006793D01*
X011106Y006695D02*
X011909Y006695D01*
X011858Y006596D02*
X011158Y006596D01*
X010573Y008074D02*
X009195Y008074D01*
X009097Y008172D02*
X010475Y008172D01*
X010376Y008271D02*
X008998Y008271D01*
X008900Y008369D02*
X010278Y008369D01*
X010179Y008468D02*
X008801Y008468D01*
X009588Y009059D02*
X006908Y009059D01*
X006908Y009157D02*
X009490Y009157D01*
X009391Y009256D02*
X006908Y009256D01*
X006908Y009354D02*
X008958Y009354D01*
X008784Y009453D02*
X006908Y009453D01*
X006908Y009551D02*
X008686Y009551D01*
X008640Y009650D02*
X006908Y009650D01*
X006908Y009748D02*
X008599Y009748D01*
X008595Y009847D02*
X006908Y009847D01*
X006908Y009945D02*
X008595Y009945D01*
X008624Y010044D02*
X006908Y010044D01*
X006908Y010142D02*
X008665Y010142D01*
X008746Y010241D02*
X006908Y010241D01*
X006908Y010339D02*
X008867Y010339D01*
X009403Y010339D02*
X011867Y010339D01*
X011746Y010241D02*
X009523Y010241D01*
X009605Y010142D02*
X011665Y010142D01*
X011624Y010044D02*
X009646Y010044D01*
X009675Y009945D02*
X011595Y009945D01*
X011595Y009847D02*
X009675Y009847D01*
X009671Y009748D02*
X011599Y009748D01*
X011640Y009650D02*
X009704Y009650D01*
X009803Y009551D02*
X011686Y009551D01*
X011784Y009453D02*
X009901Y009453D01*
X009687Y008960D02*
X006908Y008960D01*
X006908Y008862D02*
X009785Y008862D01*
X009884Y008763D02*
X006908Y008763D01*
X006908Y008665D02*
X009982Y008665D01*
X010081Y008566D02*
X007135Y008566D01*
X005254Y008566D02*
X002758Y008566D01*
X002758Y008468D02*
X005254Y008468D01*
X005254Y008369D02*
X002758Y008369D01*
X002758Y008271D02*
X005254Y008271D01*
X005254Y008172D02*
X002758Y008172D01*
X002758Y008074D02*
X005254Y008074D01*
X005254Y007975D02*
X002758Y007975D01*
X002758Y007877D02*
X005254Y007877D01*
X005254Y007778D02*
X002758Y007778D01*
X002758Y007680D02*
X005254Y007680D01*
X005254Y007581D02*
X002758Y007581D01*
X002758Y007483D02*
X005254Y007483D01*
X005254Y007384D02*
X002758Y007384D01*
X002758Y007286D02*
X005254Y007286D01*
X005254Y007187D02*
X002758Y007187D01*
X002758Y007089D02*
X005254Y007089D01*
X005262Y006990D02*
X002758Y006990D01*
X002758Y006892D02*
X005317Y006892D01*
X005254Y008665D02*
X002758Y008665D01*
X002758Y008763D02*
X005254Y008763D01*
X005254Y008862D02*
X002758Y008862D01*
X002758Y008960D02*
X005254Y008960D01*
X005254Y009059D02*
X002758Y009059D01*
X002758Y009157D02*
X005254Y009157D01*
X005254Y009256D02*
X002758Y009256D01*
X002758Y009354D02*
X005254Y009354D01*
X005254Y009453D02*
X002758Y009453D01*
X002758Y009551D02*
X005254Y009551D01*
X005254Y009650D02*
X002758Y009650D01*
X002758Y009748D02*
X005254Y009748D01*
X005254Y009847D02*
X002758Y009847D01*
X002758Y009945D02*
X005254Y009945D01*
X005254Y010044D02*
X002758Y010044D01*
X002758Y010142D02*
X005254Y010142D01*
X005254Y010241D02*
X002758Y010241D01*
X002758Y010339D02*
X005254Y010339D01*
X005254Y010438D02*
X002758Y010438D01*
X002758Y010536D02*
X005254Y010536D01*
X005254Y010635D02*
X002758Y010635D01*
X002758Y010733D02*
X005254Y010733D01*
X005254Y010832D02*
X002758Y010832D01*
X002758Y010930D02*
X005254Y010930D01*
X005254Y011029D02*
X002758Y011029D01*
X002758Y011127D02*
X005254Y011127D01*
X005254Y011226D02*
X002758Y011226D01*
X002758Y011324D02*
X005254Y011324D01*
X005254Y011423D02*
X002758Y011423D01*
X002758Y011521D02*
X005254Y011521D01*
X005254Y011620D02*
X002758Y011620D01*
X002758Y011718D02*
X005254Y011718D01*
X005254Y011817D02*
X002758Y011817D01*
X002758Y011915D02*
X005254Y011915D01*
X005254Y012014D02*
X002758Y012014D01*
X002758Y012112D02*
X005254Y012112D01*
X005254Y012211D02*
X002758Y012211D01*
X002758Y012309D02*
X005254Y012309D01*
X005254Y012408D02*
X002758Y012408D01*
X002758Y012506D02*
X005254Y012506D01*
X005254Y012605D02*
X002758Y012605D01*
X002758Y012703D02*
X005254Y012703D01*
X005254Y012802D02*
X002758Y012802D01*
X002758Y012900D02*
X005254Y012900D01*
X005254Y012999D02*
X002758Y012999D01*
X002758Y013097D02*
X005254Y013097D01*
X005254Y013196D02*
X002758Y013196D01*
X002758Y013294D02*
X005254Y013294D01*
X005254Y013393D02*
X002758Y013393D01*
X002758Y013491D02*
X005254Y013491D01*
X005254Y013590D02*
X002758Y013590D01*
X002758Y013688D02*
X005254Y013688D01*
X005254Y013787D02*
X002758Y013787D01*
X002758Y013885D02*
X005254Y013885D01*
X005254Y013984D02*
X002758Y013984D01*
X002758Y014082D02*
X005254Y014082D01*
X005254Y014181D02*
X002758Y014181D01*
X002758Y014279D02*
X005254Y014279D01*
X005254Y014378D02*
X002758Y014378D01*
X002758Y014476D02*
X005254Y014476D01*
X005254Y014575D02*
X002758Y014575D01*
X002758Y014673D02*
X005189Y014673D01*
X005129Y014772D02*
X002758Y014772D01*
X002758Y014870D02*
X005094Y014870D01*
X005094Y014969D02*
X002758Y014969D01*
X002758Y015067D02*
X005094Y015067D01*
X005094Y015166D02*
X002758Y015166D01*
X002758Y015264D02*
X005094Y015264D01*
X005094Y015363D02*
X002758Y015363D01*
X002758Y015461D02*
X005094Y015461D01*
X005119Y015560D02*
X002758Y015560D01*
X002758Y015658D02*
X005164Y015658D01*
X005255Y015757D02*
X002758Y015757D01*
X002758Y015855D02*
X005302Y015855D01*
X005400Y015954D02*
X002758Y015954D01*
X002758Y016052D02*
X005499Y016052D01*
X005597Y016151D02*
X002758Y016151D01*
X002758Y016249D02*
X005696Y016249D01*
X005794Y016348D02*
X002758Y016348D01*
X002758Y016446D02*
X005893Y016446D01*
X005991Y016545D02*
X002758Y016545D01*
X002758Y016643D02*
X006090Y016643D01*
X006188Y016742D02*
X002758Y016742D01*
X002758Y016840D02*
X006287Y016840D01*
X006385Y016939D02*
X002758Y016939D01*
X002758Y017037D02*
X006484Y017037D01*
X006582Y017136D02*
X002758Y017136D01*
X002758Y017234D02*
X006681Y017234D01*
X006779Y017333D02*
X002758Y017333D01*
X002758Y017431D02*
X006878Y017431D01*
X006534Y017628D02*
X006474Y017628D01*
X006474Y017727D02*
X006534Y017727D01*
X006534Y017825D02*
X006474Y017825D01*
X006474Y017924D02*
X006534Y017924D01*
X006534Y018022D02*
X006474Y018022D01*
X006474Y018121D02*
X006534Y018121D01*
X006534Y018219D02*
X006474Y018219D01*
X006474Y018318D02*
X006534Y018318D01*
X006534Y018416D02*
X006474Y018416D01*
X006474Y018515D02*
X006534Y018515D01*
X006534Y018613D02*
X006474Y018613D01*
X006474Y018712D02*
X006534Y018712D01*
X006994Y016840D02*
X008476Y016840D01*
X008413Y016778D02*
X008413Y016778D01*
X008377Y016742D02*
X006895Y016742D01*
X006797Y016643D02*
X008284Y016643D01*
X008284Y016545D02*
X006698Y016545D01*
X006600Y016446D02*
X008284Y016446D01*
X008284Y016348D02*
X006501Y016348D01*
X006403Y016249D02*
X008284Y016249D01*
X008284Y016151D02*
X006304Y016151D01*
X006206Y016052D02*
X008284Y016052D01*
X008284Y015954D02*
X006107Y015954D01*
X006745Y015757D02*
X007263Y015757D01*
X006284Y013097D02*
X005754Y013097D01*
X005754Y012999D02*
X006238Y012999D01*
X006238Y012900D02*
X005754Y012900D01*
X005754Y012802D02*
X006303Y012802D01*
X005754Y012703D02*
X012301Y012703D01*
X012400Y012605D02*
X005754Y012605D01*
X005754Y012506D02*
X012498Y012506D01*
X012597Y012408D02*
X005754Y012408D01*
X005754Y012309D02*
X012695Y012309D01*
X012794Y012211D02*
X005754Y012211D01*
X005754Y012112D02*
X012892Y012112D01*
X012991Y012014D02*
X009856Y012014D01*
X010004Y011915D02*
X013089Y011915D01*
X013188Y011817D02*
X010097Y011817D01*
X010138Y011718D02*
X013286Y011718D01*
X013385Y011620D02*
X010175Y011620D01*
X010175Y011521D02*
X013483Y011521D01*
X013582Y011423D02*
X010175Y011423D01*
X010138Y011324D02*
X013680Y011324D01*
X013779Y011226D02*
X010097Y011226D01*
X010005Y011127D02*
X013877Y011127D01*
X021918Y004331D02*
X022801Y004331D01*
X022801Y004232D02*
X022010Y004232D01*
X022051Y004134D02*
X022801Y004134D01*
X022801Y004035D02*
X022091Y004035D01*
X022103Y003937D02*
X022801Y003937D01*
X022801Y003740D02*
X022098Y003740D01*
X022103Y003838D02*
X023376Y003838D01*
X023376Y003740D02*
X023476Y003740D01*
X023476Y003838D02*
X040358Y003838D01*
X040153Y008074D02*
X035920Y008074D01*
X036100Y008172D02*
X040153Y008172D01*
X040153Y008271D02*
X036198Y008271D01*
X036246Y008369D02*
X040153Y008369D01*
X040153Y008468D02*
X036287Y008468D01*
X036293Y008566D02*
X040153Y008566D01*
X040153Y008665D02*
X036293Y008665D01*
X036265Y008763D02*
X040153Y008763D01*
X040153Y008862D02*
X036225Y008862D01*
X036146Y008960D02*
X040153Y008960D01*
X040153Y009256D02*
X024578Y009256D01*
X024578Y009354D02*
X040153Y009354D01*
X040153Y009453D02*
X024578Y009453D01*
X024578Y009551D02*
X040153Y009551D01*
X040153Y009650D02*
X024578Y009650D01*
X024578Y009748D02*
X040153Y009748D01*
X040153Y009847D02*
X024578Y009847D01*
X024578Y009945D02*
X040153Y009945D01*
X040153Y010044D02*
X024578Y010044D01*
X024578Y010142D02*
X040153Y010142D01*
X040153Y010241D02*
X024578Y010241D01*
X024578Y010339D02*
X040153Y010339D01*
X040153Y010438D02*
X024578Y010438D01*
X024578Y010536D02*
X040153Y010536D01*
X040153Y010635D02*
X024578Y010635D01*
X024578Y010733D02*
X040153Y010733D01*
X040153Y012211D02*
X024578Y012211D01*
X024578Y012309D02*
X040153Y012309D01*
X040153Y012408D02*
X024578Y012408D01*
X024578Y012506D02*
X040153Y012506D01*
X040153Y012605D02*
X024578Y012605D01*
X024578Y012703D02*
X040153Y012703D01*
X040153Y012802D02*
X024578Y012802D01*
X024578Y012900D02*
X040153Y012900D01*
X040153Y012999D02*
X024578Y012999D01*
X024578Y013097D02*
X040153Y013097D01*
X031661Y005414D02*
X031127Y005414D01*
X031127Y005316D02*
X031611Y005316D01*
X031608Y005217D02*
X031127Y005217D01*
X031127Y005119D02*
X031608Y005119D01*
X031608Y005020D02*
X031127Y005020D01*
X031224Y004922D02*
X031529Y004922D01*
X031434Y004823D02*
X031320Y004823D01*
X031361Y004725D02*
X031393Y004725D01*
X031398Y004331D02*
X031355Y004331D01*
X031310Y004232D02*
X031443Y004232D01*
X031542Y004134D02*
X031212Y004134D01*
X031031Y004035D02*
X031722Y004035D01*
X032031Y004035D02*
X032722Y004035D01*
X032542Y004134D02*
X032212Y004134D01*
X032310Y004232D02*
X032443Y004232D01*
X032398Y004331D02*
X032355Y004331D01*
X030722Y004035D02*
X030031Y004035D01*
X030212Y004134D02*
X030542Y004134D01*
X030443Y004232D02*
X030310Y004232D01*
X030355Y004331D02*
X030398Y004331D01*
X029722Y004035D02*
X029031Y004035D01*
X029212Y004134D02*
X029542Y004134D01*
X029443Y004232D02*
X029310Y004232D01*
X029355Y004331D02*
X029398Y004331D01*
X028722Y004035D02*
X024051Y004035D01*
X024051Y004134D02*
X028542Y004134D01*
X028443Y004232D02*
X024051Y004232D01*
X024051Y004331D02*
X026399Y004331D01*
X027316Y004331D02*
X027711Y004331D01*
X028004Y004331D02*
X028398Y004331D01*
X028357Y004429D02*
X028136Y004429D01*
X028192Y004528D02*
X028357Y004528D01*
X028357Y004626D02*
X028216Y004626D01*
X028216Y004725D02*
X028332Y004725D01*
X028234Y004823D02*
X028177Y004823D01*
X028135Y004922D02*
X028100Y004922D01*
X024051Y003384D02*
X024041Y003346D01*
X023476Y003346D02*
X023376Y003346D01*
X023376Y003444D02*
X023476Y003444D01*
X023476Y003543D02*
X023376Y003543D01*
X023376Y003641D02*
X023476Y003641D01*
X022801Y003641D02*
X022057Y003641D01*
X022017Y003543D02*
X022801Y003543D01*
X033468Y022652D02*
X033873Y022652D01*
X033775Y022750D02*
X033369Y022750D01*
X033271Y022849D02*
X033676Y022849D01*
X033578Y022947D02*
X033172Y022947D01*
X033074Y023046D02*
X033479Y023046D01*
X033381Y023144D02*
X032975Y023144D01*
X032877Y023243D02*
X033282Y023243D01*
X033184Y023341D02*
X032778Y023341D01*
X032714Y023440D02*
X032680Y023440D01*
X033047Y023440D02*
X033085Y023440D01*
X033421Y024031D02*
X040153Y024031D01*
X040153Y024129D02*
X033393Y024129D01*
X033352Y024228D02*
X040153Y024228D01*
X040153Y024326D02*
X033273Y024326D01*
X033158Y024425D02*
X040153Y024425D01*
X040153Y024523D02*
X022889Y024523D01*
X022988Y024425D02*
X028587Y024425D01*
X028472Y024326D02*
X023086Y024326D01*
X023185Y024228D02*
X028393Y024228D01*
X028352Y024129D02*
X023283Y024129D01*
X023382Y024031D02*
X028325Y024031D01*
X028325Y023932D02*
X023480Y023932D01*
X023579Y023834D02*
X028331Y023834D01*
X028371Y023735D02*
X023677Y023735D01*
X023776Y023637D02*
X028420Y023637D01*
X028518Y023538D02*
X023874Y023538D01*
X023973Y023440D02*
X028698Y023440D01*
X029031Y023440D02*
X029726Y023440D01*
X029546Y023538D02*
X029211Y023538D01*
X029310Y023637D02*
X029447Y023637D01*
X029399Y023735D02*
X029358Y023735D01*
X029377Y024129D02*
X029380Y024129D01*
X029421Y024228D02*
X029336Y024228D01*
X029258Y024326D02*
X029500Y024326D01*
X029615Y024425D02*
X029143Y024425D01*
X030170Y024425D02*
X031575Y024425D01*
X031460Y024326D02*
X030285Y024326D01*
X030364Y024228D02*
X031381Y024228D01*
X031341Y024129D02*
X030405Y024129D01*
X030432Y024031D02*
X031313Y024031D01*
X031313Y023932D02*
X030432Y023932D01*
X030427Y023834D02*
X031319Y023834D01*
X032131Y024425D02*
X032603Y024425D01*
X032488Y024326D02*
X032246Y024326D01*
X032325Y024228D02*
X032409Y024228D01*
X032368Y024129D02*
X032365Y024129D01*
X040153Y024622D02*
X022791Y024622D01*
X022692Y024720D02*
X040153Y024720D01*
X040153Y024819D02*
X022594Y024819D01*
X022495Y024917D02*
X040153Y024917D01*
X040153Y025016D02*
X022397Y025016D01*
X022298Y025114D02*
X040153Y025114D01*
X040153Y025213D02*
X022200Y025213D01*
X022101Y025311D02*
X040153Y025311D01*
X040153Y025410D02*
X022003Y025410D01*
X021904Y025508D02*
X040153Y025508D01*
X040153Y025607D02*
X021806Y025607D01*
X021707Y025705D02*
X040153Y025705D01*
X040153Y025804D02*
X021609Y025804D01*
X021510Y025902D02*
X040153Y025902D01*
X040153Y026001D02*
X021412Y026001D01*
X021313Y026099D02*
X040153Y026099D01*
X040153Y026198D02*
X021215Y026198D01*
X021116Y026296D02*
X040153Y026296D01*
X040358Y029941D02*
X038098Y029941D01*
X038191Y030034D02*
X038191Y030034D01*
X038196Y030039D02*
X040358Y030039D01*
X040358Y030138D02*
X038295Y030138D01*
X024776Y029350D02*
X024676Y029350D01*
X024676Y029251D02*
X024776Y029251D01*
X024776Y029153D02*
X024676Y029153D01*
X024676Y029054D02*
X024776Y029054D01*
X024776Y028956D02*
X024676Y028956D01*
X024676Y028660D02*
X024776Y028660D01*
X024776Y028562D02*
X024676Y028562D01*
X024676Y028463D02*
X024776Y028463D01*
X024776Y028365D02*
X024676Y028365D01*
X024211Y028365D02*
X022994Y028365D01*
X023137Y028463D02*
X024176Y028463D01*
X024176Y028562D02*
X023220Y028562D01*
X023271Y028660D02*
X024176Y028660D01*
X024176Y028759D02*
X023298Y028759D01*
X023300Y028956D02*
X024176Y028956D01*
X024176Y029054D02*
X023273Y029054D01*
X023226Y029153D02*
X024176Y029153D01*
X024176Y029251D02*
X023146Y029251D01*
X023011Y029350D02*
X024204Y029350D01*
X020592Y026198D02*
X002758Y026198D01*
X002758Y026296D02*
X020494Y026296D01*
X020691Y026099D02*
X002758Y026099D01*
X002758Y026001D02*
X020789Y026001D01*
X017696Y028759D02*
X002558Y028759D01*
X002558Y028857D02*
X017696Y028857D01*
X017700Y028956D02*
X002558Y028956D01*
X002558Y029054D02*
X017740Y029054D01*
X017781Y029153D02*
X002558Y029153D01*
X002558Y029251D02*
X017877Y029251D01*
X018020Y029350D02*
X002558Y029350D01*
X008039Y024228D02*
X009479Y024228D01*
X009439Y024129D02*
X007940Y024129D01*
X007842Y024031D02*
X009400Y024031D01*
X009400Y023932D02*
X007743Y023932D01*
X007645Y023834D02*
X009400Y023834D01*
X009435Y023735D02*
X007546Y023735D01*
X007448Y023637D02*
X009476Y023637D01*
X009565Y023538D02*
X007349Y023538D01*
X007251Y023440D02*
X009707Y023440D01*
X009574Y024326D02*
X008137Y024326D01*
X007152Y023341D02*
X013258Y023341D01*
X013357Y023243D02*
X007054Y023243D01*
D21*
X025258Y020458D03*
X015958Y009358D03*
X027858Y004658D03*
X031458Y006858D03*
M02*
