%
M48
M72
T01C0.0236
T02C0.0320
T03C0.0354
T04C0.0394
T05C0.0512
T06C0.1102
%
T01
X15958Y9358
X27858Y4658
X31458Y6858
X25258Y20458
T02
X25306Y18491
X24306Y18491
X26306Y18491
X27306Y18491
X28306Y18491
X29306Y18491
X30306Y18491
X31306Y18491
X34235Y18703
X34235Y17703
X34235Y16703
X34235Y15703
X34235Y14703
X34235Y13703
X37235Y13703
X37235Y14703
X37235Y15703
X37235Y16703
X37235Y17703
X37235Y18703
X37235Y19703
X37235Y20703
X34235Y20703
X34235Y19703
X31306Y15491
X30306Y15491
X29306Y15491
X28306Y15491
X27306Y15491
X26306Y15491
X25306Y15491
X24306Y15491
X18833Y15310
X18833Y16310
X18833Y17310
X18833Y18310
X18833Y19310
X18833Y20310
X15833Y20310
X15833Y19310
X15833Y18310
X15833Y17310
X15833Y16310
X15833Y15310
X15833Y14310
X15833Y13310
X18833Y13310
X18833Y14310
X12504Y15178
X11504Y15178
X10504Y15178
X9504Y15178
X8504Y15178
X7504Y15178
X6504Y15178
X5504Y15178
X5504Y18178
X6504Y18178
X7504Y18178
X8504Y18178
X9504Y18178
X10504Y18178
X11504Y18178
X12504Y18178
T03
X12971Y23940
X14014Y23940
X10983Y23928
X9940Y23928
X9940Y26928
X10983Y26928
X12971Y26940
X14014Y26940
X28865Y26955
X29892Y26955
X31853Y26955
X32881Y26955
X32881Y23955
X31853Y23955
X29892Y23955
X28865Y23955
X33753Y11540
X33753Y8540
X35753Y8589
X35753Y5589
X29288Y8429
X29288Y11429
X14871Y8935
X12135Y9866
X9635Y11521
X9135Y9866
X6635Y11521
X14871Y5935
T04
X13995Y4534
X12995Y4534
X11995Y4534
X10995Y4534
X9995Y4534
X28877Y4534
X29877Y4534
X30877Y4534
X31877Y4534
X32877Y4534
X32877Y28196
X31877Y28196
X30877Y28196
X29877Y28196
X28877Y28196
X13995Y28196
X12995Y28196
X11995Y28196
X10995Y28196
X9995Y28196
T05
X18266Y28835
X20235Y28835
X22758Y28862
X24726Y28862
X23426Y3879
X21458Y3879
X19489Y3879
T06
X1770Y1770
X1770Y30904
X41140Y30904
X41140Y1770
M30
