G75*
%MOIN*%
%OFA0B0*%
%FSLAX24Y24*%
%IPPOS*%
%LPD*%
%AMOC8*
5,1,8,0,0,1.08239X$1,22.5*
%
%ADD10C,0.0080*%
%ADD11C,0.0120*%
%ADD12C,0.0090*%
%ADD13C,0.0060*%
%ADD14C,0.0050*%
%ADD15C,0.0100*%
%ADD16R,0.0460X0.1280*%
%ADD17R,0.0430X0.0230*%
%ADD18R,0.0450X0.1260*%
%ADD19R,0.0490X0.1100*%
%ADD20R,0.0430X0.2070*%
%ADD21R,0.0450X0.1510*%
%ADD22R,0.0440X0.1200*%
%ADD23R,0.0160X0.0460*%
%ADD24R,0.0160X0.0120*%
%ADD25R,0.0150X0.0620*%
%ADD26R,0.0150X0.0530*%
%ADD27R,0.0150X0.0460*%
%ADD28R,0.0150X0.0390*%
%ADD29R,0.0150X0.0570*%
%ADD30R,0.0080X0.0130*%
%ADD31R,0.0060X0.0130*%
%ADD32R,0.0150X0.0650*%
%ADD33R,0.0150X0.0470*%
%ADD34R,0.0160X0.0130*%
%ADD35R,0.0150X0.0490*%
%ADD36R,0.0050X0.0130*%
%ADD37R,0.0170X0.0460*%
%ADD38R,0.0180X0.0120*%
%ADD39R,0.0150X0.0380*%
%ADD40R,0.0420X0.0880*%
%ADD41R,0.1270X0.0250*%
%ADD42R,0.0410X0.0090*%
%ADD43R,0.0150X0.0350*%
%ADD44R,0.0060X0.0770*%
D10*
X007298Y006768D02*
X007298Y006908D01*
X007368Y006978D01*
X007508Y006978D01*
X007508Y006838D01*
X007648Y006978D02*
X007718Y006908D01*
X007718Y006768D01*
X007648Y006698D01*
X007368Y006698D01*
X007298Y006768D01*
X007298Y007158D02*
X007578Y007158D01*
X007438Y007158D02*
X007578Y007298D01*
X007578Y007368D01*
X007718Y008137D02*
X007718Y008348D01*
X007648Y008418D01*
X007508Y008418D01*
X007438Y008348D01*
X007438Y008137D01*
X007298Y008137D02*
X007718Y008137D01*
X007438Y008277D02*
X007298Y008418D01*
X009191Y007078D02*
X009261Y007078D01*
X009401Y006938D01*
X009401Y006798D02*
X009401Y007078D01*
X009582Y007148D02*
X009652Y007218D01*
X009792Y007218D01*
X009862Y007148D01*
X009862Y006868D01*
X009792Y006798D01*
X009652Y006798D01*
X009582Y006868D01*
X009582Y007008D01*
X009722Y007008D01*
X010698Y007008D02*
X010768Y006938D01*
X010978Y006938D01*
X010838Y006938D02*
X010698Y006798D01*
X010698Y007008D02*
X010698Y007148D01*
X010768Y007218D01*
X010978Y007218D01*
X010978Y006798D01*
X011791Y007078D02*
X011861Y007078D01*
X012001Y006938D01*
X012001Y006798D02*
X012001Y007078D01*
X012182Y007148D02*
X012252Y007218D01*
X012392Y007218D01*
X012462Y007148D01*
X012462Y006868D01*
X012392Y006798D01*
X012252Y006798D01*
X012182Y006868D01*
X012182Y007008D01*
X012322Y007008D01*
X013398Y007008D02*
X013468Y006938D01*
X013678Y006938D01*
X013538Y006938D02*
X013398Y006798D01*
X013398Y007008D02*
X013398Y007148D01*
X013468Y007218D01*
X013678Y007218D01*
X013678Y006798D01*
X014571Y006435D02*
X014571Y008435D01*
X014871Y008435D01*
X014871Y008535D01*
X014871Y008435D02*
X015171Y008435D01*
X015171Y006435D01*
X014871Y006435D01*
X014871Y006335D01*
X014871Y006435D02*
X014571Y006435D01*
X018269Y005533D02*
X018269Y002974D01*
X024647Y002974D01*
X024647Y005533D01*
X018269Y005533D01*
X018596Y005898D02*
X018456Y006038D01*
X018456Y006318D01*
X018737Y006318D02*
X018737Y006038D01*
X018596Y005898D01*
X018917Y005898D02*
X019197Y005898D01*
X018917Y006178D01*
X018917Y006248D01*
X018987Y006318D01*
X019127Y006318D01*
X019197Y006248D01*
X019517Y006318D02*
X019517Y005898D01*
X019657Y005898D02*
X019377Y005898D01*
X019657Y006178D02*
X019517Y006318D01*
X019837Y006108D02*
X020118Y006108D01*
X019978Y006248D02*
X019978Y005968D01*
X020817Y006318D02*
X021097Y006318D01*
X020957Y006318D02*
X020957Y005898D01*
X021277Y005968D02*
X021347Y005898D01*
X021487Y005898D01*
X021557Y005968D01*
X021487Y006108D02*
X021347Y006108D01*
X021277Y006038D01*
X021277Y005968D01*
X021487Y006108D02*
X021557Y006178D01*
X021557Y006248D01*
X021487Y006318D01*
X021347Y006318D01*
X021277Y006248D01*
X021737Y006248D02*
X021737Y006108D01*
X021808Y006038D01*
X022018Y006038D01*
X022018Y005898D02*
X022018Y006318D01*
X021808Y006318D01*
X021737Y006248D01*
X021878Y006038D02*
X021737Y005898D01*
X023017Y005968D02*
X023017Y006248D01*
X023087Y006318D01*
X023297Y006318D01*
X023297Y005898D01*
X023087Y005898D01*
X023017Y005968D01*
X023477Y005898D02*
X023477Y006318D01*
X023757Y006318D02*
X023477Y005898D01*
X023757Y005898D02*
X023757Y006318D01*
X023937Y006248D02*
X024008Y006318D01*
X024148Y006318D01*
X024218Y006248D01*
X024218Y005968D01*
X024148Y005898D01*
X024008Y005898D01*
X023937Y005968D01*
X023937Y006108D01*
X024078Y006108D01*
X025898Y006118D02*
X026038Y005977D01*
X026038Y006048D02*
X026038Y005837D01*
X025898Y005837D02*
X026318Y005837D01*
X026318Y006048D01*
X026248Y006118D01*
X026108Y006118D01*
X026038Y006048D01*
X026178Y005068D02*
X026178Y004998D01*
X026038Y004858D01*
X025898Y004858D02*
X026178Y004858D01*
X026248Y004678D02*
X026318Y004608D01*
X026318Y004468D01*
X026248Y004398D01*
X025968Y004398D01*
X025898Y004468D01*
X025898Y004608D01*
X025968Y004678D01*
X026108Y004678D01*
X026108Y004538D01*
X024647Y002974D02*
X024647Y002580D01*
X018269Y002580D01*
X018269Y002974D01*
X011631Y009570D02*
X009631Y009570D01*
X009631Y009870D01*
X009531Y009870D01*
X009631Y009870D02*
X009631Y010170D01*
X011631Y010170D01*
X011631Y009870D01*
X011731Y009870D01*
X011631Y009870D02*
X011631Y009570D01*
X009151Y011225D02*
X009151Y011525D01*
X009251Y011525D01*
X009151Y011525D02*
X009151Y011825D01*
X007151Y011825D01*
X007151Y011525D01*
X007051Y011525D01*
X007151Y011525D02*
X007151Y011225D01*
X009151Y011225D01*
X013004Y015528D02*
X005004Y015528D01*
X005004Y016278D01*
X005004Y017078D02*
X005004Y017828D01*
X013004Y017828D01*
X013004Y015528D01*
X016183Y012810D02*
X016933Y012810D01*
X016183Y012810D02*
X016183Y020810D01*
X018483Y020810D01*
X018483Y012810D01*
X017733Y012810D01*
X023806Y015841D02*
X023806Y016591D01*
X023806Y015841D02*
X031806Y015841D01*
X031806Y018141D01*
X023806Y018141D01*
X023806Y017391D01*
X028983Y010940D02*
X029283Y010940D01*
X029283Y011040D01*
X029283Y010940D02*
X029583Y010940D01*
X029583Y008940D01*
X029283Y008940D01*
X029283Y008840D01*
X029283Y008940D02*
X028983Y008940D01*
X028983Y010940D01*
X032398Y007848D02*
X032398Y007708D01*
X032468Y007638D01*
X032678Y007638D01*
X032538Y007638D02*
X032398Y007498D01*
X032678Y007498D02*
X032678Y007918D01*
X032468Y007918D01*
X032398Y007848D01*
X033491Y007778D02*
X033561Y007778D01*
X033701Y007638D01*
X033701Y007498D02*
X033701Y007778D01*
X033882Y007848D02*
X033952Y007918D01*
X034092Y007918D01*
X034162Y007848D01*
X034162Y007568D01*
X034092Y007498D01*
X033952Y007498D01*
X033882Y007568D01*
X033882Y007708D01*
X034022Y007708D01*
X035453Y008089D02*
X035753Y008089D01*
X035753Y008189D01*
X035753Y008089D02*
X036053Y008089D01*
X036053Y006089D01*
X035753Y006089D01*
X035753Y005989D01*
X035753Y006089D02*
X035453Y006089D01*
X035453Y008089D01*
X034058Y009049D02*
X033758Y009049D01*
X033758Y008949D01*
X033758Y009049D02*
X033458Y009049D01*
X033458Y011049D01*
X033758Y011049D01*
X033758Y011149D01*
X033758Y011049D02*
X034058Y011049D01*
X034058Y009049D01*
X030678Y006318D02*
X030468Y006318D01*
X030398Y006248D01*
X030398Y006108D01*
X030468Y006038D01*
X030678Y006038D01*
X030538Y006038D02*
X030398Y005898D01*
X030678Y005898D02*
X030678Y006318D01*
X029462Y006248D02*
X029462Y005968D01*
X029392Y005898D01*
X029252Y005898D01*
X029182Y005968D01*
X029182Y006108D01*
X029322Y006108D01*
X029462Y006248D02*
X029392Y006318D01*
X029252Y006318D01*
X029182Y006248D01*
X029001Y006178D02*
X029001Y005898D01*
X029001Y006038D02*
X028861Y006178D01*
X028791Y006178D01*
X034585Y013203D02*
X035335Y013203D01*
X034585Y013203D02*
X034585Y021203D01*
X036885Y021203D01*
X036885Y013203D01*
X036135Y013203D01*
X032881Y024355D02*
X032881Y024455D01*
X032581Y024455D01*
X032581Y026455D01*
X032881Y026455D01*
X032881Y026555D01*
X032881Y026455D02*
X033181Y026455D01*
X033181Y024455D01*
X032881Y024455D01*
X032153Y024455D02*
X031853Y024455D01*
X031853Y024355D01*
X031853Y024455D02*
X031553Y024455D01*
X031553Y026455D01*
X031853Y026455D01*
X031853Y026555D01*
X031853Y026455D02*
X032153Y026455D01*
X032153Y024455D01*
X030192Y024455D02*
X029892Y024455D01*
X029892Y024355D01*
X029892Y024455D02*
X029592Y024455D01*
X029592Y026455D01*
X029892Y026455D01*
X029892Y026555D01*
X029892Y026455D02*
X030192Y026455D01*
X030192Y024455D01*
X029165Y024455D02*
X028865Y024455D01*
X028865Y024355D01*
X028865Y024455D02*
X028565Y024455D01*
X028565Y026455D01*
X028865Y026455D01*
X028865Y026555D01*
X028865Y026455D02*
X029165Y026455D01*
X029165Y024455D01*
X025947Y027208D02*
X025947Y029767D01*
X021537Y029767D01*
X021537Y030161D01*
X025947Y030161D01*
X025947Y029767D01*
X025947Y027208D02*
X021537Y027208D01*
X021537Y029767D01*
X021455Y029740D02*
X017046Y029740D01*
X017046Y030134D01*
X021455Y030134D01*
X021455Y029740D01*
X021455Y027181D01*
X017046Y027181D01*
X017046Y029740D01*
X018208Y026918D02*
X018137Y026848D01*
X018137Y026778D01*
X018208Y026708D01*
X018418Y026708D01*
X018418Y026498D02*
X018418Y026918D01*
X018208Y026918D01*
X018208Y026708D02*
X018137Y026638D01*
X018137Y026568D01*
X018208Y026498D01*
X018418Y026498D01*
X017957Y026498D02*
X017957Y026778D01*
X017817Y026778D02*
X017747Y026778D01*
X017817Y026778D02*
X017957Y026638D01*
X019740Y026778D02*
X019950Y026638D01*
X019740Y026498D01*
X019950Y026498D02*
X019950Y026918D01*
X020187Y026918D02*
X020187Y026498D01*
X020257Y026498D02*
X020117Y026498D01*
X020437Y026568D02*
X020508Y026498D01*
X020718Y026498D01*
X020718Y026918D01*
X020508Y026918D01*
X020437Y026848D01*
X020437Y026778D01*
X020508Y026708D01*
X020718Y026708D01*
X020508Y026708D02*
X020437Y026638D01*
X020437Y026568D01*
X020257Y026918D02*
X020187Y026918D01*
X022377Y026708D02*
X022377Y026498D01*
X022377Y026708D02*
X022447Y026778D01*
X022587Y026778D01*
X022657Y026708D01*
X022657Y026918D02*
X022657Y026498D01*
X022837Y026498D02*
X022837Y026918D01*
X023118Y026918D02*
X023118Y026498D01*
X022978Y026638D01*
X022837Y026498D01*
X024417Y026398D02*
X024557Y026398D01*
X024487Y026398D02*
X024487Y026818D01*
X024557Y026818D01*
X024737Y026748D02*
X024808Y026818D01*
X025018Y026818D01*
X025018Y026398D01*
X024808Y026398D01*
X024737Y026468D01*
X024737Y026538D01*
X024808Y026608D01*
X025018Y026608D01*
X024808Y026608D02*
X024737Y026678D01*
X024737Y026748D01*
X014314Y026440D02*
X014314Y024440D01*
X014014Y024440D01*
X014014Y024340D01*
X014014Y024440D02*
X013714Y024440D01*
X013714Y026440D01*
X014014Y026440D01*
X014014Y026540D01*
X014014Y026440D02*
X014314Y026440D01*
X013271Y026440D02*
X013271Y024440D01*
X012971Y024440D01*
X012971Y024340D01*
X012971Y024440D02*
X012671Y024440D01*
X012671Y026440D01*
X012971Y026440D01*
X012971Y026540D01*
X012971Y026440D02*
X013271Y026440D01*
X011283Y026428D02*
X011283Y024428D01*
X010983Y024428D01*
X010983Y024328D01*
X010983Y024428D02*
X010683Y024428D01*
X010683Y026428D01*
X010983Y026428D01*
X010983Y026528D01*
X010983Y026428D02*
X011283Y026428D01*
X010240Y026428D02*
X010240Y024428D01*
X009940Y024428D01*
X009940Y024328D01*
X009940Y024428D02*
X009640Y024428D01*
X009640Y026428D01*
X009940Y026428D01*
X009940Y026528D01*
X009940Y026428D02*
X010240Y026428D01*
D11*
X005004Y017078D02*
X005043Y017076D01*
X005082Y017070D01*
X005120Y017061D01*
X005157Y017048D01*
X005193Y017031D01*
X005226Y017011D01*
X005258Y016987D01*
X005287Y016961D01*
X005313Y016932D01*
X005337Y016900D01*
X005357Y016867D01*
X005374Y016831D01*
X005387Y016794D01*
X005396Y016756D01*
X005402Y016717D01*
X005404Y016678D01*
X005402Y016639D01*
X005396Y016600D01*
X005387Y016562D01*
X005374Y016525D01*
X005357Y016489D01*
X005337Y016456D01*
X005313Y016424D01*
X005287Y016395D01*
X005258Y016369D01*
X005226Y016345D01*
X005193Y016325D01*
X005157Y016308D01*
X005120Y016295D01*
X005082Y016286D01*
X005043Y016280D01*
X005004Y016278D01*
X005043Y016280D01*
X005082Y016286D01*
X005120Y016295D01*
X005157Y016308D01*
X005193Y016325D01*
X005226Y016345D01*
X005258Y016369D01*
X005287Y016395D01*
X005313Y016424D01*
X005337Y016456D01*
X005357Y016489D01*
X005374Y016525D01*
X005387Y016562D01*
X005396Y016600D01*
X005402Y016639D01*
X005404Y016678D01*
X005402Y016717D01*
X005396Y016756D01*
X005387Y016794D01*
X005374Y016831D01*
X005357Y016867D01*
X005337Y016900D01*
X005313Y016932D01*
X005287Y016961D01*
X005258Y016987D01*
X005226Y017011D01*
X005193Y017031D01*
X005157Y017048D01*
X005120Y017061D01*
X005082Y017070D01*
X005043Y017076D01*
X005004Y017078D01*
X016933Y012810D02*
X016935Y012849D01*
X016941Y012888D01*
X016950Y012926D01*
X016963Y012963D01*
X016980Y012999D01*
X017000Y013032D01*
X017024Y013064D01*
X017050Y013093D01*
X017079Y013119D01*
X017111Y013143D01*
X017144Y013163D01*
X017180Y013180D01*
X017217Y013193D01*
X017255Y013202D01*
X017294Y013208D01*
X017333Y013210D01*
X017372Y013208D01*
X017411Y013202D01*
X017449Y013193D01*
X017486Y013180D01*
X017522Y013163D01*
X017555Y013143D01*
X017587Y013119D01*
X017616Y013093D01*
X017642Y013064D01*
X017666Y013032D01*
X017686Y012999D01*
X017703Y012963D01*
X017716Y012926D01*
X017725Y012888D01*
X017731Y012849D01*
X017733Y012810D01*
X017731Y012849D01*
X017725Y012888D01*
X017716Y012926D01*
X017703Y012963D01*
X017686Y012999D01*
X017666Y013032D01*
X017642Y013064D01*
X017616Y013093D01*
X017587Y013119D01*
X017555Y013143D01*
X017522Y013163D01*
X017486Y013180D01*
X017449Y013193D01*
X017411Y013202D01*
X017372Y013208D01*
X017333Y013210D01*
X017294Y013208D01*
X017255Y013202D01*
X017217Y013193D01*
X017180Y013180D01*
X017144Y013163D01*
X017111Y013143D01*
X017079Y013119D01*
X017050Y013093D01*
X017024Y013064D01*
X017000Y013032D01*
X016980Y012999D01*
X016963Y012963D01*
X016950Y012926D01*
X016941Y012888D01*
X016935Y012849D01*
X016933Y012810D01*
X023806Y016591D02*
X023845Y016593D01*
X023884Y016599D01*
X023922Y016608D01*
X023959Y016621D01*
X023995Y016638D01*
X024028Y016658D01*
X024060Y016682D01*
X024089Y016708D01*
X024115Y016737D01*
X024139Y016769D01*
X024159Y016802D01*
X024176Y016838D01*
X024189Y016875D01*
X024198Y016913D01*
X024204Y016952D01*
X024206Y016991D01*
X024204Y017030D01*
X024198Y017069D01*
X024189Y017107D01*
X024176Y017144D01*
X024159Y017180D01*
X024139Y017213D01*
X024115Y017245D01*
X024089Y017274D01*
X024060Y017300D01*
X024028Y017324D01*
X023995Y017344D01*
X023959Y017361D01*
X023922Y017374D01*
X023884Y017383D01*
X023845Y017389D01*
X023806Y017391D01*
X023845Y017389D01*
X023884Y017383D01*
X023922Y017374D01*
X023959Y017361D01*
X023995Y017344D01*
X024028Y017324D01*
X024060Y017300D01*
X024089Y017274D01*
X024115Y017245D01*
X024139Y017213D01*
X024159Y017180D01*
X024176Y017144D01*
X024189Y017107D01*
X024198Y017069D01*
X024204Y017030D01*
X024206Y016991D01*
X024204Y016952D01*
X024198Y016913D01*
X024189Y016875D01*
X024176Y016838D01*
X024159Y016802D01*
X024139Y016769D01*
X024115Y016737D01*
X024089Y016708D01*
X024060Y016682D01*
X024028Y016658D01*
X023995Y016638D01*
X023959Y016621D01*
X023922Y016608D01*
X023884Y016599D01*
X023845Y016593D01*
X023806Y016591D01*
X035335Y013203D02*
X035337Y013242D01*
X035343Y013281D01*
X035352Y013319D01*
X035365Y013356D01*
X035382Y013392D01*
X035402Y013425D01*
X035426Y013457D01*
X035452Y013486D01*
X035481Y013512D01*
X035513Y013536D01*
X035546Y013556D01*
X035582Y013573D01*
X035619Y013586D01*
X035657Y013595D01*
X035696Y013601D01*
X035735Y013603D01*
X035774Y013601D01*
X035813Y013595D01*
X035851Y013586D01*
X035888Y013573D01*
X035924Y013556D01*
X035957Y013536D01*
X035989Y013512D01*
X036018Y013486D01*
X036044Y013457D01*
X036068Y013425D01*
X036088Y013392D01*
X036105Y013356D01*
X036118Y013319D01*
X036127Y013281D01*
X036133Y013242D01*
X036135Y013203D01*
X036133Y013242D01*
X036127Y013281D01*
X036118Y013319D01*
X036105Y013356D01*
X036088Y013392D01*
X036068Y013425D01*
X036044Y013457D01*
X036018Y013486D01*
X035989Y013512D01*
X035957Y013536D01*
X035924Y013556D01*
X035888Y013573D01*
X035851Y013586D01*
X035813Y013595D01*
X035774Y013601D01*
X035735Y013603D01*
X035696Y013601D01*
X035657Y013595D01*
X035619Y013586D01*
X035582Y013573D01*
X035546Y013556D01*
X035513Y013536D01*
X035481Y013512D01*
X035452Y013486D01*
X035426Y013457D01*
X035402Y013425D01*
X035382Y013392D01*
X035365Y013356D01*
X035352Y013319D01*
X035343Y013281D01*
X035337Y013242D01*
X035335Y013203D01*
D12*
X035621Y015593D02*
X035543Y015672D01*
X035543Y015828D01*
X035621Y015907D01*
X036013Y015907D01*
X036013Y016109D02*
X035543Y016109D01*
X035543Y016422D01*
X035543Y016625D02*
X036013Y016625D01*
X035543Y016938D01*
X036013Y016938D01*
X035935Y017140D02*
X036013Y017219D01*
X036013Y017375D01*
X035935Y017454D01*
X035856Y017454D01*
X035543Y017140D01*
X035543Y017454D01*
X035621Y017656D02*
X035543Y017734D01*
X035543Y017891D01*
X035621Y017969D01*
X035935Y017969D01*
X035621Y017656D01*
X035935Y017656D01*
X036013Y017734D01*
X036013Y017891D01*
X035935Y017969D01*
X035935Y018171D02*
X036013Y018250D01*
X036013Y018407D01*
X035935Y018485D01*
X035621Y018171D01*
X035543Y018250D01*
X035543Y018407D01*
X035621Y018485D01*
X035935Y018485D01*
X035778Y018687D02*
X035778Y019001D01*
X035543Y018922D02*
X036013Y018922D01*
X035778Y018687D01*
X035621Y018171D02*
X035935Y018171D01*
X036013Y015593D02*
X035621Y015593D01*
X029313Y016781D02*
X029234Y016703D01*
X029078Y016703D01*
X028999Y016781D01*
X028797Y016703D02*
X028562Y016703D01*
X028483Y016781D01*
X028483Y017095D01*
X028562Y017173D01*
X028797Y017173D01*
X028797Y016703D01*
X028999Y017095D02*
X029078Y017173D01*
X029234Y017173D01*
X029313Y017095D01*
X029313Y016781D01*
X028281Y016938D02*
X027968Y016938D01*
X028046Y017173D02*
X028281Y016938D01*
X028046Y016703D02*
X028046Y017173D01*
X027766Y017095D02*
X027766Y016781D01*
X027452Y017095D01*
X027452Y016781D01*
X027531Y016703D01*
X027687Y016703D01*
X027766Y016781D01*
X027766Y017095D02*
X027687Y017173D01*
X027531Y017173D01*
X027452Y017095D01*
X027250Y017095D02*
X027172Y017173D01*
X027015Y017173D01*
X026937Y017095D01*
X026937Y017016D01*
X027250Y016703D01*
X026937Y016703D01*
X026735Y016781D02*
X026656Y016703D01*
X026499Y016703D01*
X026421Y016781D01*
X026421Y016860D01*
X026499Y016938D01*
X026735Y016938D01*
X026735Y016781D01*
X026735Y016938D02*
X026578Y017095D01*
X026421Y017173D01*
X017513Y017134D02*
X017513Y017291D01*
X017435Y017369D01*
X017121Y017056D01*
X017043Y017134D01*
X017043Y017291D01*
X017121Y017369D01*
X017435Y017369D01*
X017435Y017571D02*
X017513Y017650D01*
X017513Y017807D01*
X017435Y017885D01*
X017121Y017571D01*
X017043Y017650D01*
X017043Y017807D01*
X017121Y017885D01*
X017435Y017885D01*
X017278Y018087D02*
X017278Y018401D01*
X017513Y018322D02*
X017278Y018087D01*
X017043Y018322D02*
X017513Y018322D01*
X017435Y017571D02*
X017121Y017571D01*
X017121Y017056D02*
X017435Y017056D01*
X017513Y017134D01*
X017435Y016854D02*
X017513Y016775D01*
X017513Y016619D01*
X017435Y016540D01*
X017513Y016338D02*
X017043Y016338D01*
X017513Y016025D01*
X017043Y016025D01*
X017043Y015822D02*
X017043Y015509D01*
X017513Y015509D01*
X017513Y015307D02*
X017121Y015307D01*
X017043Y015228D01*
X017043Y015072D01*
X017121Y014993D01*
X017513Y014993D01*
X017043Y016540D02*
X017356Y016854D01*
X017435Y016854D01*
X017043Y016854D02*
X017043Y016540D01*
X010313Y016481D02*
X010234Y016403D01*
X010078Y016403D01*
X009999Y016481D01*
X009797Y016403D02*
X009797Y016873D01*
X009562Y016873D01*
X009483Y016795D01*
X009483Y016481D01*
X009562Y016403D01*
X009797Y016403D01*
X009999Y016795D02*
X010078Y016873D01*
X010234Y016873D01*
X010313Y016795D01*
X010313Y016481D01*
X009281Y016638D02*
X008968Y016638D01*
X009046Y016873D02*
X009281Y016638D01*
X009046Y016403D02*
X009046Y016873D01*
X008766Y016795D02*
X008766Y016481D01*
X008452Y016795D01*
X008452Y016481D01*
X008531Y016403D01*
X008687Y016403D01*
X008766Y016481D01*
X008766Y016795D02*
X008687Y016873D01*
X008531Y016873D01*
X008452Y016795D01*
X008250Y016795D02*
X008172Y016873D01*
X008015Y016873D01*
X007937Y016795D01*
X007937Y016716D01*
X008250Y016403D01*
X007937Y016403D01*
X007735Y016481D02*
X007656Y016403D01*
X007499Y016403D01*
X007421Y016481D01*
X007421Y016560D01*
X007499Y016638D01*
X007735Y016638D01*
X007735Y016481D01*
X007735Y016638D02*
X007578Y016795D01*
X007421Y016873D01*
D13*
X007706Y011678D02*
X007649Y011621D01*
X007876Y011394D01*
X007819Y011338D01*
X007706Y011338D01*
X007649Y011394D01*
X007649Y011621D01*
X007706Y011678D02*
X007819Y011678D01*
X007876Y011621D01*
X007876Y011394D01*
X008018Y011394D02*
X008074Y011338D01*
X008188Y011338D01*
X008244Y011394D01*
X008018Y011621D01*
X008018Y011394D01*
X008244Y011394D02*
X008244Y011621D01*
X008188Y011678D01*
X008074Y011678D01*
X008018Y011621D01*
X008386Y011338D02*
X008613Y011338D01*
X008499Y011338D02*
X008499Y011678D01*
X008613Y011565D01*
X010164Y009971D02*
X010391Y009744D01*
X010334Y009688D01*
X010221Y009688D01*
X010164Y009744D01*
X010164Y009971D01*
X010221Y010028D01*
X010334Y010028D01*
X010391Y009971D01*
X010391Y009744D01*
X010533Y009744D02*
X010589Y009688D01*
X010703Y009688D01*
X010759Y009744D01*
X010533Y009971D01*
X010533Y009744D01*
X010759Y009744D02*
X010759Y009971D01*
X010703Y010028D01*
X010589Y010028D01*
X010533Y009971D01*
X010901Y009688D02*
X011128Y009688D01*
X011014Y009688D02*
X011014Y010028D01*
X011128Y009915D01*
X014688Y007890D02*
X014688Y007776D01*
X014744Y007719D01*
X014971Y007946D01*
X014744Y007946D01*
X014688Y007890D01*
X014744Y007719D02*
X014971Y007719D01*
X015028Y007776D01*
X015028Y007890D01*
X014971Y007946D01*
X014971Y007578D02*
X014744Y007351D01*
X014688Y007408D01*
X014688Y007521D01*
X014744Y007578D01*
X014971Y007578D01*
X015028Y007521D01*
X015028Y007408D01*
X014971Y007351D01*
X014744Y007351D01*
X014688Y007210D02*
X014688Y006983D01*
X014688Y007096D02*
X015028Y007096D01*
X014915Y006983D01*
X029138Y009433D02*
X029138Y009660D01*
X029138Y009546D02*
X029478Y009546D01*
X029365Y009433D01*
X029421Y009801D02*
X029478Y009858D01*
X029478Y009971D01*
X029421Y010028D01*
X029194Y009801D01*
X029138Y009858D01*
X029138Y009971D01*
X029194Y010028D01*
X029421Y010028D01*
X029421Y010169D02*
X029478Y010226D01*
X029478Y010340D01*
X029421Y010396D01*
X029194Y010169D01*
X029138Y010226D01*
X029138Y010340D01*
X029194Y010396D01*
X029421Y010396D01*
X029421Y010169D02*
X029194Y010169D01*
X029194Y009801D02*
X029421Y009801D01*
X033588Y009810D02*
X033588Y009583D01*
X033588Y009696D02*
X033928Y009696D01*
X033815Y009583D01*
X033871Y009951D02*
X033928Y010008D01*
X033928Y010121D01*
X033871Y010178D01*
X033644Y009951D01*
X033588Y010008D01*
X033588Y010121D01*
X033644Y010178D01*
X033871Y010178D01*
X033871Y010319D02*
X033928Y010376D01*
X033928Y010490D01*
X033871Y010546D01*
X033644Y010319D01*
X033588Y010376D01*
X033588Y010490D01*
X033644Y010546D01*
X033871Y010546D01*
X033871Y010319D02*
X033644Y010319D01*
X033644Y009951D02*
X033871Y009951D01*
X035644Y007546D02*
X035588Y007490D01*
X035588Y007376D01*
X035644Y007319D01*
X035871Y007546D01*
X035644Y007546D01*
X035644Y007319D02*
X035871Y007319D01*
X035928Y007376D01*
X035928Y007490D01*
X035871Y007546D01*
X035871Y007178D02*
X035644Y006951D01*
X035588Y007008D01*
X035588Y007121D01*
X035644Y007178D01*
X035871Y007178D01*
X035928Y007121D01*
X035928Y007008D01*
X035871Y006951D01*
X035644Y006951D01*
X035588Y006810D02*
X035588Y006583D01*
X035588Y006696D02*
X035928Y006696D01*
X035815Y006583D01*
X031905Y024723D02*
X032018Y024836D01*
X031678Y024836D01*
X031678Y024723D02*
X031678Y024950D01*
X031734Y025091D02*
X031961Y025318D01*
X031734Y025318D01*
X031678Y025261D01*
X031678Y025148D01*
X031734Y025091D01*
X031961Y025091D01*
X032018Y025148D01*
X032018Y025261D01*
X031961Y025318D01*
X031961Y025459D02*
X032018Y025516D01*
X032018Y025630D01*
X031961Y025686D01*
X031734Y025459D01*
X031678Y025516D01*
X031678Y025630D01*
X031734Y025686D01*
X031961Y025686D01*
X031961Y025459D02*
X031734Y025459D01*
X032688Y025401D02*
X032688Y025288D01*
X032744Y025231D01*
X032971Y025458D01*
X032744Y025458D01*
X032688Y025401D01*
X032744Y025231D02*
X032971Y025231D01*
X033028Y025288D01*
X033028Y025401D01*
X032971Y025458D01*
X032971Y025599D02*
X033028Y025656D01*
X033028Y025770D01*
X032971Y025826D01*
X032744Y025599D01*
X032688Y025656D01*
X032688Y025770D01*
X032744Y025826D01*
X032971Y025826D01*
X032971Y025599D02*
X032744Y025599D01*
X032688Y025090D02*
X032688Y024863D01*
X032688Y024976D02*
X033028Y024976D01*
X032915Y024863D01*
X030028Y025096D02*
X029688Y025096D01*
X029688Y024983D02*
X029688Y025210D01*
X029744Y025351D02*
X029971Y025578D01*
X029744Y025578D01*
X029688Y025521D01*
X029688Y025408D01*
X029744Y025351D01*
X029971Y025351D01*
X030028Y025408D01*
X030028Y025521D01*
X029971Y025578D01*
X029971Y025719D02*
X030028Y025776D01*
X030028Y025890D01*
X029971Y025946D01*
X029744Y025719D01*
X029688Y025776D01*
X029688Y025890D01*
X029744Y025946D01*
X029971Y025946D01*
X029971Y025719D02*
X029744Y025719D01*
X030028Y025096D02*
X029915Y024983D01*
X029028Y024996D02*
X028688Y024996D01*
X028688Y024883D02*
X028688Y025110D01*
X028744Y025251D02*
X028971Y025478D01*
X028744Y025478D01*
X028688Y025421D01*
X028688Y025308D01*
X028744Y025251D01*
X028971Y025251D01*
X029028Y025308D01*
X029028Y025421D01*
X028971Y025478D01*
X028971Y025619D02*
X028744Y025619D01*
X028971Y025846D01*
X028744Y025846D01*
X028688Y025790D01*
X028688Y025676D01*
X028744Y025619D01*
X028971Y025619D02*
X029028Y025676D01*
X029028Y025790D01*
X028971Y025846D01*
X029028Y024996D02*
X028915Y024883D01*
X014228Y024996D02*
X013888Y024996D01*
X013888Y024883D02*
X013888Y025110D01*
X013944Y025251D02*
X014171Y025478D01*
X013944Y025478D01*
X013888Y025421D01*
X013888Y025308D01*
X013944Y025251D01*
X014171Y025251D01*
X014228Y025308D01*
X014228Y025421D01*
X014171Y025478D01*
X014171Y025619D02*
X013944Y025619D01*
X014171Y025846D01*
X013944Y025846D01*
X013888Y025790D01*
X013888Y025676D01*
X013944Y025619D01*
X014171Y025619D02*
X014228Y025676D01*
X014228Y025790D01*
X014171Y025846D01*
X014228Y024996D02*
X014115Y024883D01*
X013128Y024996D02*
X012788Y024996D01*
X012788Y024883D02*
X012788Y025110D01*
X012844Y025251D02*
X013071Y025478D01*
X012844Y025478D01*
X012788Y025421D01*
X012788Y025308D01*
X012844Y025251D01*
X013071Y025251D01*
X013128Y025308D01*
X013128Y025421D01*
X013071Y025478D01*
X013071Y025619D02*
X012844Y025619D01*
X013071Y025846D01*
X012844Y025846D01*
X012788Y025790D01*
X012788Y025676D01*
X012844Y025619D01*
X013071Y025619D02*
X013128Y025676D01*
X013128Y025790D01*
X013071Y025846D01*
X013128Y024996D02*
X013015Y024883D01*
X011128Y024996D02*
X010788Y024996D01*
X010788Y024883D02*
X010788Y025110D01*
X010844Y025251D02*
X011071Y025478D01*
X010844Y025478D01*
X010788Y025421D01*
X010788Y025308D01*
X010844Y025251D01*
X011071Y025251D01*
X011128Y025308D01*
X011128Y025421D01*
X011071Y025478D01*
X011071Y025619D02*
X011128Y025676D01*
X011128Y025790D01*
X011071Y025846D01*
X010844Y025619D01*
X010788Y025676D01*
X010788Y025790D01*
X010844Y025846D01*
X011071Y025846D01*
X011071Y025619D02*
X010844Y025619D01*
X011128Y024996D02*
X011015Y024883D01*
X010128Y024996D02*
X009788Y024996D01*
X009788Y024883D02*
X009788Y025110D01*
X009844Y025251D02*
X010071Y025478D01*
X009844Y025478D01*
X009788Y025421D01*
X009788Y025308D01*
X009844Y025251D01*
X010071Y025251D01*
X010128Y025308D01*
X010128Y025421D01*
X010071Y025478D01*
X010071Y025619D02*
X009844Y025619D01*
X010071Y025846D01*
X009844Y025846D01*
X009788Y025790D01*
X009788Y025676D01*
X009844Y025619D01*
X010071Y025619D02*
X010128Y025676D01*
X010128Y025790D01*
X010071Y025846D01*
X010128Y024996D02*
X010015Y024883D01*
D14*
X010014Y022233D02*
X010072Y022175D01*
X010072Y021941D01*
X010014Y021883D01*
X009897Y021883D01*
X009839Y021941D01*
X009704Y021941D02*
X009646Y021883D01*
X009529Y021883D01*
X009471Y021941D01*
X009471Y022058D01*
X009529Y022116D01*
X009646Y022116D01*
X009704Y022058D01*
X009704Y021941D01*
X009839Y022175D02*
X009897Y022233D01*
X010014Y022233D01*
X010569Y022116D02*
X010686Y022116D01*
X010628Y022175D02*
X010628Y021941D01*
X010569Y021883D01*
X010821Y021883D02*
X010821Y022058D01*
X010879Y022116D01*
X011055Y022116D01*
X011055Y021883D01*
X011189Y021999D02*
X011423Y021999D01*
X011423Y021941D02*
X011423Y022058D01*
X011364Y022116D01*
X011248Y022116D01*
X011189Y022058D01*
X011189Y021999D01*
X011248Y021883D02*
X011364Y021883D01*
X011423Y021941D01*
X011558Y021883D02*
X011558Y022058D01*
X011616Y022116D01*
X011674Y022058D01*
X011674Y021883D01*
X011791Y021883D02*
X011791Y022116D01*
X011733Y022116D01*
X011674Y022058D01*
X011926Y022116D02*
X012101Y022116D01*
X012159Y022058D01*
X012159Y021941D01*
X012101Y021883D01*
X011926Y021883D01*
X011926Y021824D02*
X011926Y022116D01*
X011926Y021824D02*
X011984Y021766D01*
X012043Y021766D01*
X011856Y021691D02*
X011856Y021633D01*
X011856Y021516D02*
X011856Y021283D01*
X011914Y021283D02*
X011797Y021283D01*
X011668Y021341D02*
X011610Y021283D01*
X011493Y021283D01*
X011435Y021341D01*
X011435Y021458D01*
X011493Y021516D01*
X011610Y021516D01*
X011668Y021458D01*
X011668Y021341D01*
X011856Y021516D02*
X011914Y021516D01*
X012049Y021516D02*
X012224Y021516D01*
X012282Y021458D01*
X012224Y021399D01*
X012107Y021399D01*
X012049Y021341D01*
X012107Y021283D01*
X012282Y021283D01*
X012411Y021283D02*
X012528Y021283D01*
X012469Y021283D02*
X012469Y021516D01*
X012528Y021516D01*
X012469Y021633D02*
X012469Y021691D01*
X012469Y021883D02*
X012528Y021941D01*
X012528Y022058D01*
X012469Y022116D01*
X012353Y022116D01*
X012294Y022058D01*
X012294Y021999D01*
X012528Y021999D01*
X012469Y021883D02*
X012353Y021883D01*
X012663Y021941D02*
X012721Y021883D01*
X012838Y021883D01*
X012896Y021941D01*
X012838Y022058D02*
X012896Y022116D01*
X012896Y022175D01*
X012838Y022233D01*
X012721Y022233D01*
X012663Y022175D01*
X012721Y022058D02*
X012663Y021999D01*
X012663Y021941D01*
X012721Y022058D02*
X012838Y022058D01*
X013031Y022058D02*
X013264Y022058D01*
X013399Y022175D02*
X013399Y022233D01*
X013633Y022233D01*
X013399Y022175D02*
X013633Y021941D01*
X013633Y021883D01*
X013633Y021633D02*
X013458Y021633D01*
X013399Y021575D01*
X013399Y021458D01*
X013458Y021399D01*
X013633Y021399D01*
X013633Y021283D02*
X013633Y021633D01*
X013516Y021399D02*
X013399Y021283D01*
X013264Y021341D02*
X013264Y021458D01*
X013206Y021516D01*
X013089Y021516D01*
X013031Y021458D01*
X013031Y021399D01*
X013264Y021399D01*
X013264Y021341D02*
X013206Y021283D01*
X013089Y021283D01*
X012896Y021516D02*
X012779Y021283D01*
X012663Y021516D01*
X012469Y021091D02*
X012469Y021033D01*
X012469Y020916D02*
X012469Y020683D01*
X012411Y020683D02*
X012528Y020683D01*
X012663Y020741D02*
X012721Y020799D01*
X012838Y020799D01*
X012896Y020858D01*
X012838Y020916D01*
X012663Y020916D01*
X012528Y020916D02*
X012469Y020916D01*
X012282Y020858D02*
X012282Y020741D01*
X012224Y020683D01*
X012049Y020683D01*
X012049Y020624D02*
X012049Y020916D01*
X012224Y020916D01*
X012282Y020858D01*
X012165Y020566D02*
X012107Y020566D01*
X012049Y020624D01*
X011914Y020683D02*
X011914Y020916D01*
X011739Y020916D01*
X011680Y020858D01*
X011680Y020683D01*
X011546Y020741D02*
X011546Y020858D01*
X011487Y020916D01*
X011370Y020916D01*
X011312Y020858D01*
X011312Y020799D01*
X011546Y020799D01*
X011546Y020741D02*
X011487Y020683D01*
X011370Y020683D01*
X011177Y020741D02*
X011177Y020858D01*
X011119Y020916D01*
X010944Y020916D01*
X010944Y021033D02*
X010944Y020683D01*
X011119Y020683D01*
X011177Y020741D01*
X011248Y020316D02*
X011364Y020316D01*
X011423Y020258D01*
X011423Y020141D01*
X011364Y020083D01*
X011248Y020083D01*
X011189Y020141D01*
X011189Y020258D01*
X011248Y020316D01*
X011055Y020316D02*
X011055Y020083D01*
X011055Y020316D02*
X010879Y020316D01*
X010821Y020258D01*
X010821Y020083D01*
X010686Y020141D02*
X010686Y020258D01*
X010628Y020316D01*
X010511Y020316D01*
X010453Y020258D01*
X010453Y020199D01*
X010686Y020199D01*
X010686Y020141D02*
X010628Y020083D01*
X010511Y020083D01*
X009950Y020083D02*
X009950Y020433D01*
X009774Y020433D01*
X009716Y020375D01*
X009716Y020141D01*
X009774Y020083D01*
X009950Y020083D01*
X009581Y020141D02*
X009581Y020258D01*
X009523Y020316D01*
X009406Y020316D01*
X009348Y020258D01*
X009348Y020199D01*
X009581Y020199D01*
X009581Y020141D02*
X009523Y020083D01*
X009406Y020083D01*
X009213Y020083D02*
X009038Y020083D01*
X008979Y020141D01*
X009038Y020199D01*
X009155Y020199D01*
X009213Y020258D01*
X009155Y020316D01*
X008979Y020316D01*
X008845Y020316D02*
X008786Y020316D01*
X008786Y020083D01*
X008728Y020083D02*
X008845Y020083D01*
X008599Y020141D02*
X008541Y020083D01*
X008366Y020083D01*
X008366Y020024D02*
X008366Y020316D01*
X008541Y020316D01*
X008599Y020258D01*
X008599Y020141D01*
X008482Y019966D02*
X008424Y019966D01*
X008366Y020024D01*
X008231Y020083D02*
X008231Y020316D01*
X008056Y020316D01*
X007997Y020258D01*
X007997Y020083D01*
X007862Y020083D02*
X007629Y020433D01*
X007494Y020433D02*
X007261Y020433D01*
X007377Y020258D02*
X007494Y020258D01*
X007494Y020083D02*
X007494Y020433D01*
X007067Y020316D02*
X006951Y020316D01*
X006892Y020258D01*
X006892Y020083D01*
X007067Y020083D01*
X007126Y020141D01*
X007067Y020199D01*
X006892Y020199D01*
X006758Y020083D02*
X006758Y020433D01*
X006758Y020316D02*
X006582Y020316D01*
X006524Y020258D01*
X006524Y020141D01*
X006582Y020083D01*
X006758Y020083D01*
X006389Y020083D02*
X006389Y020316D01*
X006389Y020199D02*
X006272Y020316D01*
X006214Y020316D01*
X006082Y020316D02*
X006024Y020316D01*
X006024Y020083D01*
X006082Y020083D02*
X005966Y020083D01*
X005837Y020141D02*
X005778Y020083D01*
X005603Y020083D01*
X005468Y020141D02*
X005410Y020199D01*
X005235Y020199D01*
X005235Y020258D02*
X005235Y020083D01*
X005410Y020083D01*
X005468Y020141D01*
X005410Y020316D02*
X005293Y020316D01*
X005235Y020258D01*
X005100Y020316D02*
X004983Y020316D01*
X005042Y020375D02*
X005042Y020141D01*
X004983Y020083D01*
X004855Y020083D02*
X004738Y020083D01*
X004796Y020083D02*
X004796Y020316D01*
X004855Y020316D01*
X004796Y020433D02*
X004796Y020491D01*
X004609Y020258D02*
X004609Y020141D01*
X004551Y020083D01*
X004434Y020083D01*
X004375Y020141D01*
X004375Y020258D01*
X004434Y020316D01*
X004551Y020316D01*
X004609Y020258D01*
X004241Y020316D02*
X004066Y020316D01*
X004007Y020258D01*
X004007Y020083D01*
X004241Y020083D02*
X004241Y020316D01*
X005603Y020316D02*
X005778Y020316D01*
X005837Y020258D01*
X005837Y020141D01*
X006024Y020433D02*
X006024Y020491D01*
X007985Y021883D02*
X007985Y022116D01*
X007985Y021999D02*
X007868Y022116D01*
X007810Y022116D01*
X008120Y022058D02*
X008120Y021999D01*
X008354Y021999D01*
X008354Y021941D02*
X008354Y022058D01*
X008295Y022116D01*
X008178Y022116D01*
X008120Y022058D01*
X008178Y021883D02*
X008295Y021883D01*
X008354Y021941D01*
X008482Y021883D02*
X008541Y021941D01*
X008541Y022175D01*
X008599Y022116D02*
X008482Y022116D01*
X008734Y022058D02*
X008734Y021883D01*
X008734Y022058D02*
X008792Y022116D01*
X008967Y022116D01*
X008967Y021883D01*
X009102Y021883D02*
X009102Y022116D01*
X009102Y021883D02*
X009277Y021883D01*
X009336Y021941D01*
X009336Y022116D01*
X009894Y021633D02*
X009894Y021283D01*
X010011Y021283D02*
X009777Y021283D01*
X010011Y021516D02*
X009894Y021633D01*
X010137Y021341D02*
X010137Y021283D01*
X010195Y021283D01*
X010195Y021341D01*
X010137Y021341D01*
X010330Y021283D02*
X010563Y021283D01*
X010447Y021283D02*
X010447Y021633D01*
X010563Y021516D01*
X010441Y021033D02*
X010441Y020683D01*
X010266Y020683D01*
X010207Y020741D01*
X010207Y020858D01*
X010266Y020916D01*
X010441Y020916D01*
X010072Y020916D02*
X010072Y020741D01*
X010014Y020683D01*
X009839Y020683D01*
X009839Y020624D02*
X009897Y020566D01*
X009956Y020566D01*
X009839Y020624D02*
X009839Y020916D01*
X009704Y020916D02*
X009704Y020858D01*
X009646Y020858D01*
X009646Y020916D01*
X009704Y020916D01*
X009704Y020741D02*
X009704Y020683D01*
X009646Y020683D01*
X009646Y020741D01*
X009704Y020741D01*
X009152Y020741D02*
X009152Y020975D01*
X009093Y021033D01*
X008976Y021033D01*
X008918Y020975D01*
X008783Y021033D02*
X008666Y020916D01*
X008550Y021033D01*
X008550Y020683D01*
X008415Y020683D02*
X008415Y021033D01*
X008298Y020916D01*
X008181Y021033D01*
X008181Y020683D01*
X008783Y020683D02*
X008783Y021033D01*
X008918Y020741D02*
X008976Y020683D01*
X009093Y020683D01*
X009152Y020741D01*
X008786Y020491D02*
X008786Y020433D01*
X011067Y021283D02*
X011067Y021458D01*
X011125Y021516D01*
X011300Y021516D01*
X011300Y021283D01*
X011610Y020433D02*
X011610Y020083D01*
X011668Y020083D02*
X011552Y020083D01*
X011803Y020083D02*
X011978Y020083D01*
X012037Y020141D01*
X011978Y020199D01*
X011803Y020199D01*
X011803Y020258D02*
X011803Y020083D01*
X011803Y020258D02*
X011862Y020316D01*
X011978Y020316D01*
X012171Y020433D02*
X012171Y020083D01*
X012405Y020083D02*
X012405Y020433D01*
X012288Y020316D01*
X012171Y020433D01*
X011668Y020433D02*
X011610Y020433D01*
X012663Y020741D02*
X012721Y020683D01*
X012896Y020683D01*
X013031Y020799D02*
X013264Y020799D01*
X013264Y020741D02*
X013264Y020858D01*
X013206Y020916D01*
X013089Y020916D01*
X013031Y020858D01*
X013031Y020799D01*
X013089Y020683D02*
X013206Y020683D01*
X013264Y020741D01*
X013399Y020741D02*
X013399Y020975D01*
X013458Y021033D01*
X013633Y021033D01*
X013633Y020683D01*
X013458Y020683D01*
X013399Y020741D01*
X013516Y020433D02*
X013633Y020316D01*
X013633Y020199D01*
X013516Y020083D01*
X013387Y020141D02*
X013329Y020083D01*
X013154Y020083D01*
X013019Y020083D02*
X012902Y020199D01*
X012902Y020316D01*
X013019Y020433D01*
X013154Y020316D02*
X013329Y020316D01*
X013387Y020258D01*
X013387Y020141D01*
X023739Y012051D02*
X023788Y012098D01*
X023863Y012149D01*
X023947Y012187D01*
X024035Y012210D01*
X024126Y012217D01*
X024217Y012208D01*
X024306Y012184D01*
X024388Y012145D01*
X024463Y012092D01*
X024528Y012028D01*
X024697Y011807D01*
X024848Y011573D01*
X024978Y011328D01*
X025288Y010678D01*
X025198Y010638D01*
X024588Y011728D01*
X024520Y011834D01*
X024436Y011928D01*
X024338Y012006D01*
X024228Y012068D01*
X024173Y012087D01*
X024116Y012097D01*
X024059Y012097D01*
X024002Y012086D01*
X023948Y012067D01*
X023898Y012038D01*
X023835Y011984D01*
X023783Y011920D01*
X023743Y011848D01*
X023718Y011770D01*
X023708Y011688D01*
X023698Y011098D01*
X023698Y010968D01*
X023618Y010968D01*
X023708Y010958D01*
X023708Y010668D01*
X023598Y010668D01*
X023598Y010698D01*
X023498Y010958D01*
X023376Y011223D01*
X023222Y011471D01*
X023038Y011698D01*
X022993Y011737D01*
X022942Y011768D01*
X022886Y011787D01*
X022827Y011796D01*
X022767Y011793D01*
X022710Y011778D01*
X022656Y011753D01*
X022608Y011718D01*
X022526Y011634D01*
X022457Y011541D01*
X022400Y011439D01*
X022356Y011331D01*
X022328Y011218D01*
X022228Y011218D01*
X022228Y011308D01*
X022248Y011388D01*
X022283Y011495D01*
X022334Y011595D01*
X022400Y011686D01*
X022479Y011767D01*
X022569Y011834D01*
X022668Y011888D01*
X022739Y011912D01*
X022813Y011924D01*
X022889Y011923D01*
X022963Y011908D01*
X023033Y011881D01*
X023097Y011842D01*
X023154Y011792D01*
X023201Y011734D01*
X023238Y011668D01*
X023413Y011310D01*
X023618Y010968D01*
X023600Y011388D01*
X023628Y011808D01*
X023641Y011874D01*
X023664Y011938D01*
X023697Y011997D01*
X023739Y012051D01*
X023752Y012064D02*
X023943Y012064D01*
X023871Y012015D02*
X023711Y012015D01*
X023680Y011967D02*
X023820Y011967D01*
X023782Y011918D02*
X023657Y011918D01*
X023640Y011870D02*
X023755Y011870D01*
X023735Y011821D02*
X023630Y011821D01*
X023625Y011773D02*
X023719Y011773D01*
X023712Y011724D02*
X023622Y011724D01*
X023619Y011676D02*
X023708Y011676D01*
X023707Y011627D02*
X023616Y011627D01*
X023612Y011579D02*
X023706Y011579D01*
X023705Y011530D02*
X023609Y011530D01*
X023606Y011482D02*
X023704Y011482D01*
X023703Y011433D02*
X023603Y011433D01*
X023600Y011385D02*
X023703Y011385D01*
X023702Y011336D02*
X023602Y011336D01*
X023604Y011288D02*
X023701Y011288D01*
X023700Y011239D02*
X023606Y011239D01*
X023608Y011191D02*
X023699Y011191D01*
X023698Y011142D02*
X023610Y011142D01*
X023612Y011094D02*
X023698Y011094D01*
X023698Y011045D02*
X023614Y011045D01*
X023571Y011045D02*
X023458Y011045D01*
X023480Y010997D02*
X023600Y010997D01*
X023616Y010997D02*
X023698Y010997D01*
X023708Y010948D02*
X023501Y010948D01*
X023520Y010900D02*
X023708Y010900D01*
X023708Y010851D02*
X023539Y010851D01*
X023557Y010803D02*
X023708Y010803D01*
X023708Y010754D02*
X023576Y010754D01*
X023595Y010706D02*
X023708Y010706D01*
X023688Y010653D02*
X023619Y010672D01*
X023548Y010678D01*
X023188Y010678D01*
X023115Y010671D01*
X023044Y010652D01*
X022978Y010621D01*
X022918Y010579D01*
X022866Y010528D01*
X022824Y010468D01*
X022793Y010401D01*
X022774Y010331D01*
X022768Y010258D01*
X023158Y010258D01*
X023162Y010258D01*
X023165Y010261D01*
X023167Y010264D01*
X023168Y010268D01*
X023171Y010294D01*
X023180Y010320D01*
X023194Y010343D01*
X023213Y010362D01*
X023236Y010376D01*
X023261Y010385D01*
X023288Y010388D01*
X023438Y010388D01*
X023457Y010385D01*
X023475Y010379D01*
X023491Y010368D01*
X023504Y010353D01*
X023513Y010336D01*
X023518Y010318D01*
X023953Y010318D01*
X023952Y010339D02*
X023933Y010408D01*
X023903Y010473D01*
X023862Y010531D01*
X023811Y010582D01*
X023753Y010623D01*
X023688Y010653D01*
X023672Y010657D02*
X023062Y010657D01*
X023063Y010657D02*
X023192Y010657D01*
X023198Y010648D02*
X023158Y010648D01*
X023149Y010635D01*
X023136Y010625D01*
X023121Y010620D01*
X023105Y010620D01*
X023090Y010625D01*
X023077Y010635D01*
X023068Y010648D01*
X022979Y010811D01*
X022878Y010968D01*
X022867Y010980D01*
X022853Y010991D01*
X022838Y010998D01*
X022828Y010999D01*
X022818Y010998D01*
X022809Y010994D01*
X022802Y010987D01*
X022798Y010978D01*
X022568Y010298D01*
X022508Y010128D01*
X022448Y010118D01*
X022448Y010308D01*
X022698Y011018D01*
X022738Y011118D01*
X022740Y011142D01*
X022747Y011166D01*
X022758Y011188D01*
X022771Y011205D01*
X022788Y011218D01*
X022808Y011228D01*
X022821Y011230D01*
X022834Y011230D01*
X022847Y011225D01*
X022858Y011218D01*
X022892Y011181D01*
X022918Y011138D01*
X023017Y010944D01*
X023128Y010758D01*
X023198Y010648D01*
X023161Y010706D02*
X023036Y010706D01*
X023010Y010754D02*
X023130Y010754D01*
X023101Y010803D02*
X022984Y010803D01*
X022953Y010851D02*
X023072Y010851D01*
X023043Y010900D02*
X022922Y010900D01*
X022890Y010948D02*
X023015Y010948D01*
X022990Y010997D02*
X022840Y010997D01*
X022816Y010997D02*
X022690Y010997D01*
X022673Y010948D02*
X022788Y010948D01*
X022771Y010900D02*
X022656Y010900D01*
X022639Y010851D02*
X022755Y010851D01*
X022739Y010803D02*
X022622Y010803D01*
X022605Y010754D02*
X022722Y010754D01*
X022706Y010706D02*
X022588Y010706D01*
X022571Y010657D02*
X022689Y010657D01*
X022673Y010609D02*
X022554Y010609D01*
X022537Y010560D02*
X022657Y010560D01*
X022640Y010512D02*
X022520Y010512D01*
X022503Y010463D02*
X022624Y010463D01*
X022607Y010415D02*
X022485Y010415D01*
X022468Y010366D02*
X022591Y010366D01*
X022575Y010318D02*
X022451Y010318D01*
X022448Y010269D02*
X022558Y010269D01*
X022541Y010221D02*
X022448Y010221D01*
X022448Y010172D02*
X022523Y010172D01*
X022484Y010124D02*
X022448Y010124D01*
X022769Y010269D02*
X023168Y010269D01*
X023179Y010318D02*
X022773Y010318D01*
X022784Y010366D02*
X023220Y010366D01*
X023178Y010168D02*
X023188Y009898D01*
X023548Y009788D01*
X023548Y009778D01*
X023549Y009768D01*
X023553Y009760D01*
X023560Y009753D01*
X023568Y009749D01*
X023578Y009748D01*
X023596Y009745D01*
X023613Y009738D01*
X023627Y009727D01*
X023638Y009713D01*
X023645Y009696D01*
X023648Y009678D01*
X023648Y009538D01*
X023645Y009514D01*
X023636Y009493D01*
X024009Y009493D01*
X024013Y009525D02*
X024004Y009453D01*
X023982Y009384D01*
X023946Y009321D01*
X023899Y009266D01*
X023842Y009221D01*
X023778Y009188D01*
X023708Y009168D01*
X023622Y009159D01*
X023537Y009164D01*
X023453Y009183D01*
X023373Y009214D01*
X023300Y009258D01*
X023234Y009313D01*
X023178Y009378D01*
X023154Y009417D01*
X023139Y009461D01*
X023133Y009506D01*
X023136Y009552D01*
X023147Y009597D01*
X023168Y009638D01*
X023268Y009528D01*
X023270Y009507D01*
X023278Y009488D01*
X023291Y009471D01*
X023308Y009458D01*
X023327Y009450D01*
X023348Y009448D01*
X023558Y009448D01*
X023581Y009451D01*
X023603Y009460D01*
X023621Y009474D01*
X023636Y009493D01*
X023648Y009542D02*
X024012Y009542D01*
X024013Y009525D02*
X024008Y009598D01*
X023984Y009686D01*
X023945Y009769D01*
X023892Y009844D01*
X023827Y009908D01*
X023751Y009960D01*
X023668Y009998D01*
X023178Y010168D01*
X023179Y010124D02*
X023304Y010124D01*
X023181Y010075D02*
X023444Y010075D01*
X023584Y010027D02*
X023183Y010027D01*
X023185Y009978D02*
X023711Y009978D01*
X023796Y009930D02*
X023187Y009930D01*
X023242Y009881D02*
X023854Y009881D01*
X023900Y009833D02*
X023400Y009833D01*
X023548Y009784D02*
X023935Y009784D01*
X023961Y009736D02*
X023616Y009736D01*
X023646Y009687D02*
X023984Y009687D01*
X023997Y009639D02*
X023648Y009639D01*
X023648Y009590D02*
X024008Y009590D01*
X024002Y009445D02*
X023145Y009445D01*
X023134Y009493D02*
X023276Y009493D01*
X023255Y009542D02*
X023135Y009542D01*
X023146Y009590D02*
X023211Y009590D01*
X023167Y009396D02*
X023986Y009396D01*
X023961Y009348D02*
X023204Y009348D01*
X023148Y009358D02*
X023118Y009368D01*
X022768Y009368D01*
X022718Y009188D01*
X023088Y009188D01*
X023148Y009358D01*
X023144Y009348D02*
X022762Y009348D01*
X022749Y009299D02*
X023127Y009299D01*
X023110Y009251D02*
X022735Y009251D01*
X022722Y009202D02*
X023093Y009202D01*
X023250Y009299D02*
X023928Y009299D01*
X023880Y009251D02*
X023312Y009251D01*
X023404Y009202D02*
X023806Y009202D01*
X023658Y009148D02*
X023558Y009148D01*
X023678Y008708D01*
X023758Y008698D01*
X023778Y008708D01*
X023658Y009148D01*
X023669Y009105D02*
X023569Y009105D01*
X023583Y009057D02*
X023683Y009057D01*
X023696Y009008D02*
X023596Y009008D01*
X023609Y008960D02*
X023709Y008960D01*
X023722Y008911D02*
X023622Y008911D01*
X023635Y008863D02*
X023735Y008863D01*
X023749Y008814D02*
X023649Y008814D01*
X023662Y008766D02*
X023762Y008766D01*
X023775Y008717D02*
X023675Y008717D01*
X023648Y008708D02*
X023648Y008658D01*
X023646Y008650D01*
X023642Y008644D01*
X023635Y008639D01*
X023628Y008638D01*
X023638Y008558D01*
X023638Y008608D01*
X023639Y008615D01*
X023644Y008622D01*
X023650Y008626D01*
X023658Y008628D01*
X023698Y008628D01*
X023713Y008626D01*
X023728Y008620D01*
X023740Y008610D01*
X023750Y008598D01*
X023756Y008583D01*
X023758Y008568D01*
X023758Y008388D01*
X023756Y008375D01*
X023750Y008364D01*
X023741Y008355D01*
X023730Y008350D01*
X023718Y008348D01*
X023698Y008348D01*
X023694Y008347D01*
X023691Y008345D01*
X023688Y008342D01*
X023688Y008338D01*
X023672Y008340D01*
X023658Y008347D01*
X023647Y008358D01*
X023640Y008372D01*
X023638Y008388D01*
X023638Y008398D01*
X023634Y008397D01*
X023631Y008395D01*
X023628Y008392D01*
X023628Y008388D01*
X023628Y008308D01*
X023630Y008295D01*
X023635Y008284D01*
X023644Y008275D01*
X023655Y008270D01*
X023668Y008268D01*
X023768Y008268D01*
X023791Y008271D01*
X023813Y008280D01*
X023831Y008294D01*
X023846Y008313D01*
X023855Y008334D01*
X023858Y008358D01*
X023858Y008608D01*
X023854Y008634D01*
X023844Y008658D01*
X023828Y008678D01*
X023808Y008694D01*
X023784Y008704D01*
X023758Y008708D01*
X023648Y008708D01*
X023648Y008669D02*
X023836Y008669D01*
X023856Y008620D02*
X023726Y008620D01*
X023757Y008572D02*
X023858Y008572D01*
X023858Y008523D02*
X023758Y008523D01*
X023758Y008475D02*
X023858Y008475D01*
X023858Y008426D02*
X023758Y008426D01*
X023756Y008378D02*
X023858Y008378D01*
X023853Y008329D02*
X023628Y008329D01*
X023628Y008378D02*
X023639Y008378D01*
X023639Y008281D02*
X023814Y008281D01*
X023831Y008281D02*
X023875Y008281D01*
X023858Y008298D02*
X023898Y008258D01*
X023928Y008258D01*
X023938Y008268D01*
X023988Y008288D01*
X024070Y008329D01*
X024295Y008329D01*
X024286Y008319D02*
X024259Y008300D01*
X024228Y008288D01*
X024154Y008260D01*
X024087Y008219D01*
X024028Y008168D01*
X023998Y008144D01*
X023964Y008128D01*
X023927Y008121D01*
X023889Y008124D01*
X023853Y008136D01*
X023821Y008157D01*
X023796Y008184D01*
X024046Y008184D01*
X024108Y008232D02*
X023782Y008232D01*
X023778Y008228D02*
X023848Y008298D01*
X023858Y008298D01*
X023778Y008228D02*
X023778Y008218D01*
X023796Y008184D01*
X023856Y008135D02*
X023979Y008135D01*
X023970Y008281D02*
X024209Y008281D01*
X024286Y008319D02*
X024309Y008344D01*
X024325Y008373D01*
X024335Y008405D01*
X024338Y008438D01*
X024328Y009108D01*
X024328Y009218D01*
X024228Y009208D01*
X024208Y008678D01*
X024208Y008448D01*
X024144Y008382D01*
X024070Y008329D01*
X024137Y008378D02*
X024327Y008378D01*
X024337Y008426D02*
X024187Y008426D01*
X024208Y008475D02*
X024337Y008475D01*
X024336Y008523D02*
X024208Y008523D01*
X024208Y008572D02*
X024336Y008572D01*
X024335Y008620D02*
X024208Y008620D01*
X024208Y008669D02*
X024334Y008669D01*
X024334Y008717D02*
X024209Y008717D01*
X024211Y008766D02*
X024333Y008766D01*
X024332Y008814D02*
X024213Y008814D01*
X024215Y008863D02*
X024331Y008863D01*
X024331Y008911D02*
X024217Y008911D01*
X024218Y008960D02*
X024330Y008960D01*
X024329Y009008D02*
X024220Y009008D01*
X024222Y009057D02*
X024328Y009057D01*
X024328Y009105D02*
X024224Y009105D01*
X024226Y009154D02*
X024328Y009154D01*
X024328Y009202D02*
X024228Y009202D01*
X023643Y008620D02*
X023630Y008620D01*
X023636Y008572D02*
X023638Y008572D01*
X023418Y008548D02*
X023418Y008408D01*
X023413Y008374D01*
X023401Y008342D01*
X023383Y008313D01*
X023359Y008288D01*
X023330Y008270D01*
X023298Y008258D01*
X023255Y008250D01*
X023211Y008250D01*
X023168Y008258D01*
X023137Y008269D01*
X023110Y008287D01*
X023087Y008310D01*
X023069Y008337D01*
X023058Y008368D01*
X023178Y008388D01*
X023179Y008380D01*
X023184Y008374D01*
X023190Y008369D01*
X023198Y008368D01*
X023288Y008368D01*
X023292Y008368D01*
X023295Y008371D01*
X023297Y008374D01*
X023298Y008378D01*
X023414Y008378D01*
X023418Y008426D02*
X023298Y008426D01*
X023298Y008378D02*
X023298Y008508D01*
X023298Y008512D01*
X023301Y008515D01*
X023304Y008517D01*
X023308Y008518D01*
X023308Y008578D01*
X023305Y008593D01*
X023298Y008607D01*
X023287Y008618D01*
X023273Y008625D01*
X023258Y008628D01*
X023208Y008628D01*
X023192Y008626D01*
X023178Y008620D01*
X023165Y008610D01*
X023156Y008598D01*
X023150Y008583D01*
X023148Y008568D01*
X023108Y008568D01*
X023098Y008566D01*
X023090Y008562D01*
X023083Y008555D01*
X023079Y008547D01*
X023078Y008538D01*
X023048Y008548D01*
X023048Y008578D01*
X023051Y008608D01*
X023062Y008637D01*
X023079Y008663D01*
X023101Y008684D01*
X023128Y008699D01*
X023158Y008708D01*
X023218Y008713D01*
X023278Y008708D01*
X023315Y008697D01*
X023348Y008678D01*
X023376Y008653D01*
X023398Y008621D01*
X023412Y008586D01*
X023418Y008548D01*
X023414Y008572D02*
X023308Y008572D01*
X023308Y008523D02*
X023418Y008523D01*
X023418Y008475D02*
X023298Y008475D01*
X023283Y008620D02*
X023398Y008620D01*
X023359Y008669D02*
X023085Y008669D01*
X023098Y008618D02*
X023138Y008618D01*
X023138Y008628D01*
X023158Y008618D01*
X023158Y008518D01*
X023098Y008518D01*
X023098Y008498D01*
X023098Y008618D01*
X023138Y008620D02*
X023153Y008620D01*
X023179Y008620D02*
X023056Y008620D01*
X023048Y008572D02*
X023148Y008572D01*
X023158Y008572D02*
X023098Y008572D01*
X023098Y008523D02*
X023158Y008523D01*
X023181Y008378D02*
X023118Y008378D01*
X023074Y008329D02*
X023393Y008329D01*
X023347Y008281D02*
X023119Y008281D01*
X022975Y008309D02*
X022967Y008292D01*
X022954Y008278D01*
X022938Y008268D01*
X022908Y008259D01*
X022878Y008258D01*
X022748Y008258D01*
X022721Y008260D01*
X022696Y008269D01*
X022675Y008285D01*
X022659Y008306D01*
X022650Y008331D01*
X022648Y008358D01*
X022648Y008448D01*
X022649Y008467D01*
X022655Y008486D01*
X022666Y008503D01*
X022681Y008516D01*
X022699Y008525D01*
X022718Y008529D01*
X022738Y008528D01*
X022767Y008526D01*
X022796Y008530D01*
X022823Y008541D01*
X022848Y008558D01*
X022860Y008572D01*
X022978Y008572D01*
X022978Y008568D02*
X022974Y008539D01*
X022963Y008513D01*
X022946Y008490D01*
X022923Y008472D01*
X022896Y008461D01*
X022868Y008458D01*
X022828Y008458D01*
X022807Y008455D01*
X022788Y008447D01*
X022771Y008434D01*
X022758Y008418D01*
X022750Y008398D01*
X022748Y008378D01*
X022648Y008378D01*
X022648Y008426D02*
X022765Y008426D01*
X022748Y008378D02*
X022748Y008368D01*
X022750Y008352D01*
X022757Y008338D01*
X022768Y008327D01*
X022782Y008320D01*
X022798Y008318D01*
X022818Y008318D01*
X022833Y008320D01*
X022847Y008327D01*
X022858Y008338D01*
X022865Y008352D01*
X022868Y008368D01*
X022978Y008368D01*
X022978Y008328D01*
X022975Y008309D01*
X022978Y008329D02*
X022849Y008329D01*
X022766Y008329D02*
X022651Y008329D01*
X022681Y008281D02*
X022957Y008281D01*
X022926Y008475D02*
X022651Y008475D01*
X022696Y008523D02*
X022967Y008523D01*
X022978Y008568D02*
X022978Y008618D01*
X022975Y008641D01*
X022966Y008663D01*
X022951Y008681D01*
X022933Y008696D01*
X022911Y008705D01*
X022888Y008708D01*
X022738Y008708D01*
X022717Y008705D01*
X022698Y008697D01*
X022681Y008684D01*
X022668Y008668D01*
X022660Y008648D01*
X022658Y008628D01*
X022658Y008608D01*
X022758Y008608D01*
X022778Y008638D01*
X022792Y008650D01*
X022808Y008658D01*
X022822Y008660D01*
X022837Y008658D01*
X022851Y008652D01*
X022861Y008641D01*
X022868Y008628D01*
X022871Y008609D01*
X022868Y008590D01*
X022860Y008572D01*
X022869Y008620D02*
X022977Y008620D01*
X022961Y008669D02*
X022669Y008669D01*
X022658Y008620D02*
X022766Y008620D01*
X022358Y008620D02*
X022240Y008620D01*
X022250Y008608D01*
X022256Y008593D01*
X022258Y008578D01*
X022258Y008418D01*
X022256Y008405D01*
X022250Y008394D01*
X022241Y008385D01*
X022230Y008380D01*
X022218Y008378D01*
X022358Y008378D01*
X022358Y008628D01*
X022355Y008648D01*
X022347Y008668D01*
X022334Y008684D01*
X022318Y008697D01*
X022298Y008705D01*
X022278Y008708D01*
X022178Y008708D01*
X022178Y008688D01*
X022175Y008672D01*
X022168Y008658D01*
X022157Y008647D01*
X022143Y008640D01*
X022128Y008638D01*
X022128Y008578D01*
X022128Y008598D01*
X022130Y008610D01*
X022135Y008621D01*
X022144Y008630D01*
X022155Y008636D01*
X022168Y008638D01*
X022198Y008638D01*
X022213Y008636D01*
X022228Y008630D01*
X022240Y008620D01*
X022258Y008572D02*
X022358Y008572D01*
X022358Y008523D02*
X022258Y008523D01*
X022258Y008475D02*
X022358Y008475D01*
X022358Y008426D02*
X022258Y008426D01*
X022218Y008378D02*
X022168Y008378D01*
X022158Y008379D01*
X022150Y008383D01*
X022143Y008390D01*
X022139Y008398D01*
X022138Y008408D01*
X022138Y008328D01*
X022140Y008315D01*
X022145Y008304D01*
X022154Y008295D01*
X022165Y008290D01*
X022178Y008288D01*
X022268Y008288D01*
X022291Y008291D01*
X022313Y008300D01*
X022331Y008314D01*
X022346Y008333D01*
X022355Y008354D01*
X022358Y008378D01*
X022343Y008329D02*
X022138Y008329D01*
X022138Y008378D02*
X022168Y008378D01*
X022138Y008258D02*
X022118Y008228D01*
X022058Y008228D01*
X022045Y008226D01*
X022034Y008220D01*
X022025Y008211D01*
X022020Y008200D01*
X022018Y008188D01*
X022018Y008168D01*
X022021Y008144D01*
X022030Y008123D01*
X022044Y008104D01*
X022063Y008090D01*
X022084Y008081D01*
X022108Y008078D01*
X022258Y008078D01*
X022286Y008081D01*
X022313Y008092D01*
X022336Y008110D01*
X022353Y008133D01*
X022364Y008159D01*
X022368Y008188D01*
X022368Y008218D01*
X022248Y008218D01*
X022244Y008217D01*
X022241Y008215D01*
X022238Y008212D01*
X022238Y008208D01*
X022238Y008198D01*
X022236Y008188D01*
X022232Y008180D01*
X022225Y008173D01*
X022217Y008169D01*
X022208Y008168D01*
X022168Y008168D01*
X022158Y008169D01*
X022150Y008173D01*
X022143Y008180D01*
X022139Y008188D01*
X022138Y008198D01*
X022138Y008258D01*
X022138Y008232D02*
X022121Y008232D01*
X022142Y008184D02*
X022018Y008184D01*
X022025Y008135D02*
X022354Y008135D01*
X022367Y008184D02*
X022234Y008184D01*
X022299Y008087D02*
X022070Y008087D01*
X021508Y008258D02*
X021398Y008888D01*
X021338Y008888D01*
X021448Y008258D01*
X021508Y008258D01*
X021504Y008281D02*
X021444Y008281D01*
X021435Y008329D02*
X021495Y008329D01*
X021487Y008378D02*
X021427Y008378D01*
X021438Y008388D02*
X021528Y008437D01*
X021610Y008497D01*
X021684Y008568D01*
X021746Y008649D01*
X021798Y008738D01*
X021678Y008778D01*
X021558Y008638D01*
X021491Y008570D01*
X021417Y008512D01*
X021335Y008464D01*
X021248Y008428D01*
X020946Y008342D01*
X020638Y008288D01*
X020386Y008271D01*
X020134Y008283D01*
X019885Y008323D01*
X019643Y008392D01*
X019409Y008487D01*
X019188Y008608D01*
X019048Y008698D01*
X018968Y008588D01*
X019188Y008468D01*
X019451Y008343D01*
X019728Y008250D01*
X020013Y008189D01*
X020303Y008162D01*
X020595Y008169D01*
X020884Y008209D01*
X021166Y008282D01*
X021438Y008388D01*
X021412Y008378D02*
X021072Y008378D01*
X021048Y008378D02*
X020926Y008378D01*
X020926Y008375D02*
X020928Y008388D01*
X020928Y008418D01*
X020927Y008422D01*
X020925Y008425D01*
X020922Y008427D01*
X020918Y008428D01*
X020916Y008437D01*
X020912Y008445D01*
X020905Y008452D01*
X020897Y008456D01*
X020888Y008458D01*
X020838Y008458D01*
X020837Y008454D01*
X020835Y008451D01*
X020832Y008448D01*
X020828Y008448D01*
X020818Y008448D01*
X020808Y008418D01*
X020688Y008418D01*
X020688Y008648D01*
X020690Y008666D01*
X020697Y008683D01*
X020708Y008697D01*
X020723Y008708D01*
X020740Y008715D01*
X020758Y008718D01*
X020928Y008718D01*
X020954Y008714D01*
X020978Y008704D01*
X020998Y008688D01*
X021014Y008668D01*
X021024Y008644D01*
X021028Y008618D01*
X021028Y008588D01*
X021027Y008584D01*
X021025Y008581D01*
X021022Y008578D01*
X021018Y008578D01*
X020918Y008578D01*
X020918Y008598D01*
X020916Y008607D01*
X020912Y008615D01*
X020905Y008622D01*
X020897Y008626D01*
X020888Y008628D01*
X020838Y008628D01*
X020828Y008626D01*
X020820Y008622D01*
X020813Y008615D01*
X020809Y008607D01*
X020808Y008598D01*
X020808Y008558D01*
X020810Y008545D01*
X020815Y008534D01*
X020824Y008525D01*
X020835Y008520D01*
X020848Y008518D01*
X020848Y008514D01*
X020851Y008511D01*
X020854Y008508D01*
X020858Y008508D01*
X020898Y008508D01*
X020899Y008498D01*
X020903Y008490D01*
X020910Y008483D01*
X020918Y008479D01*
X020928Y008478D01*
X020988Y008478D01*
X021003Y008476D01*
X021018Y008470D01*
X021030Y008460D01*
X021040Y008448D01*
X021046Y008433D01*
X021048Y008418D01*
X021048Y008348D01*
X021045Y008327D01*
X021037Y008308D01*
X021024Y008291D01*
X021008Y008278D01*
X020988Y008270D01*
X020968Y008268D01*
X020838Y008268D01*
X020836Y008275D01*
X020832Y008282D01*
X020825Y008286D01*
X020818Y008288D01*
X020798Y008288D01*
X020790Y008286D01*
X020784Y008282D01*
X020779Y008275D01*
X020778Y008268D01*
X020668Y008268D01*
X020668Y008288D01*
X020668Y008292D01*
X020671Y008295D01*
X020674Y008297D01*
X020678Y008298D01*
X020678Y008358D01*
X020679Y008367D01*
X020683Y008375D01*
X020690Y008382D01*
X020698Y008386D01*
X020708Y008388D01*
X020798Y008388D01*
X020799Y008378D01*
X020803Y008370D01*
X020810Y008363D01*
X020818Y008359D01*
X020828Y008358D01*
X020868Y008358D01*
X020872Y008357D01*
X020875Y008355D01*
X020877Y008352D01*
X020878Y008348D01*
X020888Y008348D01*
X020900Y008350D01*
X020911Y008355D01*
X020920Y008364D01*
X020926Y008375D01*
X020923Y008426D02*
X021047Y008426D01*
X021005Y008475D02*
X020688Y008475D01*
X020688Y008523D02*
X020828Y008523D01*
X020808Y008572D02*
X020688Y008572D01*
X020688Y008620D02*
X020818Y008620D01*
X020907Y008620D02*
X021027Y008620D01*
X021014Y008669D02*
X020691Y008669D01*
X020754Y008717D02*
X020931Y008717D01*
X021069Y008810D02*
X021068Y008818D01*
X021068Y008878D01*
X021068Y008882D01*
X021071Y008885D01*
X021074Y008887D01*
X021078Y008888D01*
X021118Y008888D01*
X021148Y008888D01*
X021208Y008888D01*
X021225Y008885D01*
X021241Y008878D01*
X021254Y008867D01*
X021263Y008852D01*
X021268Y008835D01*
X021268Y008818D01*
X021266Y008808D01*
X021262Y008800D01*
X021255Y008793D01*
X021247Y008789D01*
X021238Y008788D01*
X021148Y008788D01*
X021147Y008792D01*
X021145Y008795D01*
X021142Y008797D01*
X021138Y008798D01*
X021088Y008798D01*
X021080Y008799D01*
X021074Y008804D01*
X021069Y008810D01*
X021068Y008814D02*
X021267Y008814D01*
X021256Y008863D02*
X021068Y008863D01*
X021075Y008960D02*
X020735Y008960D01*
X020780Y008967D02*
X020658Y008948D01*
X020408Y008941D01*
X020159Y008966D01*
X019916Y009020D01*
X019681Y009105D01*
X019458Y009218D01*
X019268Y009218D01*
X019348Y009148D01*
X019409Y009102D01*
X019476Y009065D01*
X019548Y009038D01*
X019928Y008918D01*
X020065Y008881D01*
X020206Y008861D01*
X020348Y008858D01*
X020778Y008878D01*
X020885Y008891D01*
X020989Y008921D01*
X021087Y008965D01*
X021177Y009024D01*
X021258Y009095D01*
X021328Y009178D01*
X021258Y009218D01*
X021118Y009118D01*
X021012Y009053D01*
X020899Y009002D01*
X020780Y008967D01*
X020913Y009008D02*
X021154Y009008D01*
X021215Y009057D02*
X021019Y009057D01*
X021098Y009105D02*
X021267Y009105D01*
X021308Y009154D02*
X021168Y009154D01*
X021208Y009158D02*
X021048Y009158D01*
X020947Y009167D01*
X020849Y009193D01*
X020758Y009235D01*
X020675Y009293D01*
X020603Y009365D01*
X020545Y009448D01*
X020503Y009539D01*
X020477Y009637D01*
X020468Y009738D01*
X020908Y009738D01*
X020912Y009737D01*
X020915Y009735D01*
X020917Y009732D01*
X020918Y009728D01*
X020918Y009698D01*
X020921Y009667D01*
X020932Y009637D01*
X020948Y009610D01*
X020970Y009588D01*
X020997Y009572D01*
X021027Y009561D01*
X021058Y009558D01*
X021178Y009558D01*
X021213Y009562D01*
X021247Y009574D01*
X021277Y009593D01*
X021303Y009618D01*
X021322Y009648D01*
X021334Y009682D01*
X021338Y009718D01*
X021338Y010118D01*
X021334Y010153D01*
X021322Y010187D01*
X021303Y010217D01*
X021277Y010243D01*
X021247Y010262D01*
X021213Y010274D01*
X021178Y010278D01*
X021078Y010278D01*
X021042Y010274D01*
X021008Y010262D01*
X020978Y010243D01*
X020953Y010217D01*
X020934Y010187D01*
X020922Y010153D01*
X020918Y010118D01*
X020918Y009968D01*
X020908Y009968D01*
X020478Y009958D01*
X020478Y010148D01*
X020486Y010243D01*
X020511Y010336D01*
X020551Y010423D01*
X020606Y010501D01*
X020674Y010569D01*
X020753Y010624D01*
X020840Y010665D01*
X020932Y010689D01*
X021028Y010698D01*
X021248Y010698D01*
X021333Y010690D01*
X021415Y010668D01*
X021493Y010632D01*
X021563Y010583D01*
X021623Y010523D01*
X021672Y010453D01*
X021708Y010375D01*
X021730Y010293D01*
X021738Y010208D01*
X021738Y009688D01*
X021730Y009596D01*
X021706Y009506D01*
X021667Y009423D01*
X021614Y009347D01*
X021548Y009282D01*
X021473Y009229D01*
X021389Y009190D01*
X021300Y009166D01*
X021208Y009158D01*
X021236Y009202D02*
X021285Y009202D01*
X021416Y009202D02*
X020829Y009202D01*
X020736Y009251D02*
X021504Y009251D01*
X021566Y009299D02*
X020669Y009299D01*
X020621Y009348D02*
X021614Y009348D01*
X021648Y009396D02*
X020581Y009396D01*
X020548Y009445D02*
X021677Y009445D01*
X021700Y009493D02*
X020524Y009493D01*
X020502Y009542D02*
X021715Y009542D01*
X021718Y009588D02*
X021738Y009598D01*
X022348Y011288D01*
X022238Y011328D01*
X021908Y010308D01*
X021718Y009838D01*
X021718Y009588D01*
X021718Y009590D02*
X021723Y009590D01*
X021728Y009590D02*
X021274Y009590D01*
X021316Y009639D02*
X021733Y009639D01*
X021718Y009639D02*
X021753Y009639D01*
X021738Y009687D02*
X021334Y009687D01*
X021338Y009736D02*
X021738Y009736D01*
X021718Y009736D02*
X021788Y009736D01*
X021805Y009784D02*
X021718Y009784D01*
X021738Y009784D02*
X021338Y009784D01*
X021338Y009833D02*
X021738Y009833D01*
X021718Y009833D02*
X021823Y009833D01*
X021840Y009881D02*
X021735Y009881D01*
X021738Y009881D02*
X021338Y009881D01*
X021338Y009930D02*
X021738Y009930D01*
X021755Y009930D02*
X021858Y009930D01*
X021875Y009978D02*
X021775Y009978D01*
X021738Y009978D02*
X021338Y009978D01*
X021338Y010027D02*
X021738Y010027D01*
X021738Y010075D02*
X021338Y010075D01*
X021337Y010124D02*
X021738Y010124D01*
X021738Y010172D02*
X021327Y010172D01*
X021300Y010221D02*
X021737Y010221D01*
X021732Y010269D02*
X021226Y010269D01*
X021029Y010269D02*
X020493Y010269D01*
X020484Y010221D02*
X020956Y010221D01*
X020928Y010172D02*
X020480Y010172D01*
X020478Y010124D02*
X020918Y010124D01*
X020918Y010075D02*
X020478Y010075D01*
X020478Y010027D02*
X020918Y010027D01*
X020918Y009978D02*
X020478Y009978D01*
X020468Y009938D02*
X020908Y009938D01*
X020938Y009968D01*
X020928Y009968D01*
X020928Y009768D01*
X020468Y009768D01*
X020468Y009938D01*
X020468Y009930D02*
X020928Y009930D01*
X020928Y009881D02*
X020468Y009881D01*
X020468Y009833D02*
X020928Y009833D01*
X020928Y009784D02*
X020468Y009784D01*
X020468Y009736D02*
X020913Y009736D01*
X020919Y009687D02*
X020472Y009687D01*
X020476Y009639D02*
X020931Y009639D01*
X020968Y009590D02*
X020489Y009590D01*
X019808Y009918D02*
X019828Y010028D01*
X019844Y010131D01*
X019845Y010235D01*
X019829Y010338D01*
X019798Y010438D01*
X019777Y010481D01*
X019750Y010522D01*
X019718Y010558D01*
X019648Y010638D01*
X019628Y010659D01*
X019604Y010675D01*
X019576Y010684D01*
X019548Y010688D01*
X019328Y010688D01*
X019273Y010682D01*
X019221Y010666D01*
X019172Y010641D01*
X019130Y010606D01*
X019095Y010563D01*
X019069Y010515D01*
X019053Y010462D01*
X019048Y010408D01*
X019048Y010228D01*
X019050Y010212D01*
X019056Y010198D01*
X019065Y010185D01*
X019078Y010176D01*
X019092Y010170D01*
X019108Y010168D01*
X019468Y010168D01*
X019471Y010191D01*
X019480Y010213D01*
X019494Y010231D01*
X019513Y010246D01*
X019534Y010255D01*
X019558Y010258D01*
X019648Y010258D01*
X019681Y010254D01*
X019713Y010243D01*
X019741Y010225D01*
X019765Y010201D01*
X019783Y010173D01*
X019794Y010141D01*
X019798Y010108D01*
X019802Y010107D01*
X019805Y010105D01*
X019807Y010102D01*
X019808Y010098D01*
X019808Y009918D01*
X019808Y009930D02*
X019810Y009930D01*
X019808Y009978D02*
X019819Y009978D01*
X019828Y010027D02*
X019808Y010027D01*
X019808Y010075D02*
X019835Y010075D01*
X019843Y010124D02*
X019796Y010124D01*
X019783Y010172D02*
X019844Y010172D01*
X019845Y010221D02*
X019745Y010221D01*
X019839Y010269D02*
X019048Y010269D01*
X019049Y010221D02*
X019486Y010221D01*
X019468Y010172D02*
X019086Y010172D01*
X019048Y010318D02*
X019832Y010318D01*
X019820Y010366D02*
X019048Y010366D01*
X019048Y010415D02*
X019805Y010415D01*
X019785Y010463D02*
X019053Y010463D01*
X019068Y010512D02*
X019756Y010512D01*
X019716Y010560D02*
X019093Y010560D01*
X019133Y010609D02*
X019673Y010609D01*
X019629Y010657D02*
X019203Y010657D01*
X018732Y010415D02*
X017573Y010415D01*
X017571Y010413D02*
X017626Y010491D01*
X017694Y010559D01*
X017773Y010614D01*
X017860Y010655D01*
X017952Y010679D01*
X018048Y010688D01*
X018308Y010688D01*
X018389Y010681D01*
X018468Y010659D01*
X018543Y010625D01*
X018610Y010578D01*
X018668Y010520D01*
X018715Y010453D01*
X018749Y010378D01*
X018771Y010299D01*
X018778Y010218D01*
X018778Y009688D01*
X018770Y009597D01*
X018746Y009510D01*
X018708Y009428D01*
X018656Y009353D01*
X018592Y009289D01*
X018518Y009237D01*
X018436Y009199D01*
X018348Y009176D01*
X018258Y009168D01*
X018068Y009168D01*
X018064Y009167D01*
X018061Y009165D01*
X018058Y009162D01*
X018058Y009158D01*
X017988Y009158D01*
X017917Y009164D01*
X017848Y009182D01*
X017783Y009213D01*
X017724Y009254D01*
X017674Y009304D01*
X017633Y009363D01*
X017602Y009428D01*
X017584Y009497D01*
X017578Y009568D01*
X017918Y009608D01*
X017918Y009598D01*
X017921Y009574D01*
X017930Y009553D01*
X017944Y009534D01*
X017963Y009520D01*
X017984Y009511D01*
X018008Y009508D01*
X018010Y009495D01*
X018015Y009484D01*
X018024Y009475D01*
X018035Y009470D01*
X018048Y009468D01*
X018178Y009468D01*
X018216Y009472D01*
X018251Y009485D01*
X018284Y009505D01*
X018311Y009532D01*
X018331Y009564D01*
X018343Y009600D01*
X018348Y009638D01*
X018348Y009688D01*
X018344Y009716D01*
X018333Y009743D01*
X018316Y009766D01*
X018293Y009783D01*
X018266Y009794D01*
X018238Y009798D01*
X018238Y009908D01*
X018241Y009937D01*
X018251Y009964D01*
X018266Y009989D01*
X018287Y010009D01*
X018311Y010025D01*
X018339Y010034D01*
X018368Y010038D01*
X018368Y010198D01*
X018363Y010240D01*
X018349Y010280D01*
X018326Y010316D01*
X018296Y010346D01*
X018260Y010369D01*
X018220Y010383D01*
X018178Y010388D01*
X018127Y010383D01*
X018078Y010368D01*
X018033Y010344D01*
X017994Y010312D01*
X017962Y010272D01*
X017938Y010227D01*
X017923Y010178D01*
X017918Y010128D01*
X017918Y010098D01*
X017928Y010068D01*
X017508Y010068D01*
X017504Y010067D01*
X017501Y010065D01*
X017498Y010062D01*
X017498Y010058D01*
X017498Y010138D01*
X017506Y010233D01*
X017531Y010326D01*
X017571Y010413D01*
X017550Y010366D02*
X018075Y010366D01*
X018001Y010318D02*
X017529Y010318D01*
X017516Y010269D02*
X017960Y010269D01*
X017936Y010221D02*
X017505Y010221D01*
X017501Y010172D02*
X017922Y010172D01*
X017918Y010124D02*
X017498Y010124D01*
X017498Y010075D02*
X017925Y010075D01*
X017608Y010058D02*
X017528Y009998D01*
X017309Y010035D01*
X017088Y010048D01*
X017058Y010048D01*
X017058Y010108D01*
X017212Y010113D01*
X017366Y010103D01*
X017518Y010078D01*
X017608Y010058D01*
X017566Y010027D02*
X017358Y010027D01*
X017529Y010075D02*
X017058Y010075D01*
X017580Y009542D02*
X017938Y009542D01*
X017919Y009590D02*
X017769Y009590D01*
X017585Y009493D02*
X018011Y009493D01*
X018265Y009493D02*
X018739Y009493D01*
X018755Y009542D02*
X018317Y009542D01*
X018340Y009590D02*
X018768Y009590D01*
X018773Y009639D02*
X018348Y009639D01*
X018348Y009687D02*
X018778Y009687D01*
X018778Y009736D02*
X018336Y009736D01*
X018290Y009784D02*
X018778Y009784D01*
X018778Y009833D02*
X018238Y009833D01*
X018238Y009881D02*
X018778Y009881D01*
X018778Y009930D02*
X018240Y009930D01*
X018259Y009978D02*
X018778Y009978D01*
X018778Y010027D02*
X018317Y010027D01*
X018368Y010075D02*
X018778Y010075D01*
X018778Y010124D02*
X018368Y010124D01*
X018368Y010172D02*
X018778Y010172D01*
X018777Y010221D02*
X018365Y010221D01*
X018353Y010269D02*
X018773Y010269D01*
X018766Y010318D02*
X018325Y010318D01*
X018264Y010366D02*
X018753Y010366D01*
X018707Y010463D02*
X017607Y010463D01*
X017647Y010512D02*
X018673Y010512D01*
X018627Y010560D02*
X017696Y010560D01*
X017765Y010609D02*
X018566Y010609D01*
X018473Y010657D02*
X017870Y010657D01*
X018718Y009588D02*
X018678Y009498D01*
X019058Y009298D01*
X019098Y009368D01*
X019078Y009408D01*
X018718Y009588D01*
X018697Y009542D02*
X018810Y009542D01*
X018778Y009445D02*
X019004Y009445D01*
X019083Y009396D02*
X018871Y009396D01*
X018963Y009348D02*
X019086Y009348D01*
X019059Y009299D02*
X019055Y009299D01*
X018907Y009493D02*
X018686Y009493D01*
X018716Y009445D02*
X017598Y009445D01*
X017617Y009396D02*
X018686Y009396D01*
X018650Y009348D02*
X017643Y009348D01*
X017628Y009348D02*
X018338Y009051D01*
X019028Y008708D01*
X018958Y008618D01*
X018488Y008838D01*
X017988Y009078D01*
X017679Y009209D01*
X017358Y009306D01*
X017028Y009368D01*
X017038Y009438D01*
X017138Y009438D01*
X017304Y009428D01*
X017468Y009397D01*
X017628Y009348D01*
X017135Y009348D01*
X017032Y009396D02*
X017472Y009396D01*
X017381Y009299D02*
X017744Y009299D01*
X017728Y009251D02*
X018537Y009251D01*
X018602Y009299D02*
X017679Y009299D01*
X017695Y009202D02*
X017976Y009202D01*
X017923Y009105D02*
X018208Y009105D01*
X018132Y009008D02*
X018423Y009008D01*
X018521Y008960D02*
X018233Y008960D01*
X018335Y008911D02*
X018618Y008911D01*
X018716Y008863D02*
X018436Y008863D01*
X018538Y008814D02*
X018814Y008814D01*
X018911Y008766D02*
X018641Y008766D01*
X018745Y008717D02*
X019009Y008717D01*
X018997Y008669D02*
X018849Y008669D01*
X018881Y008645D02*
X018884Y008647D01*
X018888Y008648D01*
X018890Y008666D01*
X018897Y008683D01*
X018908Y008697D01*
X018923Y008708D01*
X018940Y008715D01*
X018958Y008718D01*
X019108Y008718D01*
X019131Y008715D01*
X019153Y008706D01*
X019171Y008691D01*
X019186Y008673D01*
X019195Y008651D01*
X019198Y008628D01*
X019198Y008578D01*
X019098Y008578D01*
X019098Y008598D01*
X019096Y008605D01*
X019092Y008612D01*
X019085Y008616D01*
X019078Y008618D01*
X019008Y008618D01*
X019004Y008617D01*
X019001Y008615D01*
X018998Y008612D01*
X018998Y008608D01*
X018998Y008548D01*
X018999Y008538D01*
X019003Y008530D01*
X019010Y008523D01*
X019018Y008519D01*
X019028Y008518D01*
X019098Y008518D01*
X019124Y008515D01*
X019150Y008506D01*
X019173Y008492D01*
X019192Y008473D01*
X019206Y008450D01*
X019215Y008424D01*
X019218Y008398D01*
X019218Y008318D01*
X019215Y008300D01*
X019208Y008283D01*
X019197Y008268D01*
X019183Y008257D01*
X019166Y008250D01*
X019148Y008248D01*
X019048Y008248D01*
X019035Y008250D01*
X019024Y008255D01*
X019015Y008264D01*
X019010Y008275D01*
X019008Y008288D01*
X019008Y008358D01*
X019009Y008350D01*
X019014Y008344D01*
X019020Y008339D01*
X019028Y008338D01*
X019068Y008338D01*
X019080Y008340D01*
X019091Y008345D01*
X019100Y008354D01*
X019106Y008365D01*
X019108Y008378D01*
X019218Y008378D01*
X019214Y008426D02*
X019106Y008426D01*
X019106Y008430D02*
X019100Y008441D01*
X019091Y008450D01*
X019080Y008456D01*
X019068Y008458D01*
X019018Y008458D01*
X018987Y008461D01*
X018957Y008472D01*
X018930Y008488D01*
X018908Y008510D01*
X018892Y008537D01*
X018881Y008567D01*
X018878Y008598D01*
X018878Y008628D01*
X018878Y008638D01*
X018878Y008642D01*
X018881Y008645D01*
X018878Y008620D02*
X019198Y008620D01*
X019168Y008620D02*
X018991Y008620D01*
X018960Y008620D02*
X018952Y008620D01*
X018997Y008572D02*
X019254Y008572D01*
X019278Y008572D02*
X019415Y008572D01*
X019418Y008578D02*
X019408Y008558D01*
X019278Y008558D01*
X019278Y008608D01*
X019281Y008636D01*
X019292Y008663D01*
X019310Y008686D01*
X019333Y008703D01*
X019359Y008714D01*
X019388Y008718D01*
X019518Y008718D01*
X019544Y008715D01*
X019570Y008706D01*
X019593Y008692D01*
X019612Y008673D01*
X019626Y008650D01*
X019635Y008624D01*
X019638Y008598D01*
X019638Y008368D01*
X019634Y008339D01*
X019623Y008313D01*
X019606Y008290D01*
X019583Y008272D01*
X019556Y008261D01*
X019528Y008258D01*
X019408Y008258D01*
X019379Y008261D01*
X019351Y008271D01*
X019327Y008286D01*
X019306Y008307D01*
X019291Y008331D01*
X019281Y008359D01*
X019278Y008388D01*
X019278Y008398D01*
X019278Y008402D01*
X019281Y008405D01*
X019284Y008407D01*
X019288Y008408D01*
X019408Y008408D01*
X019408Y008368D01*
X019409Y008360D01*
X019414Y008354D01*
X019420Y008349D01*
X019428Y008348D01*
X019458Y008348D01*
X019478Y008350D01*
X019498Y008358D01*
X019514Y008371D01*
X019527Y008388D01*
X019535Y008407D01*
X019538Y008428D01*
X019538Y008568D01*
X019536Y008580D01*
X019530Y008591D01*
X019521Y008600D01*
X019510Y008606D01*
X019498Y008608D01*
X019448Y008608D01*
X019446Y008598D01*
X019442Y008590D01*
X019435Y008583D01*
X019427Y008579D01*
X019418Y008578D01*
X019342Y008523D02*
X019086Y008523D01*
X019010Y008523D02*
X018900Y008523D01*
X018881Y008572D02*
X018998Y008572D01*
X019027Y008669D02*
X019093Y008669D01*
X019111Y008717D02*
X018954Y008717D01*
X018891Y008669D02*
X019187Y008669D01*
X019279Y008620D02*
X019635Y008620D01*
X019638Y008572D02*
X019537Y008572D01*
X019538Y008523D02*
X019638Y008523D01*
X019638Y008475D02*
X019538Y008475D01*
X019538Y008426D02*
X019638Y008426D01*
X019638Y008378D02*
X019519Y008378D01*
X019493Y008329D02*
X019864Y008329D01*
X019811Y008232D02*
X020974Y008232D01*
X021011Y008281D02*
X020833Y008281D01*
X020783Y008281D02*
X020668Y008281D01*
X020678Y008329D02*
X021045Y008329D01*
X021160Y008281D02*
X020532Y008281D01*
X020448Y008288D02*
X020446Y008280D01*
X020442Y008274D01*
X020435Y008269D01*
X020428Y008268D01*
X020308Y008268D01*
X020287Y008270D01*
X020268Y008278D01*
X020251Y008291D01*
X020238Y008308D01*
X020230Y008327D01*
X020228Y008348D01*
X020228Y008618D01*
X020231Y008641D01*
X020240Y008663D01*
X020254Y008681D01*
X020273Y008696D01*
X020294Y008705D01*
X020318Y008708D01*
X020418Y008708D01*
X020430Y008706D01*
X020441Y008700D01*
X020450Y008691D01*
X020456Y008680D01*
X020458Y008668D01*
X020458Y008628D01*
X020458Y008624D01*
X020461Y008621D01*
X020464Y008618D01*
X020468Y008618D01*
X020478Y008568D01*
X020458Y008568D01*
X020458Y008598D01*
X020456Y008610D01*
X020450Y008621D01*
X020441Y008630D01*
X020430Y008636D01*
X020418Y008638D01*
X020388Y008638D01*
X020375Y008636D01*
X020364Y008630D01*
X020355Y008621D01*
X020350Y008610D01*
X020348Y008598D01*
X020348Y008368D01*
X020348Y008364D01*
X020351Y008361D01*
X020354Y008358D01*
X020358Y008358D01*
X020408Y008358D01*
X020420Y008360D01*
X020431Y008365D01*
X020440Y008374D01*
X020446Y008385D01*
X020448Y008398D01*
X020448Y008288D01*
X020446Y008281D02*
X020265Y008281D01*
X020230Y008329D02*
X020448Y008329D01*
X020442Y008378D02*
X020448Y008378D01*
X020348Y008378D02*
X020228Y008378D01*
X020228Y008426D02*
X020348Y008426D01*
X020348Y008475D02*
X020228Y008475D01*
X020228Y008523D02*
X020348Y008523D01*
X020348Y008572D02*
X020228Y008572D01*
X020228Y008620D02*
X020355Y008620D01*
X020451Y008620D02*
X020461Y008620D01*
X020458Y008572D02*
X020477Y008572D01*
X020458Y008669D02*
X020244Y008669D01*
X020190Y008863D02*
X020456Y008863D01*
X020219Y008960D02*
X019795Y008960D01*
X019815Y009057D02*
X019497Y009057D01*
X019404Y009105D02*
X019680Y009105D01*
X019641Y009008D02*
X019970Y009008D01*
X019952Y008911D02*
X020955Y008911D01*
X021342Y008863D02*
X021402Y008863D01*
X021411Y008814D02*
X021351Y008814D01*
X021359Y008766D02*
X021419Y008766D01*
X021427Y008717D02*
X021367Y008717D01*
X021376Y008669D02*
X021436Y008669D01*
X021444Y008620D02*
X021384Y008620D01*
X021393Y008572D02*
X021453Y008572D01*
X021493Y008572D02*
X021686Y008572D01*
X021698Y008578D02*
X021698Y008598D01*
X021699Y008605D01*
X021704Y008612D01*
X021710Y008616D01*
X021718Y008618D01*
X021758Y008618D01*
X021770Y008616D01*
X021781Y008610D01*
X021790Y008601D01*
X021796Y008590D01*
X021798Y008578D01*
X021798Y008658D01*
X021796Y008670D01*
X021790Y008681D01*
X021781Y008690D01*
X021770Y008696D01*
X021758Y008698D01*
X021728Y008708D01*
X021628Y008708D01*
X021615Y008706D01*
X021604Y008700D01*
X021595Y008691D01*
X021590Y008680D01*
X021588Y008668D01*
X021588Y008618D01*
X021589Y008608D01*
X021593Y008600D01*
X021600Y008593D01*
X021608Y008589D01*
X021618Y008588D01*
X021688Y008588D01*
X021692Y008587D01*
X021695Y008585D01*
X021697Y008582D01*
X021698Y008578D01*
X021724Y008620D02*
X021541Y008620D01*
X021588Y008620D02*
X021798Y008620D01*
X021796Y008669D02*
X021588Y008669D01*
X021584Y008669D02*
X021758Y008669D01*
X021788Y008698D02*
X021828Y008738D01*
X021952Y008880D01*
X022056Y009038D01*
X022138Y009208D01*
X022098Y009348D01*
X021998Y009188D01*
X021821Y008937D01*
X021618Y008708D01*
X021788Y008698D01*
X021786Y008717D02*
X021626Y008717D01*
X021807Y008717D01*
X021852Y008766D02*
X021669Y008766D01*
X021667Y008766D02*
X021714Y008766D01*
X021712Y008814D02*
X021895Y008814D01*
X021937Y008863D02*
X021755Y008863D01*
X021798Y008911D02*
X021973Y008911D01*
X022005Y008960D02*
X021837Y008960D01*
X021871Y009008D02*
X022037Y009008D01*
X022065Y009057D02*
X021905Y009057D01*
X021940Y009105D02*
X022088Y009105D01*
X022112Y009154D02*
X021974Y009154D01*
X022007Y009202D02*
X022135Y009202D01*
X022125Y009251D02*
X022037Y009251D01*
X022067Y009299D02*
X022112Y009299D01*
X021770Y009687D02*
X021718Y009687D01*
X021794Y010027D02*
X021893Y010027D01*
X021910Y010075D02*
X021814Y010075D01*
X021833Y010124D02*
X021928Y010124D01*
X021945Y010172D02*
X021853Y010172D01*
X021873Y010221D02*
X021963Y010221D01*
X021980Y010269D02*
X021892Y010269D01*
X021911Y010318D02*
X021998Y010318D01*
X022015Y010366D02*
X021927Y010366D01*
X021942Y010415D02*
X022033Y010415D01*
X022050Y010463D02*
X021958Y010463D01*
X021974Y010512D02*
X022068Y010512D01*
X022085Y010560D02*
X021989Y010560D01*
X022005Y010609D02*
X022103Y010609D01*
X022120Y010657D02*
X022021Y010657D01*
X022037Y010706D02*
X022138Y010706D01*
X022155Y010754D02*
X022052Y010754D01*
X022068Y010803D02*
X022173Y010803D01*
X022190Y010851D02*
X022084Y010851D01*
X022099Y010900D02*
X022208Y010900D01*
X022225Y010948D02*
X022115Y010948D01*
X022131Y010997D02*
X022243Y010997D01*
X022260Y011045D02*
X022146Y011045D01*
X022162Y011094D02*
X022278Y011094D01*
X022295Y011142D02*
X022178Y011142D01*
X022193Y011191D02*
X022313Y011191D01*
X022330Y011239D02*
X022209Y011239D01*
X022228Y011239D02*
X022333Y011239D01*
X022345Y011288D02*
X022228Y011288D01*
X022225Y011288D02*
X022348Y011288D01*
X022359Y011336D02*
X022235Y011336D01*
X022247Y011385D02*
X022378Y011385D01*
X022397Y011433D02*
X022263Y011433D01*
X022279Y011482D02*
X022424Y011482D01*
X022451Y011530D02*
X022301Y011530D01*
X022326Y011579D02*
X022485Y011579D01*
X022521Y011627D02*
X022358Y011627D01*
X022393Y011676D02*
X022567Y011676D01*
X022617Y011724D02*
X022437Y011724D01*
X022487Y011773D02*
X022697Y011773D01*
X022634Y011870D02*
X023051Y011870D01*
X023121Y011821D02*
X022551Y011821D01*
X022777Y011918D02*
X022910Y011918D01*
X022927Y011773D02*
X023170Y011773D01*
X023207Y011724D02*
X023008Y011724D01*
X023056Y011676D02*
X023233Y011676D01*
X023258Y011627D02*
X023095Y011627D01*
X023134Y011579D02*
X023281Y011579D01*
X023305Y011530D02*
X023174Y011530D01*
X023213Y011482D02*
X023329Y011482D01*
X023353Y011433D02*
X023245Y011433D01*
X023275Y011385D02*
X023377Y011385D01*
X023401Y011336D02*
X023306Y011336D01*
X023336Y011288D02*
X023427Y011288D01*
X023456Y011239D02*
X023366Y011239D01*
X023391Y011191D02*
X023485Y011191D01*
X023514Y011142D02*
X023413Y011142D01*
X023435Y011094D02*
X023542Y011094D01*
X023773Y010609D02*
X022960Y010609D01*
X022899Y010560D02*
X023833Y010560D01*
X023875Y010512D02*
X022855Y010512D01*
X022822Y010463D02*
X023907Y010463D01*
X023930Y010415D02*
X022799Y010415D01*
X023492Y010366D02*
X023944Y010366D01*
X023952Y010339D02*
X023958Y010268D01*
X023958Y010248D01*
X023558Y010188D01*
X023548Y010198D01*
X023529Y010257D01*
X023518Y010318D01*
X023527Y010269D02*
X023958Y010269D01*
X023778Y010221D02*
X023541Y010221D01*
X024178Y010348D02*
X024168Y010468D01*
X024118Y010978D01*
X024103Y011188D01*
X024108Y011398D01*
X024111Y011414D01*
X024118Y011429D01*
X024129Y011442D01*
X024142Y011452D01*
X024158Y011458D01*
X024174Y011459D01*
X024191Y011456D01*
X024206Y011449D01*
X024218Y011438D01*
X024389Y011203D01*
X024536Y010952D01*
X024658Y010688D01*
X024558Y010718D01*
X024498Y010838D01*
X024371Y011056D01*
X024218Y011258D01*
X024198Y011238D01*
X024198Y011158D01*
X024210Y010842D01*
X024248Y010528D01*
X024198Y010358D01*
X024178Y010348D01*
X024176Y010366D02*
X024200Y010366D01*
X024215Y010366D02*
X025054Y010366D01*
X025068Y010366D02*
X024648Y010366D01*
X024648Y010408D02*
X025068Y010408D01*
X025068Y009978D01*
X025088Y009848D01*
X025028Y010038D01*
X024997Y010116D01*
X024957Y010190D01*
X024908Y010258D01*
X024882Y010282D01*
X024852Y010299D01*
X024818Y010309D01*
X024783Y010310D01*
X024748Y010303D01*
X024716Y010288D01*
X024689Y010266D01*
X024668Y010238D01*
X024648Y010238D01*
X024648Y010408D01*
X024678Y010328D02*
X025058Y010328D01*
X025058Y010338D01*
X025118Y010278D01*
X025018Y010418D01*
X024940Y010511D01*
X024849Y010592D01*
X024748Y010658D01*
X024681Y010686D01*
X024609Y010701D01*
X024537Y010700D01*
X024465Y010686D01*
X024399Y010657D01*
X024339Y010615D01*
X024289Y010562D01*
X024250Y010501D01*
X024225Y010432D01*
X024214Y010360D01*
X024218Y010288D01*
X024678Y010288D01*
X024678Y010328D01*
X024678Y010318D02*
X024216Y010318D01*
X024215Y010415D02*
X024172Y010415D01*
X024168Y010463D02*
X024229Y010463D01*
X024237Y010463D02*
X024980Y010463D01*
X025028Y010468D02*
X025828Y010468D01*
X025828Y010338D01*
X025828Y010328D01*
X025768Y010448D01*
X025728Y010512D01*
X025678Y010568D01*
X025618Y010614D01*
X025551Y010649D01*
X025479Y010671D01*
X025404Y010680D01*
X025328Y010675D01*
X025255Y010657D01*
X025186Y010626D01*
X025124Y010583D01*
X025071Y010530D01*
X025028Y010468D01*
X025058Y010512D02*
X025728Y010512D01*
X025758Y010463D02*
X025828Y010463D01*
X025828Y010415D02*
X025784Y010415D01*
X025768Y010418D02*
X025748Y010418D01*
X025748Y010158D01*
X025828Y009958D01*
X025758Y010118D01*
X025727Y010175D01*
X025686Y010225D01*
X025638Y010268D01*
X025611Y010283D01*
X025581Y010290D01*
X025550Y010290D01*
X025521Y010282D01*
X025494Y010266D01*
X025472Y010245D01*
X025457Y010218D01*
X025448Y010188D01*
X025448Y010158D01*
X025438Y010158D01*
X025438Y010438D01*
X025768Y010438D01*
X025768Y010418D01*
X025748Y010415D02*
X025438Y010415D01*
X025438Y010366D02*
X025748Y010366D01*
X025748Y010318D02*
X025438Y010318D01*
X025438Y010269D02*
X025499Y010269D01*
X025458Y010221D02*
X025438Y010221D01*
X025438Y010172D02*
X025448Y010172D01*
X025635Y010269D02*
X025748Y010269D01*
X025748Y010221D02*
X025690Y010221D01*
X025728Y010172D02*
X025748Y010172D01*
X025754Y010124D02*
X025761Y010124D01*
X025776Y010075D02*
X025781Y010075D01*
X025798Y010027D02*
X025800Y010027D01*
X025819Y009978D02*
X025820Y009978D01*
X025808Y010366D02*
X025828Y010366D01*
X025684Y010560D02*
X025102Y010560D01*
X025162Y010609D02*
X025625Y010609D01*
X025548Y010676D02*
X025558Y010688D01*
X025568Y010768D01*
X025588Y011338D01*
X025610Y011605D01*
X025656Y011869D01*
X025728Y012128D01*
X025810Y012344D01*
X025914Y012552D01*
X026038Y012748D01*
X026100Y012821D01*
X026173Y012883D01*
X026257Y012930D01*
X026347Y012963D01*
X026442Y012979D01*
X026538Y012978D01*
X026731Y012947D01*
X026919Y012894D01*
X027100Y012819D01*
X027270Y012723D01*
X027428Y012608D01*
X028108Y012038D01*
X028138Y012148D01*
X027688Y012528D01*
X027441Y012716D01*
X027177Y012880D01*
X026898Y013018D01*
X026789Y013056D01*
X026676Y013078D01*
X026562Y013085D01*
X026447Y013075D01*
X026335Y013049D01*
X026228Y013008D01*
X026128Y012954D01*
X026036Y012888D01*
X026183Y012888D01*
X026122Y012840D02*
X025982Y012840D01*
X025952Y012813D02*
X025878Y012728D01*
X025806Y012623D01*
X025746Y012510D01*
X025700Y012391D01*
X025668Y012268D01*
X025578Y011908D01*
X025500Y011512D01*
X025463Y011111D01*
X025468Y010708D01*
X025471Y010693D01*
X025479Y010680D01*
X025491Y010670D01*
X025505Y010664D01*
X025521Y010663D01*
X025535Y010667D01*
X025548Y010676D01*
X025523Y010657D02*
X025258Y010657D01*
X025242Y010657D02*
X025187Y010657D01*
X025160Y010706D02*
X025274Y010706D01*
X025251Y010754D02*
X025133Y010754D01*
X025105Y010803D02*
X025228Y010803D01*
X025205Y010851D02*
X025078Y010851D01*
X025051Y010900D02*
X025182Y010900D01*
X025159Y010948D02*
X025024Y010948D01*
X024997Y010997D02*
X025136Y010997D01*
X025112Y011045D02*
X024970Y011045D01*
X024943Y011094D02*
X025089Y011094D01*
X025066Y011142D02*
X024915Y011142D01*
X024888Y011191D02*
X025043Y011191D01*
X025020Y011239D02*
X024861Y011239D01*
X024834Y011288D02*
X024997Y011288D01*
X024973Y011336D02*
X024807Y011336D01*
X024780Y011385D02*
X024948Y011385D01*
X024922Y011433D02*
X024753Y011433D01*
X024725Y011482D02*
X024896Y011482D01*
X024870Y011530D02*
X024698Y011530D01*
X024671Y011579D02*
X024844Y011579D01*
X024813Y011627D02*
X024644Y011627D01*
X024617Y011676D02*
X024782Y011676D01*
X024751Y011724D02*
X024590Y011724D01*
X024559Y011773D02*
X024719Y011773D01*
X024686Y011821D02*
X024528Y011821D01*
X024488Y011870D02*
X024649Y011870D01*
X024612Y011918D02*
X024444Y011918D01*
X024387Y011967D02*
X024575Y011967D01*
X024537Y012015D02*
X024321Y012015D01*
X024235Y012064D02*
X024492Y012064D01*
X024435Y012112D02*
X023809Y012112D01*
X023889Y012161D02*
X024355Y012161D01*
X024207Y012209D02*
X024034Y012209D01*
X024121Y011433D02*
X024221Y011433D01*
X024256Y011385D02*
X024107Y011385D01*
X024106Y011336D02*
X024292Y011336D01*
X024327Y011288D02*
X024105Y011288D01*
X024104Y011239D02*
X024199Y011239D01*
X024232Y011239D02*
X024363Y011239D01*
X024396Y011191D02*
X024269Y011191D01*
X024306Y011142D02*
X024425Y011142D01*
X024453Y011094D02*
X024342Y011094D01*
X024377Y011045D02*
X024482Y011045D01*
X024510Y010997D02*
X024405Y010997D01*
X024434Y010948D02*
X024538Y010948D01*
X024560Y010900D02*
X024462Y010900D01*
X024490Y010851D02*
X024583Y010851D01*
X024605Y010803D02*
X024515Y010803D01*
X024539Y010754D02*
X024627Y010754D01*
X024649Y010706D02*
X024598Y010706D01*
X024748Y010657D02*
X024400Y010657D01*
X024333Y010609D02*
X024823Y010609D01*
X024885Y010560D02*
X024288Y010560D01*
X024244Y010560D02*
X024159Y010560D01*
X024163Y010512D02*
X024243Y010512D01*
X024257Y010512D02*
X024939Y010512D01*
X025020Y010415D02*
X024222Y010415D01*
X024238Y010609D02*
X024154Y010609D01*
X024149Y010657D02*
X024232Y010657D01*
X024226Y010706D02*
X024144Y010706D01*
X024140Y010754D02*
X024221Y010754D01*
X024215Y010803D02*
X024135Y010803D01*
X024130Y010851D02*
X024210Y010851D01*
X024208Y010900D02*
X024125Y010900D01*
X024121Y010948D02*
X024206Y010948D01*
X024204Y010997D02*
X024116Y010997D01*
X024113Y011045D02*
X024202Y011045D01*
X024200Y011094D02*
X024110Y011094D01*
X024107Y011142D02*
X024198Y011142D01*
X024198Y011191D02*
X024103Y011191D01*
X024648Y010318D02*
X025068Y010318D01*
X025078Y010318D02*
X025089Y010318D01*
X025068Y010269D02*
X024896Y010269D01*
X024839Y010269D02*
X024742Y010269D01*
X024738Y010278D02*
X024818Y010318D01*
X024988Y009938D01*
X025008Y009838D01*
X024978Y009808D01*
X024738Y010278D01*
X024693Y010269D02*
X024648Y010269D01*
X024767Y010221D02*
X024861Y010221D01*
X024883Y010172D02*
X024792Y010172D01*
X024816Y010124D02*
X024905Y010124D01*
X024926Y010075D02*
X024841Y010075D01*
X024866Y010027D02*
X024948Y010027D01*
X024970Y009978D02*
X024891Y009978D01*
X024915Y009930D02*
X024989Y009930D01*
X024999Y009881D02*
X024940Y009881D01*
X024965Y009833D02*
X025003Y009833D01*
X025077Y009881D02*
X025083Y009881D01*
X025075Y009930D02*
X025062Y009930D01*
X025068Y009978D02*
X025047Y009978D01*
X025031Y010027D02*
X025068Y010027D01*
X025068Y010075D02*
X025013Y010075D01*
X024993Y010124D02*
X025068Y010124D01*
X025068Y010172D02*
X024967Y010172D01*
X024935Y010221D02*
X025068Y010221D01*
X025468Y010706D02*
X025560Y010706D01*
X025566Y010754D02*
X025467Y010754D01*
X025467Y010803D02*
X025569Y010803D01*
X025571Y010851D02*
X025466Y010851D01*
X025466Y010900D02*
X025572Y010900D01*
X025574Y010948D02*
X025465Y010948D01*
X025465Y010997D02*
X025576Y010997D01*
X025577Y011045D02*
X025464Y011045D01*
X025463Y011094D02*
X025579Y011094D01*
X025581Y011142D02*
X025466Y011142D01*
X025471Y011191D02*
X025583Y011191D01*
X025584Y011239D02*
X025475Y011239D01*
X025480Y011288D02*
X025586Y011288D01*
X025588Y011336D02*
X025484Y011336D01*
X025488Y011385D02*
X025592Y011385D01*
X025596Y011433D02*
X025493Y011433D01*
X025497Y011482D02*
X025600Y011482D01*
X025604Y011530D02*
X025504Y011530D01*
X025513Y011579D02*
X025608Y011579D01*
X025614Y011627D02*
X025523Y011627D01*
X025532Y011676D02*
X025622Y011676D01*
X025631Y011724D02*
X025542Y011724D01*
X025551Y011773D02*
X025639Y011773D01*
X025648Y011821D02*
X025561Y011821D01*
X025570Y011870D02*
X025657Y011870D01*
X025670Y011918D02*
X025580Y011918D01*
X025592Y011967D02*
X025683Y011967D01*
X025697Y012015D02*
X025605Y012015D01*
X025617Y012064D02*
X025710Y012064D01*
X025723Y012112D02*
X025629Y012112D01*
X025641Y012161D02*
X025740Y012161D01*
X025759Y012209D02*
X025653Y012209D01*
X025665Y012258D02*
X025777Y012258D01*
X025796Y012306D02*
X025678Y012306D01*
X025690Y012355D02*
X025816Y012355D01*
X025840Y012403D02*
X025705Y012403D01*
X025723Y012452D02*
X025864Y012452D01*
X025888Y012500D02*
X025742Y012500D01*
X025766Y012549D02*
X025913Y012549D01*
X025943Y012597D02*
X025792Y012597D01*
X025821Y012646D02*
X025973Y012646D01*
X026004Y012694D02*
X025855Y012694D01*
X025891Y012743D02*
X026035Y012743D01*
X026074Y012791D02*
X025933Y012791D01*
X025952Y012813D02*
X026036Y012888D01*
X026104Y012937D02*
X026275Y012937D01*
X026295Y013034D02*
X026852Y013034D01*
X026964Y012985D02*
X026186Y012985D01*
X026532Y013082D02*
X026607Y013082D01*
X026768Y012937D02*
X027062Y012937D01*
X027050Y012840D02*
X027242Y012840D01*
X027320Y012791D02*
X027149Y012791D01*
X027160Y012888D02*
X026933Y012888D01*
X027235Y012743D02*
X027398Y012743D01*
X027470Y012694D02*
X027309Y012694D01*
X027376Y012646D02*
X027533Y012646D01*
X027597Y012597D02*
X027440Y012597D01*
X027498Y012549D02*
X027660Y012549D01*
X027720Y012500D02*
X027556Y012500D01*
X027614Y012452D02*
X027778Y012452D01*
X027835Y012403D02*
X027672Y012403D01*
X027729Y012355D02*
X027893Y012355D01*
X027950Y012306D02*
X027787Y012306D01*
X027845Y012258D02*
X028007Y012258D01*
X028065Y012209D02*
X027903Y012209D01*
X027961Y012161D02*
X028122Y012161D01*
X028128Y012112D02*
X028019Y012112D01*
X028077Y012064D02*
X028115Y012064D01*
X028144Y012064D02*
X028246Y012064D01*
X028278Y012038D02*
X028168Y012128D01*
X028128Y012018D01*
X028118Y012018D01*
X028108Y011938D01*
X028118Y012008D01*
X027838Y011468D01*
X027928Y011408D01*
X028278Y012038D01*
X028265Y012015D02*
X028117Y012015D01*
X028112Y011967D02*
X028238Y011967D01*
X028211Y011918D02*
X028071Y011918D01*
X028046Y011870D02*
X028184Y011870D01*
X028157Y011821D02*
X028021Y011821D01*
X027996Y011773D02*
X028131Y011773D01*
X028104Y011724D02*
X027971Y011724D01*
X027946Y011676D02*
X028077Y011676D01*
X028050Y011627D02*
X027920Y011627D01*
X027906Y011579D02*
X027723Y011579D01*
X027682Y011627D02*
X027842Y011627D01*
X027788Y011668D02*
X027498Y011898D01*
X027221Y012110D01*
X026928Y012298D01*
X026808Y012355D01*
X026338Y012355D01*
X026341Y012357D02*
X026282Y012316D01*
X026231Y012264D01*
X026191Y012204D01*
X026163Y012138D01*
X026148Y012068D01*
X026117Y011891D01*
X026068Y011718D01*
X026040Y011609D01*
X026028Y011498D01*
X025988Y010688D01*
X025989Y010677D01*
X025993Y010667D01*
X026001Y010660D01*
X026010Y010655D01*
X026021Y010653D01*
X026031Y010655D01*
X026040Y010660D01*
X026048Y010668D01*
X026068Y010868D01*
X026118Y011598D01*
X026133Y011738D01*
X026167Y011874D01*
X026220Y012005D01*
X026291Y012127D01*
X026378Y012238D01*
X026415Y012271D01*
X026459Y012296D01*
X026507Y012311D01*
X026557Y012316D01*
X026607Y012310D01*
X026655Y012294D01*
X026698Y012268D01*
X026716Y012257D01*
X026736Y012250D01*
X026758Y012248D01*
X026771Y012246D01*
X026784Y012241D01*
X026795Y012232D01*
X026803Y012221D01*
X026808Y012208D01*
X026908Y012168D01*
X027116Y012071D01*
X027312Y011952D01*
X027494Y011812D01*
X027660Y011654D01*
X027808Y011478D01*
X027908Y011578D01*
X027788Y011668D01*
X027778Y011676D02*
X027637Y011676D01*
X027586Y011724D02*
X027716Y011724D01*
X027655Y011773D02*
X027536Y011773D01*
X027483Y011821D02*
X027594Y011821D01*
X027533Y011870D02*
X027419Y011870D01*
X027471Y011918D02*
X027356Y011918D01*
X027408Y011967D02*
X027288Y011967D01*
X027345Y012015D02*
X027208Y012015D01*
X027281Y012064D02*
X027128Y012064D01*
X027142Y012161D02*
X026923Y012161D01*
X027027Y012112D02*
X027218Y012112D01*
X027066Y012209D02*
X026807Y012209D01*
X026714Y012258D02*
X026990Y012258D01*
X026910Y012306D02*
X026618Y012306D01*
X026585Y012403D02*
X026474Y012403D01*
X026476Y012404D02*
X026406Y012387D01*
X026341Y012357D01*
X026273Y012306D02*
X026491Y012306D01*
X026476Y012404D02*
X026548Y012408D01*
X026680Y012392D01*
X026808Y012355D01*
X026400Y012258D02*
X026227Y012258D01*
X026195Y012209D02*
X026355Y012209D01*
X026317Y012161D02*
X026173Y012161D01*
X026158Y012112D02*
X026282Y012112D01*
X026254Y012064D02*
X026147Y012064D01*
X026138Y012015D02*
X026226Y012015D01*
X026205Y011967D02*
X026130Y011967D01*
X026121Y011918D02*
X026185Y011918D01*
X026166Y011870D02*
X026111Y011870D01*
X026097Y011821D02*
X026154Y011821D01*
X026142Y011773D02*
X026083Y011773D01*
X026070Y011724D02*
X026131Y011724D01*
X026126Y011676D02*
X026057Y011676D01*
X026044Y011627D02*
X026121Y011627D01*
X026116Y011579D02*
X026036Y011579D01*
X026031Y011530D02*
X026113Y011530D01*
X026110Y011482D02*
X026027Y011482D01*
X026025Y011433D02*
X026106Y011433D01*
X026103Y011385D02*
X026022Y011385D01*
X026020Y011336D02*
X026100Y011336D01*
X026097Y011288D02*
X026017Y011288D01*
X026015Y011239D02*
X026093Y011239D01*
X026090Y011191D02*
X026013Y011191D01*
X026010Y011142D02*
X026087Y011142D01*
X026083Y011094D02*
X026008Y011094D01*
X026005Y011045D02*
X026080Y011045D01*
X026077Y010997D02*
X026003Y010997D01*
X026001Y010948D02*
X026073Y010948D01*
X026070Y010900D02*
X025998Y010900D01*
X025996Y010851D02*
X026066Y010851D01*
X026061Y010803D02*
X025993Y010803D01*
X025991Y010754D02*
X026056Y010754D01*
X026052Y010706D02*
X025989Y010706D01*
X026005Y010657D02*
X026036Y010657D01*
X026058Y009198D02*
X025978Y009198D01*
X025988Y008908D01*
X025985Y008813D01*
X025972Y008719D01*
X025948Y008628D01*
X025928Y008586D01*
X025900Y008550D01*
X025864Y008522D01*
X025823Y008502D01*
X025778Y008493D01*
X025732Y008494D01*
X025688Y008506D01*
X025648Y008528D01*
X025596Y008570D01*
X025551Y008620D01*
X025515Y008676D01*
X025488Y008738D01*
X025318Y009188D01*
X025228Y009188D01*
X025228Y009118D01*
X025248Y009028D01*
X025294Y008867D01*
X025360Y008714D01*
X025445Y008570D01*
X025548Y008438D01*
X025582Y008406D01*
X025623Y008381D01*
X025667Y008366D01*
X025714Y008360D01*
X025761Y008363D01*
X025806Y008376D01*
X025848Y008398D01*
X026038Y008538D01*
X026053Y008554D01*
X026063Y008574D01*
X026069Y008595D01*
X026068Y008618D01*
X026068Y009188D01*
X026058Y009198D01*
X026068Y009154D02*
X025979Y009154D01*
X025981Y009105D02*
X026068Y009105D01*
X026068Y009057D02*
X025983Y009057D01*
X025984Y009008D02*
X026068Y009008D01*
X026068Y008960D02*
X025986Y008960D01*
X025988Y008911D02*
X026068Y008911D01*
X026068Y008863D02*
X025987Y008863D01*
X025985Y008814D02*
X026068Y008814D01*
X026068Y008766D02*
X025979Y008766D01*
X025971Y008717D02*
X026068Y008717D01*
X026068Y008669D02*
X025959Y008669D01*
X025944Y008620D02*
X026068Y008620D01*
X026062Y008572D02*
X025917Y008572D01*
X025866Y008523D02*
X026018Y008523D01*
X025952Y008475D02*
X025519Y008475D01*
X025481Y008523D02*
X025656Y008523D01*
X025595Y008572D02*
X025444Y008572D01*
X025416Y008620D02*
X025551Y008620D01*
X025520Y008669D02*
X025387Y008669D01*
X025359Y008717D02*
X025497Y008717D01*
X025477Y008766D02*
X025338Y008766D01*
X025317Y008814D02*
X025459Y008814D01*
X025440Y008863D02*
X025296Y008863D01*
X025281Y008911D02*
X025422Y008911D01*
X025404Y008960D02*
X025267Y008960D01*
X025253Y009008D02*
X025386Y009008D01*
X025367Y009057D02*
X025241Y009057D01*
X025231Y009105D02*
X025349Y009105D01*
X025331Y009154D02*
X025228Y009154D01*
X025560Y008426D02*
X025886Y008426D01*
X025809Y008378D02*
X025633Y008378D01*
X022346Y008669D02*
X022173Y008669D01*
X022135Y008620D02*
X022128Y008620D01*
X021637Y008523D02*
X021431Y008523D01*
X021401Y008523D02*
X021461Y008523D01*
X021470Y008475D02*
X021410Y008475D01*
X021418Y008426D02*
X021478Y008426D01*
X021509Y008426D02*
X021243Y008426D01*
X021287Y008329D02*
X020874Y008329D01*
X020800Y008378D02*
X020686Y008378D01*
X020688Y008426D02*
X020811Y008426D01*
X020704Y008184D02*
X020072Y008184D01*
X020183Y008281D02*
X019636Y008281D01*
X019594Y008281D02*
X019335Y008281D01*
X019292Y008329D02*
X019630Y008329D01*
X019692Y008378D02*
X019378Y008378D01*
X019408Y008378D02*
X019279Y008378D01*
X019276Y008426D02*
X019557Y008426D01*
X019438Y008475D02*
X019175Y008475D01*
X019189Y008475D02*
X018952Y008475D01*
X019008Y008329D02*
X019218Y008329D01*
X019207Y008281D02*
X019009Y008281D01*
X018978Y008278D02*
X018938Y008318D01*
X018936Y008305D01*
X018930Y008294D01*
X018921Y008285D01*
X018910Y008280D01*
X018898Y008278D01*
X018858Y008278D01*
X018854Y008277D01*
X018851Y008275D01*
X018848Y008272D01*
X018848Y008268D01*
X018848Y008248D01*
X018948Y008248D01*
X018957Y008249D01*
X018965Y008253D01*
X018972Y008260D01*
X018976Y008268D01*
X018978Y008278D01*
X018975Y008281D02*
X018912Y008281D01*
X018728Y008298D02*
X018726Y008285D01*
X018720Y008274D01*
X018711Y008265D01*
X018700Y008260D01*
X018688Y008258D01*
X018558Y008258D01*
X018554Y008258D01*
X018551Y008261D01*
X018548Y008264D01*
X018548Y008268D01*
X018548Y008358D01*
X018598Y008358D01*
X018602Y008357D01*
X018605Y008355D01*
X018607Y008352D01*
X018608Y008348D01*
X018698Y008348D01*
X018728Y008328D01*
X018728Y008298D01*
X018723Y008281D02*
X018548Y008281D01*
X018548Y008329D02*
X018725Y008329D01*
X019108Y008378D02*
X019108Y008418D01*
X019106Y008430D01*
X019297Y008669D02*
X019614Y008669D01*
X019522Y008717D02*
X019384Y008717D01*
X019898Y008698D02*
X019898Y008598D01*
X019898Y008594D01*
X019901Y008591D01*
X019904Y008588D01*
X019908Y008588D01*
X019958Y008588D01*
X019978Y008585D01*
X019996Y008577D01*
X020011Y008564D01*
X020022Y008547D01*
X020028Y008528D01*
X020028Y008508D01*
X020028Y008668D01*
X020008Y008698D01*
X020007Y008702D01*
X020005Y008705D01*
X020002Y008707D01*
X019998Y008708D01*
X019908Y008708D01*
X019904Y008707D01*
X019901Y008705D01*
X019898Y008702D01*
X019898Y008698D01*
X019898Y008669D02*
X020027Y008669D01*
X020028Y008620D02*
X019898Y008620D01*
X020001Y008572D02*
X020028Y008572D01*
X020028Y008523D02*
X020028Y008523D01*
X019584Y009154D02*
X019341Y009154D01*
X019285Y009202D02*
X019488Y009202D01*
X018442Y009202D02*
X017805Y009202D01*
X017809Y009154D02*
X018092Y009154D01*
X018031Y009057D02*
X018324Y009057D01*
X018200Y008696D02*
X018174Y008705D01*
X018148Y008708D01*
X018028Y008708D01*
X018001Y008705D01*
X017976Y008696D01*
X017953Y008682D01*
X017934Y008663D01*
X017920Y008640D01*
X017911Y008614D01*
X017908Y008588D01*
X017908Y008368D01*
X017911Y008339D01*
X017922Y008313D01*
X017940Y008290D01*
X017963Y008272D01*
X017989Y008261D01*
X018018Y008258D01*
X018158Y008258D01*
X018186Y008261D01*
X018213Y008272D01*
X018236Y008290D01*
X018253Y008313D01*
X018264Y008339D01*
X018268Y008368D01*
X018268Y008458D01*
X018168Y008458D01*
X018168Y008418D01*
X018166Y008402D01*
X018160Y008388D01*
X018150Y008375D01*
X018138Y008366D01*
X018123Y008360D01*
X018108Y008358D01*
X018078Y008358D01*
X018060Y008360D01*
X018043Y008367D01*
X018028Y008378D01*
X018017Y008393D01*
X018010Y008410D01*
X018008Y008428D01*
X018008Y008548D01*
X018008Y008552D01*
X018011Y008555D01*
X018014Y008557D01*
X018018Y008558D01*
X018018Y008578D01*
X018020Y008593D01*
X018027Y008607D01*
X018038Y008618D01*
X018052Y008625D01*
X018068Y008628D01*
X018091Y008625D01*
X018113Y008616D01*
X018131Y008601D01*
X018146Y008583D01*
X018155Y008561D01*
X018158Y008538D01*
X018158Y008518D01*
X018148Y008478D01*
X018268Y008478D01*
X018268Y008588D01*
X018265Y008614D01*
X018256Y008640D01*
X018242Y008663D01*
X018223Y008682D01*
X018200Y008696D01*
X018235Y008669D02*
X017940Y008669D01*
X017913Y008620D02*
X018042Y008620D01*
X018018Y008572D02*
X017908Y008572D01*
X017908Y008523D02*
X018008Y008523D01*
X018008Y008475D02*
X017908Y008475D01*
X017908Y008426D02*
X018008Y008426D01*
X018029Y008378D02*
X017908Y008378D01*
X017916Y008329D02*
X018260Y008329D01*
X018268Y008378D02*
X018152Y008378D01*
X018168Y008426D02*
X018268Y008426D01*
X018268Y008523D02*
X018158Y008523D01*
X018150Y008572D02*
X018268Y008572D01*
X018263Y008620D02*
X018102Y008620D01*
X018224Y008281D02*
X017952Y008281D01*
X017678Y008578D02*
X017678Y008628D01*
X017679Y008635D01*
X017684Y008642D01*
X017690Y008646D01*
X017698Y008648D01*
X017678Y008688D01*
X017676Y008697D01*
X017672Y008705D01*
X017665Y008712D01*
X017657Y008716D01*
X017648Y008718D01*
X017538Y008718D01*
X017522Y008716D01*
X017508Y008710D01*
X017495Y008700D01*
X017486Y008688D01*
X017480Y008673D01*
X017478Y008658D01*
X017478Y008628D01*
X017480Y008615D01*
X017485Y008604D01*
X017494Y008595D01*
X017505Y008590D01*
X017518Y008588D01*
X017588Y008588D01*
X017589Y008597D01*
X017593Y008605D01*
X017600Y008612D01*
X017608Y008616D01*
X017618Y008618D01*
X017638Y008618D01*
X017650Y008616D01*
X017661Y008610D01*
X017670Y008601D01*
X017676Y008590D01*
X017678Y008578D01*
X017678Y008620D02*
X017479Y008620D01*
X017479Y008669D02*
X017687Y008669D01*
X017651Y008717D02*
X017534Y008717D01*
X017541Y009251D02*
X017860Y009251D01*
X020506Y010318D02*
X021724Y010318D01*
X021711Y010366D02*
X020525Y010366D01*
X020548Y010415D02*
X021690Y010415D01*
X021665Y010463D02*
X020580Y010463D01*
X020617Y010512D02*
X021631Y010512D01*
X021586Y010560D02*
X020665Y010560D01*
X020731Y010609D02*
X021526Y010609D01*
X021439Y010657D02*
X020824Y010657D01*
X022709Y011045D02*
X022965Y011045D01*
X022940Y011094D02*
X022728Y011094D01*
X022740Y011142D02*
X022915Y011142D01*
X022883Y011191D02*
X022760Y011191D01*
X021580Y008475D02*
X021353Y008475D01*
X027764Y011530D02*
X027860Y011530D01*
X027870Y011530D02*
X027996Y011530D01*
X027969Y011482D02*
X027845Y011482D01*
X027812Y011482D02*
X027804Y011482D01*
X027889Y011433D02*
X027942Y011433D01*
X027895Y011579D02*
X028023Y011579D01*
X028096Y011967D02*
X028111Y011967D01*
X028162Y012112D02*
X028187Y012112D01*
D15*
X006858Y006658D02*
X006358Y006658D01*
X006341Y006660D01*
X006324Y006664D01*
X006308Y006671D01*
X006294Y006681D01*
X006281Y006694D01*
X006271Y006708D01*
X006264Y006724D01*
X006260Y006741D01*
X006258Y006758D01*
X006258Y007258D01*
X006258Y007358D02*
X007058Y007358D01*
X007058Y007458D02*
X007058Y007858D01*
X007058Y007958D02*
X006258Y007958D01*
X006258Y008058D02*
X006258Y008558D01*
X006260Y008575D01*
X006264Y008592D01*
X006271Y008608D01*
X006281Y008622D01*
X006294Y008635D01*
X006308Y008645D01*
X006324Y008652D01*
X006341Y008656D01*
X006358Y008658D01*
X006958Y008658D01*
X006975Y008656D01*
X006992Y008652D01*
X007008Y008645D01*
X007022Y008635D01*
X007035Y008622D01*
X007045Y008608D01*
X007052Y008592D01*
X007056Y008575D01*
X007058Y008558D01*
X007058Y008058D01*
X007058Y007258D02*
X007058Y006858D01*
X007056Y006832D01*
X007051Y006806D01*
X007043Y006781D01*
X007031Y006758D01*
X007017Y006736D01*
X006999Y006717D01*
X006980Y006699D01*
X006958Y006685D01*
X006935Y006673D01*
X006910Y006665D01*
X006884Y006660D01*
X006858Y006658D01*
X006258Y007458D02*
X006258Y007858D01*
X009258Y006558D02*
X009258Y005958D01*
X009260Y005941D01*
X009264Y005924D01*
X009271Y005908D01*
X009281Y005894D01*
X009294Y005881D01*
X009308Y005871D01*
X009324Y005864D01*
X009341Y005860D01*
X009358Y005858D01*
X009758Y005858D01*
X009858Y005858D02*
X009858Y006658D01*
X009958Y006658D02*
X010358Y006658D01*
X010458Y006658D02*
X010458Y005858D01*
X010558Y005858D02*
X011058Y005858D01*
X011075Y005860D01*
X011092Y005864D01*
X011108Y005871D01*
X011122Y005881D01*
X011135Y005894D01*
X011145Y005908D01*
X011152Y005924D01*
X011156Y005941D01*
X011158Y005958D01*
X011158Y006458D01*
X011156Y006484D01*
X011151Y006510D01*
X011143Y006535D01*
X011131Y006558D01*
X011117Y006580D01*
X011099Y006599D01*
X011080Y006617D01*
X011058Y006631D01*
X011035Y006643D01*
X011010Y006651D01*
X010984Y006656D01*
X010958Y006658D01*
X010558Y006658D01*
X009758Y006658D02*
X009358Y006658D01*
X009341Y006656D01*
X009324Y006652D01*
X009308Y006645D01*
X009294Y006635D01*
X009281Y006622D01*
X009271Y006608D01*
X009264Y006592D01*
X009260Y006575D01*
X009258Y006558D01*
X009958Y005858D02*
X010358Y005858D01*
X011858Y005958D02*
X011858Y006458D01*
X011860Y006484D01*
X011865Y006510D01*
X011873Y006535D01*
X011885Y006558D01*
X011899Y006580D01*
X011917Y006599D01*
X011936Y006617D01*
X011958Y006631D01*
X011981Y006643D01*
X012006Y006651D01*
X012032Y006656D01*
X012058Y006658D01*
X012458Y006658D01*
X012558Y006658D02*
X012558Y005858D01*
X012658Y005858D02*
X013058Y005858D01*
X013158Y005858D02*
X013158Y006658D01*
X013258Y006658D02*
X013658Y006658D01*
X013684Y006656D01*
X013710Y006651D01*
X013735Y006643D01*
X013758Y006631D01*
X013780Y006617D01*
X013799Y006599D01*
X013817Y006580D01*
X013831Y006558D01*
X013843Y006535D01*
X013851Y006510D01*
X013856Y006484D01*
X013858Y006458D01*
X013858Y005958D01*
X013856Y005941D01*
X013852Y005924D01*
X013845Y005908D01*
X013835Y005894D01*
X013822Y005881D01*
X013808Y005871D01*
X013792Y005864D01*
X013775Y005860D01*
X013758Y005858D01*
X013258Y005858D01*
X012458Y005858D02*
X011958Y005858D01*
X011941Y005860D01*
X011924Y005864D01*
X011908Y005871D01*
X011894Y005881D01*
X011881Y005894D01*
X011871Y005908D01*
X011864Y005924D01*
X011860Y005941D01*
X011858Y005958D01*
X012658Y006658D02*
X013058Y006658D01*
X026458Y006158D02*
X026458Y005658D01*
X026458Y005558D02*
X027258Y005558D01*
X027258Y005658D02*
X027258Y006158D01*
X027256Y006175D01*
X027252Y006192D01*
X027245Y006208D01*
X027235Y006222D01*
X027222Y006235D01*
X027208Y006245D01*
X027192Y006252D01*
X027175Y006256D01*
X027158Y006258D01*
X026558Y006258D01*
X026541Y006256D01*
X026524Y006252D01*
X026508Y006245D01*
X026494Y006235D01*
X026481Y006222D01*
X026471Y006208D01*
X026464Y006192D01*
X026460Y006175D01*
X026458Y006158D01*
X026458Y005458D02*
X026458Y005058D01*
X026458Y004958D02*
X027258Y004958D01*
X027258Y005058D02*
X027258Y005458D01*
X027258Y004858D02*
X027258Y004458D01*
X027256Y004441D01*
X027252Y004424D01*
X027245Y004408D01*
X027235Y004394D01*
X027222Y004381D01*
X027208Y004371D01*
X027192Y004364D01*
X027175Y004360D01*
X027158Y004358D01*
X026558Y004358D01*
X026541Y004360D01*
X026524Y004364D01*
X026508Y004371D01*
X026494Y004381D01*
X026481Y004394D01*
X026471Y004408D01*
X026464Y004424D01*
X026460Y004441D01*
X026458Y004458D01*
X026458Y004858D01*
X028858Y006558D02*
X028858Y007158D01*
X028860Y007175D01*
X028864Y007192D01*
X028871Y007208D01*
X028881Y007222D01*
X028894Y007235D01*
X028908Y007245D01*
X028924Y007252D01*
X028941Y007256D01*
X028958Y007258D01*
X029458Y007258D01*
X029558Y007258D02*
X029558Y006458D01*
X029658Y006458D02*
X030058Y006458D01*
X030158Y006458D02*
X030158Y007258D01*
X030258Y007258D02*
X030758Y007258D01*
X030775Y007256D01*
X030792Y007252D01*
X030808Y007245D01*
X030822Y007235D01*
X030835Y007222D01*
X030845Y007208D01*
X030852Y007192D01*
X030856Y007175D01*
X030858Y007158D01*
X030858Y006558D01*
X030856Y006541D01*
X030852Y006524D01*
X030845Y006508D01*
X030835Y006494D01*
X030822Y006481D01*
X030808Y006471D01*
X030792Y006464D01*
X030775Y006460D01*
X030758Y006458D01*
X030258Y006458D01*
X029458Y006458D02*
X028958Y006458D01*
X028941Y006460D01*
X028924Y006464D01*
X028908Y006471D01*
X028894Y006481D01*
X028881Y006494D01*
X028871Y006508D01*
X028864Y006524D01*
X028860Y006541D01*
X028858Y006558D01*
X029658Y007258D02*
X030058Y007258D01*
X032258Y007258D02*
X032258Y006658D01*
X032260Y006641D01*
X032264Y006624D01*
X032271Y006608D01*
X032281Y006594D01*
X032294Y006581D01*
X032308Y006571D01*
X032324Y006564D01*
X032341Y006560D01*
X032358Y006558D01*
X032758Y006558D01*
X032858Y006558D02*
X032858Y007358D01*
X032958Y007358D02*
X033358Y007358D01*
X033458Y007358D02*
X033458Y006558D01*
X033558Y006558D02*
X034058Y006558D01*
X034075Y006560D01*
X034092Y006564D01*
X034108Y006571D01*
X034122Y006581D01*
X034135Y006594D01*
X034145Y006608D01*
X034152Y006624D01*
X034156Y006641D01*
X034158Y006658D01*
X034158Y007158D01*
X034156Y007184D01*
X034151Y007210D01*
X034143Y007235D01*
X034131Y007258D01*
X034117Y007280D01*
X034099Y007299D01*
X034080Y007317D01*
X034058Y007331D01*
X034035Y007343D01*
X034010Y007351D01*
X033984Y007356D01*
X033958Y007358D01*
X033558Y007358D01*
X032758Y007358D02*
X032358Y007358D01*
X032341Y007356D01*
X032324Y007352D01*
X032308Y007345D01*
X032294Y007335D01*
X032281Y007322D01*
X032271Y007308D01*
X032264Y007292D01*
X032260Y007275D01*
X032258Y007258D01*
X032958Y006558D02*
X033358Y006558D01*
D16*
X025978Y009818D03*
D17*
X025993Y010573D03*
D18*
X025223Y009818D03*
D19*
X024443Y009738D03*
D20*
X022243Y010213D03*
D21*
X020033Y009933D03*
D22*
X019248Y009778D03*
D23*
X019778Y008488D03*
X022498Y008488D03*
D24*
X022498Y008828D03*
D25*
X023563Y008568D03*
D26*
X022073Y008453D03*
D27*
X021863Y008488D03*
D28*
X021633Y008453D03*
D29*
X021213Y008543D03*
D30*
X021118Y008653D03*
X018568Y008653D03*
D31*
X021308Y008653D03*
D32*
X020523Y008573D03*
D33*
X020083Y008483D03*
X017753Y008483D03*
D34*
X019778Y008823D03*
D35*
X018683Y008563D03*
D36*
X018783Y008653D03*
D37*
X018413Y008488D03*
D38*
X018418Y008828D03*
D39*
X017523Y008448D03*
D40*
X022968Y009818D03*
D41*
X018113Y009943D03*
D42*
X023233Y008493D03*
D43*
X018923Y008473D03*
D44*
X017028Y009743D03*
M02*
